G04 #@! TF.GenerationSoftware,KiCad,Pcbnew,(5.1.5)-3*
G04 #@! TF.CreationDate,2026-05-20T17:09:14+02:00*
G04 #@! TF.ProjectId,26 MAR,3236204d-4152-42e6-9b69-6361645f7063,rev?*
G04 #@! TF.SameCoordinates,Original*
G04 #@! TF.FileFunction,Soldermask,Bot*
G04 #@! TF.FilePolarity,Negative*
%FSLAX46Y46*%
G04 Gerber Fmt 4.6, Leading zero omitted, Abs format (unit mm)*
G04 Created by KiCad (PCBNEW (5.1.5)-3) date 2026-05-20 17:09:14*
%MOMM*%
%LPD*%
G04 APERTURE LIST*
%ADD10C,0.100000*%
G04 APERTURE END LIST*
D10*
G36*
X107022091Y-117842085D02*
G01*
X107056069Y-117852393D01*
X107087390Y-117869134D01*
X107114839Y-117891661D01*
X107137366Y-117919110D01*
X107154107Y-117950431D01*
X107164415Y-117984409D01*
X107168500Y-118025890D01*
X107168500Y-118702110D01*
X107164415Y-118743591D01*
X107154107Y-118777569D01*
X107137366Y-118808890D01*
X107114839Y-118836339D01*
X107087390Y-118858866D01*
X107056069Y-118875607D01*
X107022091Y-118885915D01*
X106980610Y-118890000D01*
X106379390Y-118890000D01*
X106337909Y-118885915D01*
X106303931Y-118875607D01*
X106272610Y-118858866D01*
X106245161Y-118836339D01*
X106222634Y-118808890D01*
X106205893Y-118777569D01*
X106195585Y-118743591D01*
X106191500Y-118702110D01*
X106191500Y-118025890D01*
X106195585Y-117984409D01*
X106205893Y-117950431D01*
X106222634Y-117919110D01*
X106245161Y-117891661D01*
X106272610Y-117869134D01*
X106303931Y-117852393D01*
X106337909Y-117842085D01*
X106379390Y-117838000D01*
X106980610Y-117838000D01*
X107022091Y-117842085D01*
G37*
G36*
X105447091Y-117842085D02*
G01*
X105481069Y-117852393D01*
X105512390Y-117869134D01*
X105539839Y-117891661D01*
X105562366Y-117919110D01*
X105579107Y-117950431D01*
X105589415Y-117984409D01*
X105593500Y-118025890D01*
X105593500Y-118702110D01*
X105589415Y-118743591D01*
X105579107Y-118777569D01*
X105562366Y-118808890D01*
X105539839Y-118836339D01*
X105512390Y-118858866D01*
X105481069Y-118875607D01*
X105447091Y-118885915D01*
X105405610Y-118890000D01*
X104804390Y-118890000D01*
X104762909Y-118885915D01*
X104728931Y-118875607D01*
X104697610Y-118858866D01*
X104670161Y-118836339D01*
X104647634Y-118808890D01*
X104630893Y-118777569D01*
X104620585Y-118743591D01*
X104616500Y-118702110D01*
X104616500Y-118025890D01*
X104620585Y-117984409D01*
X104630893Y-117950431D01*
X104647634Y-117919110D01*
X104670161Y-117891661D01*
X104697610Y-117869134D01*
X104728931Y-117852393D01*
X104762909Y-117842085D01*
X104804390Y-117838000D01*
X105405610Y-117838000D01*
X105447091Y-117842085D01*
G37*
G36*
X108462604Y-113436347D02*
G01*
X108499144Y-113447432D01*
X108532821Y-113465433D01*
X108562341Y-113489659D01*
X108586567Y-113519179D01*
X108604568Y-113552856D01*
X108615653Y-113589396D01*
X108620000Y-113633538D01*
X108620000Y-115982462D01*
X108615653Y-116026604D01*
X108604568Y-116063144D01*
X108586567Y-116096821D01*
X108562341Y-116126341D01*
X108532821Y-116150567D01*
X108499144Y-116168568D01*
X108462604Y-116179653D01*
X108418462Y-116184000D01*
X107469538Y-116184000D01*
X107425396Y-116179653D01*
X107388856Y-116168568D01*
X107355179Y-116150567D01*
X107325659Y-116126341D01*
X107301433Y-116096821D01*
X107283432Y-116063144D01*
X107272347Y-116026604D01*
X107268000Y-115982462D01*
X107268000Y-113633538D01*
X107272347Y-113589396D01*
X107283432Y-113552856D01*
X107301433Y-113519179D01*
X107325659Y-113489659D01*
X107355179Y-113465433D01*
X107388856Y-113447432D01*
X107425396Y-113436347D01*
X107469538Y-113432000D01*
X108418462Y-113432000D01*
X108462604Y-113436347D01*
G37*
G36*
X111262604Y-113436347D02*
G01*
X111299144Y-113447432D01*
X111332821Y-113465433D01*
X111362341Y-113489659D01*
X111386567Y-113519179D01*
X111404568Y-113552856D01*
X111415653Y-113589396D01*
X111420000Y-113633538D01*
X111420000Y-115982462D01*
X111415653Y-116026604D01*
X111404568Y-116063144D01*
X111386567Y-116096821D01*
X111362341Y-116126341D01*
X111332821Y-116150567D01*
X111299144Y-116168568D01*
X111262604Y-116179653D01*
X111218462Y-116184000D01*
X110269538Y-116184000D01*
X110225396Y-116179653D01*
X110188856Y-116168568D01*
X110155179Y-116150567D01*
X110125659Y-116126341D01*
X110101433Y-116096821D01*
X110083432Y-116063144D01*
X110072347Y-116026604D01*
X110068000Y-115982462D01*
X110068000Y-113633538D01*
X110072347Y-113589396D01*
X110083432Y-113552856D01*
X110101433Y-113519179D01*
X110125659Y-113489659D01*
X110155179Y-113465433D01*
X110188856Y-113447432D01*
X110225396Y-113436347D01*
X110269538Y-113432000D01*
X111218462Y-113432000D01*
X111262604Y-113436347D01*
G37*
G36*
X95774604Y-108864347D02*
G01*
X95811144Y-108875432D01*
X95844821Y-108893433D01*
X95874341Y-108917659D01*
X95898567Y-108947179D01*
X95916568Y-108980856D01*
X95927653Y-109017396D01*
X95932000Y-109061538D01*
X95932000Y-111410462D01*
X95927653Y-111454604D01*
X95916568Y-111491144D01*
X95898567Y-111524821D01*
X95874341Y-111554341D01*
X95844821Y-111578567D01*
X95811144Y-111596568D01*
X95774604Y-111607653D01*
X95730462Y-111612000D01*
X94781538Y-111612000D01*
X94737396Y-111607653D01*
X94700856Y-111596568D01*
X94667179Y-111578567D01*
X94637659Y-111554341D01*
X94613433Y-111524821D01*
X94595432Y-111491144D01*
X94584347Y-111454604D01*
X94580000Y-111410462D01*
X94580000Y-109061538D01*
X94584347Y-109017396D01*
X94595432Y-108980856D01*
X94613433Y-108947179D01*
X94637659Y-108917659D01*
X94667179Y-108893433D01*
X94700856Y-108875432D01*
X94737396Y-108864347D01*
X94781538Y-108860000D01*
X95730462Y-108860000D01*
X95774604Y-108864347D01*
G37*
G36*
X92974604Y-108864347D02*
G01*
X93011144Y-108875432D01*
X93044821Y-108893433D01*
X93074341Y-108917659D01*
X93098567Y-108947179D01*
X93116568Y-108980856D01*
X93127653Y-109017396D01*
X93132000Y-109061538D01*
X93132000Y-111410462D01*
X93127653Y-111454604D01*
X93116568Y-111491144D01*
X93098567Y-111524821D01*
X93074341Y-111554341D01*
X93044821Y-111578567D01*
X93011144Y-111596568D01*
X92974604Y-111607653D01*
X92930462Y-111612000D01*
X91981538Y-111612000D01*
X91937396Y-111607653D01*
X91900856Y-111596568D01*
X91867179Y-111578567D01*
X91837659Y-111554341D01*
X91813433Y-111524821D01*
X91795432Y-111491144D01*
X91784347Y-111454604D01*
X91780000Y-111410462D01*
X91780000Y-109061538D01*
X91784347Y-109017396D01*
X91795432Y-108980856D01*
X91813433Y-108947179D01*
X91837659Y-108917659D01*
X91867179Y-108893433D01*
X91900856Y-108875432D01*
X91937396Y-108864347D01*
X91981538Y-108860000D01*
X92930462Y-108860000D01*
X92974604Y-108864347D01*
G37*
G36*
X98785938Y-109359716D02*
G01*
X98806557Y-109365971D01*
X98825553Y-109376124D01*
X98842208Y-109389792D01*
X98855876Y-109406447D01*
X98866029Y-109425443D01*
X98872284Y-109446062D01*
X98875000Y-109473640D01*
X98875000Y-109982360D01*
X98872284Y-110009938D01*
X98866029Y-110030557D01*
X98855876Y-110049553D01*
X98842208Y-110066208D01*
X98825553Y-110079876D01*
X98806557Y-110090029D01*
X98785938Y-110096284D01*
X98758360Y-110099000D01*
X98299640Y-110099000D01*
X98272062Y-110096284D01*
X98251443Y-110090029D01*
X98232447Y-110079876D01*
X98215792Y-110066208D01*
X98202124Y-110049553D01*
X98191971Y-110030557D01*
X98185716Y-110009938D01*
X98183000Y-109982360D01*
X98183000Y-109473640D01*
X98185716Y-109446062D01*
X98191971Y-109425443D01*
X98202124Y-109406447D01*
X98215792Y-109389792D01*
X98232447Y-109376124D01*
X98251443Y-109365971D01*
X98272062Y-109359716D01*
X98299640Y-109357000D01*
X98758360Y-109357000D01*
X98785938Y-109359716D01*
G37*
G36*
X97815938Y-109359716D02*
G01*
X97836557Y-109365971D01*
X97855553Y-109376124D01*
X97872208Y-109389792D01*
X97885876Y-109406447D01*
X97896029Y-109425443D01*
X97902284Y-109446062D01*
X97905000Y-109473640D01*
X97905000Y-109982360D01*
X97902284Y-110009938D01*
X97896029Y-110030557D01*
X97885876Y-110049553D01*
X97872208Y-110066208D01*
X97855553Y-110079876D01*
X97836557Y-110090029D01*
X97815938Y-110096284D01*
X97788360Y-110099000D01*
X97329640Y-110099000D01*
X97302062Y-110096284D01*
X97281443Y-110090029D01*
X97262447Y-110079876D01*
X97245792Y-110066208D01*
X97232124Y-110049553D01*
X97221971Y-110030557D01*
X97215716Y-110009938D01*
X97213000Y-109982360D01*
X97213000Y-109473640D01*
X97215716Y-109446062D01*
X97221971Y-109425443D01*
X97232124Y-109406447D01*
X97245792Y-109389792D01*
X97262447Y-109376124D01*
X97281443Y-109365971D01*
X97302062Y-109359716D01*
X97329640Y-109357000D01*
X97788360Y-109357000D01*
X97815938Y-109359716D01*
G37*
G36*
X104935138Y-108724716D02*
G01*
X104955757Y-108730971D01*
X104974753Y-108741124D01*
X104991408Y-108754792D01*
X105005076Y-108771447D01*
X105015229Y-108790443D01*
X105021484Y-108811062D01*
X105024200Y-108838640D01*
X105024200Y-109347360D01*
X105021484Y-109374938D01*
X105015229Y-109395557D01*
X105005076Y-109414553D01*
X104991408Y-109431208D01*
X104974753Y-109444876D01*
X104955757Y-109455029D01*
X104935138Y-109461284D01*
X104907560Y-109464000D01*
X104448840Y-109464000D01*
X104421262Y-109461284D01*
X104400643Y-109455029D01*
X104381647Y-109444876D01*
X104364992Y-109431208D01*
X104351324Y-109414553D01*
X104341171Y-109395557D01*
X104334916Y-109374938D01*
X104332200Y-109347360D01*
X104332200Y-108838640D01*
X104334916Y-108811062D01*
X104341171Y-108790443D01*
X104351324Y-108771447D01*
X104364992Y-108754792D01*
X104381647Y-108741124D01*
X104400643Y-108730971D01*
X104421262Y-108724716D01*
X104448840Y-108722000D01*
X104907560Y-108722000D01*
X104935138Y-108724716D01*
G37*
G36*
X103965138Y-108724716D02*
G01*
X103985757Y-108730971D01*
X104004753Y-108741124D01*
X104021408Y-108754792D01*
X104035076Y-108771447D01*
X104045229Y-108790443D01*
X104051484Y-108811062D01*
X104054200Y-108838640D01*
X104054200Y-109347360D01*
X104051484Y-109374938D01*
X104045229Y-109395557D01*
X104035076Y-109414553D01*
X104021408Y-109431208D01*
X104004753Y-109444876D01*
X103985757Y-109455029D01*
X103965138Y-109461284D01*
X103937560Y-109464000D01*
X103478840Y-109464000D01*
X103451262Y-109461284D01*
X103430643Y-109455029D01*
X103411647Y-109444876D01*
X103394992Y-109431208D01*
X103381324Y-109414553D01*
X103371171Y-109395557D01*
X103364916Y-109374938D01*
X103362200Y-109347360D01*
X103362200Y-108838640D01*
X103364916Y-108811062D01*
X103371171Y-108790443D01*
X103381324Y-108771447D01*
X103394992Y-108754792D01*
X103411647Y-108741124D01*
X103430643Y-108730971D01*
X103451262Y-108724716D01*
X103478840Y-108722000D01*
X103937560Y-108722000D01*
X103965138Y-108724716D01*
G37*
G36*
X109522938Y-108343716D02*
G01*
X109543557Y-108349971D01*
X109562553Y-108360124D01*
X109579208Y-108373792D01*
X109592876Y-108390447D01*
X109603029Y-108409443D01*
X109609284Y-108430062D01*
X109612000Y-108457640D01*
X109612000Y-108966360D01*
X109609284Y-108993938D01*
X109603029Y-109014557D01*
X109592876Y-109033553D01*
X109579208Y-109050208D01*
X109562553Y-109063876D01*
X109543557Y-109074029D01*
X109522938Y-109080284D01*
X109495360Y-109083000D01*
X109036640Y-109083000D01*
X109009062Y-109080284D01*
X108988443Y-109074029D01*
X108969447Y-109063876D01*
X108952792Y-109050208D01*
X108939124Y-109033553D01*
X108928971Y-109014557D01*
X108922716Y-108993938D01*
X108920000Y-108966360D01*
X108920000Y-108457640D01*
X108922716Y-108430062D01*
X108928971Y-108409443D01*
X108939124Y-108390447D01*
X108952792Y-108373792D01*
X108969447Y-108360124D01*
X108988443Y-108349971D01*
X109009062Y-108343716D01*
X109036640Y-108341000D01*
X109495360Y-108341000D01*
X109522938Y-108343716D01*
G37*
G36*
X110492938Y-108343716D02*
G01*
X110513557Y-108349971D01*
X110532553Y-108360124D01*
X110549208Y-108373792D01*
X110562876Y-108390447D01*
X110573029Y-108409443D01*
X110579284Y-108430062D01*
X110582000Y-108457640D01*
X110582000Y-108966360D01*
X110579284Y-108993938D01*
X110573029Y-109014557D01*
X110562876Y-109033553D01*
X110549208Y-109050208D01*
X110532553Y-109063876D01*
X110513557Y-109074029D01*
X110492938Y-109080284D01*
X110465360Y-109083000D01*
X110006640Y-109083000D01*
X109979062Y-109080284D01*
X109958443Y-109074029D01*
X109939447Y-109063876D01*
X109922792Y-109050208D01*
X109909124Y-109033553D01*
X109898971Y-109014557D01*
X109892716Y-108993938D01*
X109890000Y-108966360D01*
X109890000Y-108457640D01*
X109892716Y-108430062D01*
X109898971Y-108409443D01*
X109909124Y-108390447D01*
X109922792Y-108373792D01*
X109939447Y-108360124D01*
X109958443Y-108349971D01*
X109979062Y-108343716D01*
X110006640Y-108341000D01*
X110465360Y-108341000D01*
X110492938Y-108343716D01*
G37*
G36*
X107898604Y-105252347D02*
G01*
X107935144Y-105263432D01*
X107968821Y-105281433D01*
X107998341Y-105305659D01*
X108022567Y-105335179D01*
X108040568Y-105368856D01*
X108051653Y-105405396D01*
X108056000Y-105449538D01*
X108056000Y-106398462D01*
X108051653Y-106442604D01*
X108040568Y-106479144D01*
X108022567Y-106512821D01*
X107998341Y-106542341D01*
X107968821Y-106566567D01*
X107935144Y-106584568D01*
X107898604Y-106595653D01*
X107854462Y-106600000D01*
X105505538Y-106600000D01*
X105461396Y-106595653D01*
X105424856Y-106584568D01*
X105391179Y-106566567D01*
X105361659Y-106542341D01*
X105337433Y-106512821D01*
X105319432Y-106479144D01*
X105308347Y-106442604D01*
X105304000Y-106398462D01*
X105304000Y-105449538D01*
X105308347Y-105405396D01*
X105319432Y-105368856D01*
X105337433Y-105335179D01*
X105361659Y-105305659D01*
X105391179Y-105281433D01*
X105424856Y-105263432D01*
X105461396Y-105252347D01*
X105505538Y-105248000D01*
X107854462Y-105248000D01*
X107898604Y-105252347D01*
G37*
G36*
X96722604Y-104744347D02*
G01*
X96759144Y-104755432D01*
X96792821Y-104773433D01*
X96822341Y-104797659D01*
X96846567Y-104827179D01*
X96864568Y-104860856D01*
X96875653Y-104897396D01*
X96880000Y-104941538D01*
X96880000Y-105890462D01*
X96875653Y-105934604D01*
X96864568Y-105971144D01*
X96846567Y-106004821D01*
X96822341Y-106034341D01*
X96792821Y-106058567D01*
X96759144Y-106076568D01*
X96722604Y-106087653D01*
X96678462Y-106092000D01*
X94329538Y-106092000D01*
X94285396Y-106087653D01*
X94248856Y-106076568D01*
X94215179Y-106058567D01*
X94185659Y-106034341D01*
X94161433Y-106004821D01*
X94143432Y-105971144D01*
X94132347Y-105934604D01*
X94128000Y-105890462D01*
X94128000Y-104941538D01*
X94132347Y-104897396D01*
X94143432Y-104860856D01*
X94161433Y-104827179D01*
X94185659Y-104797659D01*
X94215179Y-104773433D01*
X94248856Y-104755432D01*
X94285396Y-104744347D01*
X94329538Y-104740000D01*
X96678462Y-104740000D01*
X96722604Y-104744347D01*
G37*
G36*
X113057938Y-104789716D02*
G01*
X113078557Y-104795971D01*
X113097553Y-104806124D01*
X113114208Y-104819792D01*
X113127876Y-104836447D01*
X113138029Y-104855443D01*
X113144284Y-104876062D01*
X113147000Y-104903640D01*
X113147000Y-105362360D01*
X113144284Y-105389938D01*
X113138029Y-105410557D01*
X113127876Y-105429553D01*
X113114208Y-105446208D01*
X113097553Y-105459876D01*
X113078557Y-105470029D01*
X113057938Y-105476284D01*
X113030360Y-105479000D01*
X112521640Y-105479000D01*
X112494062Y-105476284D01*
X112473443Y-105470029D01*
X112454447Y-105459876D01*
X112437792Y-105446208D01*
X112424124Y-105429553D01*
X112413971Y-105410557D01*
X112407716Y-105389938D01*
X112405000Y-105362360D01*
X112405000Y-104903640D01*
X112407716Y-104876062D01*
X112413971Y-104855443D01*
X112424124Y-104836447D01*
X112437792Y-104819792D01*
X112454447Y-104806124D01*
X112473443Y-104795971D01*
X112494062Y-104789716D01*
X112521640Y-104787000D01*
X113030360Y-104787000D01*
X113057938Y-104789716D01*
G37*
G36*
X113057938Y-103819716D02*
G01*
X113078557Y-103825971D01*
X113097553Y-103836124D01*
X113114208Y-103849792D01*
X113127876Y-103866447D01*
X113138029Y-103885443D01*
X113144284Y-103906062D01*
X113147000Y-103933640D01*
X113147000Y-104392360D01*
X113144284Y-104419938D01*
X113138029Y-104440557D01*
X113127876Y-104459553D01*
X113114208Y-104476208D01*
X113097553Y-104489876D01*
X113078557Y-104500029D01*
X113057938Y-104506284D01*
X113030360Y-104509000D01*
X112521640Y-104509000D01*
X112494062Y-104506284D01*
X112473443Y-104500029D01*
X112454447Y-104489876D01*
X112437792Y-104476208D01*
X112424124Y-104459553D01*
X112413971Y-104440557D01*
X112407716Y-104419938D01*
X112405000Y-104392360D01*
X112405000Y-103933640D01*
X112407716Y-103906062D01*
X112413971Y-103885443D01*
X112424124Y-103866447D01*
X112437792Y-103849792D01*
X112454447Y-103836124D01*
X112473443Y-103825971D01*
X112494062Y-103819716D01*
X112521640Y-103817000D01*
X113030360Y-103817000D01*
X113057938Y-103819716D01*
G37*
G36*
X107898604Y-102452347D02*
G01*
X107935144Y-102463432D01*
X107968821Y-102481433D01*
X107998341Y-102505659D01*
X108022567Y-102535179D01*
X108040568Y-102568856D01*
X108051653Y-102605396D01*
X108056000Y-102649538D01*
X108056000Y-103598462D01*
X108051653Y-103642604D01*
X108040568Y-103679144D01*
X108022567Y-103712821D01*
X107998341Y-103742341D01*
X107968821Y-103766567D01*
X107935144Y-103784568D01*
X107898604Y-103795653D01*
X107854462Y-103800000D01*
X105505538Y-103800000D01*
X105461396Y-103795653D01*
X105424856Y-103784568D01*
X105391179Y-103766567D01*
X105361659Y-103742341D01*
X105337433Y-103712821D01*
X105319432Y-103679144D01*
X105308347Y-103642604D01*
X105304000Y-103598462D01*
X105304000Y-102649538D01*
X105308347Y-102605396D01*
X105319432Y-102568856D01*
X105337433Y-102535179D01*
X105361659Y-102505659D01*
X105391179Y-102481433D01*
X105424856Y-102463432D01*
X105461396Y-102452347D01*
X105505538Y-102448000D01*
X107854462Y-102448000D01*
X107898604Y-102452347D01*
G37*
G36*
X96722604Y-101944347D02*
G01*
X96759144Y-101955432D01*
X96792821Y-101973433D01*
X96822341Y-101997659D01*
X96846567Y-102027179D01*
X96864568Y-102060856D01*
X96875653Y-102097396D01*
X96880000Y-102141538D01*
X96880000Y-103090462D01*
X96875653Y-103134604D01*
X96864568Y-103171144D01*
X96846567Y-103204821D01*
X96822341Y-103234341D01*
X96792821Y-103258567D01*
X96759144Y-103276568D01*
X96722604Y-103287653D01*
X96678462Y-103292000D01*
X94329538Y-103292000D01*
X94285396Y-103287653D01*
X94248856Y-103276568D01*
X94215179Y-103258567D01*
X94185659Y-103234341D01*
X94161433Y-103204821D01*
X94143432Y-103171144D01*
X94132347Y-103134604D01*
X94128000Y-103090462D01*
X94128000Y-102141538D01*
X94132347Y-102097396D01*
X94143432Y-102060856D01*
X94161433Y-102027179D01*
X94185659Y-101997659D01*
X94215179Y-101973433D01*
X94248856Y-101955432D01*
X94285396Y-101944347D01*
X94329538Y-101940000D01*
X96678462Y-101940000D01*
X96722604Y-101944347D01*
G37*
G36*
X100210604Y-96164347D02*
G01*
X100247144Y-96175432D01*
X100280821Y-96193433D01*
X100310341Y-96217659D01*
X100334567Y-96247179D01*
X100352568Y-96280856D01*
X100363653Y-96317396D01*
X100368000Y-96361538D01*
X100368000Y-98710462D01*
X100363653Y-98754604D01*
X100352568Y-98791144D01*
X100334567Y-98824821D01*
X100310341Y-98854341D01*
X100280821Y-98878567D01*
X100247144Y-98896568D01*
X100210604Y-98907653D01*
X100166462Y-98912000D01*
X99217538Y-98912000D01*
X99173396Y-98907653D01*
X99136856Y-98896568D01*
X99103179Y-98878567D01*
X99073659Y-98854341D01*
X99049433Y-98824821D01*
X99031432Y-98791144D01*
X99020347Y-98754604D01*
X99016000Y-98710462D01*
X99016000Y-96361538D01*
X99020347Y-96317396D01*
X99031432Y-96280856D01*
X99049433Y-96247179D01*
X99073659Y-96217659D01*
X99103179Y-96193433D01*
X99136856Y-96175432D01*
X99173396Y-96164347D01*
X99217538Y-96160000D01*
X100166462Y-96160000D01*
X100210604Y-96164347D01*
G37*
G36*
X103010604Y-96164347D02*
G01*
X103047144Y-96175432D01*
X103080821Y-96193433D01*
X103110341Y-96217659D01*
X103134567Y-96247179D01*
X103152568Y-96280856D01*
X103163653Y-96317396D01*
X103168000Y-96361538D01*
X103168000Y-98710462D01*
X103163653Y-98754604D01*
X103152568Y-98791144D01*
X103134567Y-98824821D01*
X103110341Y-98854341D01*
X103080821Y-98878567D01*
X103047144Y-98896568D01*
X103010604Y-98907653D01*
X102966462Y-98912000D01*
X102017538Y-98912000D01*
X101973396Y-98907653D01*
X101936856Y-98896568D01*
X101903179Y-98878567D01*
X101873659Y-98854341D01*
X101849433Y-98824821D01*
X101831432Y-98791144D01*
X101820347Y-98754604D01*
X101816000Y-98710462D01*
X101816000Y-96361538D01*
X101820347Y-96317396D01*
X101831432Y-96280856D01*
X101849433Y-96247179D01*
X101873659Y-96217659D01*
X101903179Y-96193433D01*
X101936856Y-96175432D01*
X101973396Y-96164347D01*
X102017538Y-96160000D01*
X102966462Y-96160000D01*
X103010604Y-96164347D01*
G37*
G36*
X104904938Y-93713316D02*
G01*
X104925557Y-93719571D01*
X104944553Y-93729724D01*
X104961208Y-93743392D01*
X104974876Y-93760047D01*
X104985029Y-93779043D01*
X104991284Y-93799662D01*
X104994000Y-93827240D01*
X104994000Y-94335960D01*
X104991284Y-94363538D01*
X104985029Y-94384157D01*
X104974876Y-94403153D01*
X104961208Y-94419808D01*
X104944553Y-94433476D01*
X104925557Y-94443629D01*
X104904938Y-94449884D01*
X104877360Y-94452600D01*
X104418640Y-94452600D01*
X104391062Y-94449884D01*
X104370443Y-94443629D01*
X104351447Y-94433476D01*
X104334792Y-94419808D01*
X104321124Y-94403153D01*
X104310971Y-94384157D01*
X104304716Y-94363538D01*
X104302000Y-94335960D01*
X104302000Y-93827240D01*
X104304716Y-93799662D01*
X104310971Y-93779043D01*
X104321124Y-93760047D01*
X104334792Y-93743392D01*
X104351447Y-93729724D01*
X104370443Y-93719571D01*
X104391062Y-93713316D01*
X104418640Y-93710600D01*
X104877360Y-93710600D01*
X104904938Y-93713316D01*
G37*
G36*
X103934938Y-93713316D02*
G01*
X103955557Y-93719571D01*
X103974553Y-93729724D01*
X103991208Y-93743392D01*
X104004876Y-93760047D01*
X104015029Y-93779043D01*
X104021284Y-93799662D01*
X104024000Y-93827240D01*
X104024000Y-94335960D01*
X104021284Y-94363538D01*
X104015029Y-94384157D01*
X104004876Y-94403153D01*
X103991208Y-94419808D01*
X103974553Y-94433476D01*
X103955557Y-94443629D01*
X103934938Y-94449884D01*
X103907360Y-94452600D01*
X103448640Y-94452600D01*
X103421062Y-94449884D01*
X103400443Y-94443629D01*
X103381447Y-94433476D01*
X103364792Y-94419808D01*
X103351124Y-94403153D01*
X103340971Y-94384157D01*
X103334716Y-94363538D01*
X103332000Y-94335960D01*
X103332000Y-93827240D01*
X103334716Y-93799662D01*
X103340971Y-93779043D01*
X103351124Y-93760047D01*
X103364792Y-93743392D01*
X103381447Y-93729724D01*
X103400443Y-93719571D01*
X103421062Y-93713316D01*
X103448640Y-93710600D01*
X103907360Y-93710600D01*
X103934938Y-93713316D01*
G37*
M02*
