G04 #@! TF.GenerationSoftware,KiCad,Pcbnew,(5.1.5)-3*
G04 #@! TF.CreationDate,2026-05-20T17:09:14+02:00*
G04 #@! TF.ProjectId,26 MAR,3236204d-4152-42e6-9b69-6361645f7063,rev?*
G04 #@! TF.SameCoordinates,Original*
G04 #@! TF.FileFunction,Paste,Bot*
G04 #@! TF.FilePolarity,Positive*
%FSLAX46Y46*%
G04 Gerber Fmt 4.6, Leading zero omitted, Abs format (unit mm)*
G04 Created by KiCad (PCBNEW (5.1.5)-3) date 2026-05-20 17:09:14*
%MOMM*%
%LPD*%
G04 APERTURE LIST*
%ADD10C,0.100000*%
G04 APERTURE END LIST*
D10*
G36*
X96603504Y-101992204D02*
G01*
X96627773Y-101995804D01*
X96651571Y-102001765D01*
X96674671Y-102010030D01*
X96696849Y-102020520D01*
X96717893Y-102033133D01*
X96737598Y-102047747D01*
X96755777Y-102064223D01*
X96772253Y-102082402D01*
X96786867Y-102102107D01*
X96799480Y-102123151D01*
X96809970Y-102145329D01*
X96818235Y-102168429D01*
X96824196Y-102192227D01*
X96827796Y-102216496D01*
X96829000Y-102241000D01*
X96829000Y-102991000D01*
X96827796Y-103015504D01*
X96824196Y-103039773D01*
X96818235Y-103063571D01*
X96809970Y-103086671D01*
X96799480Y-103108849D01*
X96786867Y-103129893D01*
X96772253Y-103149598D01*
X96755777Y-103167777D01*
X96737598Y-103184253D01*
X96717893Y-103198867D01*
X96696849Y-103211480D01*
X96674671Y-103221970D01*
X96651571Y-103230235D01*
X96627773Y-103236196D01*
X96603504Y-103239796D01*
X96579000Y-103241000D01*
X94429000Y-103241000D01*
X94404496Y-103239796D01*
X94380227Y-103236196D01*
X94356429Y-103230235D01*
X94333329Y-103221970D01*
X94311151Y-103211480D01*
X94290107Y-103198867D01*
X94270402Y-103184253D01*
X94252223Y-103167777D01*
X94235747Y-103149598D01*
X94221133Y-103129893D01*
X94208520Y-103108849D01*
X94198030Y-103086671D01*
X94189765Y-103063571D01*
X94183804Y-103039773D01*
X94180204Y-103015504D01*
X94179000Y-102991000D01*
X94179000Y-102241000D01*
X94180204Y-102216496D01*
X94183804Y-102192227D01*
X94189765Y-102168429D01*
X94198030Y-102145329D01*
X94208520Y-102123151D01*
X94221133Y-102102107D01*
X94235747Y-102082402D01*
X94252223Y-102064223D01*
X94270402Y-102047747D01*
X94290107Y-102033133D01*
X94311151Y-102020520D01*
X94333329Y-102010030D01*
X94356429Y-102001765D01*
X94380227Y-101995804D01*
X94404496Y-101992204D01*
X94429000Y-101991000D01*
X96579000Y-101991000D01*
X96603504Y-101992204D01*
G37*
G36*
X96603504Y-104792204D02*
G01*
X96627773Y-104795804D01*
X96651571Y-104801765D01*
X96674671Y-104810030D01*
X96696849Y-104820520D01*
X96717893Y-104833133D01*
X96737598Y-104847747D01*
X96755777Y-104864223D01*
X96772253Y-104882402D01*
X96786867Y-104902107D01*
X96799480Y-104923151D01*
X96809970Y-104945329D01*
X96818235Y-104968429D01*
X96824196Y-104992227D01*
X96827796Y-105016496D01*
X96829000Y-105041000D01*
X96829000Y-105791000D01*
X96827796Y-105815504D01*
X96824196Y-105839773D01*
X96818235Y-105863571D01*
X96809970Y-105886671D01*
X96799480Y-105908849D01*
X96786867Y-105929893D01*
X96772253Y-105949598D01*
X96755777Y-105967777D01*
X96737598Y-105984253D01*
X96717893Y-105998867D01*
X96696849Y-106011480D01*
X96674671Y-106021970D01*
X96651571Y-106030235D01*
X96627773Y-106036196D01*
X96603504Y-106039796D01*
X96579000Y-106041000D01*
X94429000Y-106041000D01*
X94404496Y-106039796D01*
X94380227Y-106036196D01*
X94356429Y-106030235D01*
X94333329Y-106021970D01*
X94311151Y-106011480D01*
X94290107Y-105998867D01*
X94270402Y-105984253D01*
X94252223Y-105967777D01*
X94235747Y-105949598D01*
X94221133Y-105929893D01*
X94208520Y-105908849D01*
X94198030Y-105886671D01*
X94189765Y-105863571D01*
X94183804Y-105839773D01*
X94180204Y-105815504D01*
X94179000Y-105791000D01*
X94179000Y-105041000D01*
X94180204Y-105016496D01*
X94183804Y-104992227D01*
X94189765Y-104968429D01*
X94198030Y-104945329D01*
X94208520Y-104923151D01*
X94221133Y-104902107D01*
X94235747Y-104882402D01*
X94252223Y-104864223D01*
X94270402Y-104847747D01*
X94290107Y-104833133D01*
X94311151Y-104820520D01*
X94333329Y-104810030D01*
X94356429Y-104801765D01*
X94380227Y-104795804D01*
X94404496Y-104792204D01*
X94429000Y-104791000D01*
X96579000Y-104791000D01*
X96603504Y-104792204D01*
G37*
G36*
X105345191Y-117890053D02*
G01*
X105366426Y-117893203D01*
X105387250Y-117898419D01*
X105407462Y-117905651D01*
X105426868Y-117914830D01*
X105445281Y-117925866D01*
X105462524Y-117938654D01*
X105478430Y-117953070D01*
X105492846Y-117968976D01*
X105505634Y-117986219D01*
X105516670Y-118004632D01*
X105525849Y-118024038D01*
X105533081Y-118044250D01*
X105538297Y-118065074D01*
X105541447Y-118086309D01*
X105542500Y-118107750D01*
X105542500Y-118620250D01*
X105541447Y-118641691D01*
X105538297Y-118662926D01*
X105533081Y-118683750D01*
X105525849Y-118703962D01*
X105516670Y-118723368D01*
X105505634Y-118741781D01*
X105492846Y-118759024D01*
X105478430Y-118774930D01*
X105462524Y-118789346D01*
X105445281Y-118802134D01*
X105426868Y-118813170D01*
X105407462Y-118822349D01*
X105387250Y-118829581D01*
X105366426Y-118834797D01*
X105345191Y-118837947D01*
X105323750Y-118839000D01*
X104886250Y-118839000D01*
X104864809Y-118837947D01*
X104843574Y-118834797D01*
X104822750Y-118829581D01*
X104802538Y-118822349D01*
X104783132Y-118813170D01*
X104764719Y-118802134D01*
X104747476Y-118789346D01*
X104731570Y-118774930D01*
X104717154Y-118759024D01*
X104704366Y-118741781D01*
X104693330Y-118723368D01*
X104684151Y-118703962D01*
X104676919Y-118683750D01*
X104671703Y-118662926D01*
X104668553Y-118641691D01*
X104667500Y-118620250D01*
X104667500Y-118107750D01*
X104668553Y-118086309D01*
X104671703Y-118065074D01*
X104676919Y-118044250D01*
X104684151Y-118024038D01*
X104693330Y-118004632D01*
X104704366Y-117986219D01*
X104717154Y-117968976D01*
X104731570Y-117953070D01*
X104747476Y-117938654D01*
X104764719Y-117925866D01*
X104783132Y-117914830D01*
X104802538Y-117905651D01*
X104822750Y-117898419D01*
X104843574Y-117893203D01*
X104864809Y-117890053D01*
X104886250Y-117889000D01*
X105323750Y-117889000D01*
X105345191Y-117890053D01*
G37*
G36*
X106920191Y-117890053D02*
G01*
X106941426Y-117893203D01*
X106962250Y-117898419D01*
X106982462Y-117905651D01*
X107001868Y-117914830D01*
X107020281Y-117925866D01*
X107037524Y-117938654D01*
X107053430Y-117953070D01*
X107067846Y-117968976D01*
X107080634Y-117986219D01*
X107091670Y-118004632D01*
X107100849Y-118024038D01*
X107108081Y-118044250D01*
X107113297Y-118065074D01*
X107116447Y-118086309D01*
X107117500Y-118107750D01*
X107117500Y-118620250D01*
X107116447Y-118641691D01*
X107113297Y-118662926D01*
X107108081Y-118683750D01*
X107100849Y-118703962D01*
X107091670Y-118723368D01*
X107080634Y-118741781D01*
X107067846Y-118759024D01*
X107053430Y-118774930D01*
X107037524Y-118789346D01*
X107020281Y-118802134D01*
X107001868Y-118813170D01*
X106982462Y-118822349D01*
X106962250Y-118829581D01*
X106941426Y-118834797D01*
X106920191Y-118837947D01*
X106898750Y-118839000D01*
X106461250Y-118839000D01*
X106439809Y-118837947D01*
X106418574Y-118834797D01*
X106397750Y-118829581D01*
X106377538Y-118822349D01*
X106358132Y-118813170D01*
X106339719Y-118802134D01*
X106322476Y-118789346D01*
X106306570Y-118774930D01*
X106292154Y-118759024D01*
X106279366Y-118741781D01*
X106268330Y-118723368D01*
X106259151Y-118703962D01*
X106251919Y-118683750D01*
X106246703Y-118662926D01*
X106243553Y-118641691D01*
X106242500Y-118620250D01*
X106242500Y-118107750D01*
X106243553Y-118086309D01*
X106246703Y-118065074D01*
X106251919Y-118044250D01*
X106259151Y-118024038D01*
X106268330Y-118004632D01*
X106279366Y-117986219D01*
X106292154Y-117968976D01*
X106306570Y-117953070D01*
X106322476Y-117938654D01*
X106339719Y-117925866D01*
X106358132Y-117914830D01*
X106377538Y-117905651D01*
X106397750Y-117898419D01*
X106418574Y-117893203D01*
X106439809Y-117890053D01*
X106461250Y-117889000D01*
X106898750Y-117889000D01*
X106920191Y-117890053D01*
G37*
G36*
X110397958Y-108392710D02*
G01*
X110412276Y-108394834D01*
X110426317Y-108398351D01*
X110439946Y-108403228D01*
X110453031Y-108409417D01*
X110465447Y-108416858D01*
X110477073Y-108425481D01*
X110487798Y-108435202D01*
X110497519Y-108445927D01*
X110506142Y-108457553D01*
X110513583Y-108469969D01*
X110519772Y-108483054D01*
X110524649Y-108496683D01*
X110528166Y-108510724D01*
X110530290Y-108525042D01*
X110531000Y-108539500D01*
X110531000Y-108884500D01*
X110530290Y-108898958D01*
X110528166Y-108913276D01*
X110524649Y-108927317D01*
X110519772Y-108940946D01*
X110513583Y-108954031D01*
X110506142Y-108966447D01*
X110497519Y-108978073D01*
X110487798Y-108988798D01*
X110477073Y-108998519D01*
X110465447Y-109007142D01*
X110453031Y-109014583D01*
X110439946Y-109020772D01*
X110426317Y-109025649D01*
X110412276Y-109029166D01*
X110397958Y-109031290D01*
X110383500Y-109032000D01*
X110088500Y-109032000D01*
X110074042Y-109031290D01*
X110059724Y-109029166D01*
X110045683Y-109025649D01*
X110032054Y-109020772D01*
X110018969Y-109014583D01*
X110006553Y-109007142D01*
X109994927Y-108998519D01*
X109984202Y-108988798D01*
X109974481Y-108978073D01*
X109965858Y-108966447D01*
X109958417Y-108954031D01*
X109952228Y-108940946D01*
X109947351Y-108927317D01*
X109943834Y-108913276D01*
X109941710Y-108898958D01*
X109941000Y-108884500D01*
X109941000Y-108539500D01*
X109941710Y-108525042D01*
X109943834Y-108510724D01*
X109947351Y-108496683D01*
X109952228Y-108483054D01*
X109958417Y-108469969D01*
X109965858Y-108457553D01*
X109974481Y-108445927D01*
X109984202Y-108435202D01*
X109994927Y-108425481D01*
X110006553Y-108416858D01*
X110018969Y-108409417D01*
X110032054Y-108403228D01*
X110045683Y-108398351D01*
X110059724Y-108394834D01*
X110074042Y-108392710D01*
X110088500Y-108392000D01*
X110383500Y-108392000D01*
X110397958Y-108392710D01*
G37*
G36*
X109427958Y-108392710D02*
G01*
X109442276Y-108394834D01*
X109456317Y-108398351D01*
X109469946Y-108403228D01*
X109483031Y-108409417D01*
X109495447Y-108416858D01*
X109507073Y-108425481D01*
X109517798Y-108435202D01*
X109527519Y-108445927D01*
X109536142Y-108457553D01*
X109543583Y-108469969D01*
X109549772Y-108483054D01*
X109554649Y-108496683D01*
X109558166Y-108510724D01*
X109560290Y-108525042D01*
X109561000Y-108539500D01*
X109561000Y-108884500D01*
X109560290Y-108898958D01*
X109558166Y-108913276D01*
X109554649Y-108927317D01*
X109549772Y-108940946D01*
X109543583Y-108954031D01*
X109536142Y-108966447D01*
X109527519Y-108978073D01*
X109517798Y-108988798D01*
X109507073Y-108998519D01*
X109495447Y-109007142D01*
X109483031Y-109014583D01*
X109469946Y-109020772D01*
X109456317Y-109025649D01*
X109442276Y-109029166D01*
X109427958Y-109031290D01*
X109413500Y-109032000D01*
X109118500Y-109032000D01*
X109104042Y-109031290D01*
X109089724Y-109029166D01*
X109075683Y-109025649D01*
X109062054Y-109020772D01*
X109048969Y-109014583D01*
X109036553Y-109007142D01*
X109024927Y-108998519D01*
X109014202Y-108988798D01*
X109004481Y-108978073D01*
X108995858Y-108966447D01*
X108988417Y-108954031D01*
X108982228Y-108940946D01*
X108977351Y-108927317D01*
X108973834Y-108913276D01*
X108971710Y-108898958D01*
X108971000Y-108884500D01*
X108971000Y-108539500D01*
X108971710Y-108525042D01*
X108973834Y-108510724D01*
X108977351Y-108496683D01*
X108982228Y-108483054D01*
X108988417Y-108469969D01*
X108995858Y-108457553D01*
X109004481Y-108445927D01*
X109014202Y-108435202D01*
X109024927Y-108425481D01*
X109036553Y-108416858D01*
X109048969Y-108409417D01*
X109062054Y-108403228D01*
X109075683Y-108398351D01*
X109089724Y-108394834D01*
X109104042Y-108392710D01*
X109118500Y-108392000D01*
X109413500Y-108392000D01*
X109427958Y-108392710D01*
G37*
G36*
X98690958Y-109408710D02*
G01*
X98705276Y-109410834D01*
X98719317Y-109414351D01*
X98732946Y-109419228D01*
X98746031Y-109425417D01*
X98758447Y-109432858D01*
X98770073Y-109441481D01*
X98780798Y-109451202D01*
X98790519Y-109461927D01*
X98799142Y-109473553D01*
X98806583Y-109485969D01*
X98812772Y-109499054D01*
X98817649Y-109512683D01*
X98821166Y-109526724D01*
X98823290Y-109541042D01*
X98824000Y-109555500D01*
X98824000Y-109900500D01*
X98823290Y-109914958D01*
X98821166Y-109929276D01*
X98817649Y-109943317D01*
X98812772Y-109956946D01*
X98806583Y-109970031D01*
X98799142Y-109982447D01*
X98790519Y-109994073D01*
X98780798Y-110004798D01*
X98770073Y-110014519D01*
X98758447Y-110023142D01*
X98746031Y-110030583D01*
X98732946Y-110036772D01*
X98719317Y-110041649D01*
X98705276Y-110045166D01*
X98690958Y-110047290D01*
X98676500Y-110048000D01*
X98381500Y-110048000D01*
X98367042Y-110047290D01*
X98352724Y-110045166D01*
X98338683Y-110041649D01*
X98325054Y-110036772D01*
X98311969Y-110030583D01*
X98299553Y-110023142D01*
X98287927Y-110014519D01*
X98277202Y-110004798D01*
X98267481Y-109994073D01*
X98258858Y-109982447D01*
X98251417Y-109970031D01*
X98245228Y-109956946D01*
X98240351Y-109943317D01*
X98236834Y-109929276D01*
X98234710Y-109914958D01*
X98234000Y-109900500D01*
X98234000Y-109555500D01*
X98234710Y-109541042D01*
X98236834Y-109526724D01*
X98240351Y-109512683D01*
X98245228Y-109499054D01*
X98251417Y-109485969D01*
X98258858Y-109473553D01*
X98267481Y-109461927D01*
X98277202Y-109451202D01*
X98287927Y-109441481D01*
X98299553Y-109432858D01*
X98311969Y-109425417D01*
X98325054Y-109419228D01*
X98338683Y-109414351D01*
X98352724Y-109410834D01*
X98367042Y-109408710D01*
X98381500Y-109408000D01*
X98676500Y-109408000D01*
X98690958Y-109408710D01*
G37*
G36*
X97720958Y-109408710D02*
G01*
X97735276Y-109410834D01*
X97749317Y-109414351D01*
X97762946Y-109419228D01*
X97776031Y-109425417D01*
X97788447Y-109432858D01*
X97800073Y-109441481D01*
X97810798Y-109451202D01*
X97820519Y-109461927D01*
X97829142Y-109473553D01*
X97836583Y-109485969D01*
X97842772Y-109499054D01*
X97847649Y-109512683D01*
X97851166Y-109526724D01*
X97853290Y-109541042D01*
X97854000Y-109555500D01*
X97854000Y-109900500D01*
X97853290Y-109914958D01*
X97851166Y-109929276D01*
X97847649Y-109943317D01*
X97842772Y-109956946D01*
X97836583Y-109970031D01*
X97829142Y-109982447D01*
X97820519Y-109994073D01*
X97810798Y-110004798D01*
X97800073Y-110014519D01*
X97788447Y-110023142D01*
X97776031Y-110030583D01*
X97762946Y-110036772D01*
X97749317Y-110041649D01*
X97735276Y-110045166D01*
X97720958Y-110047290D01*
X97706500Y-110048000D01*
X97411500Y-110048000D01*
X97397042Y-110047290D01*
X97382724Y-110045166D01*
X97368683Y-110041649D01*
X97355054Y-110036772D01*
X97341969Y-110030583D01*
X97329553Y-110023142D01*
X97317927Y-110014519D01*
X97307202Y-110004798D01*
X97297481Y-109994073D01*
X97288858Y-109982447D01*
X97281417Y-109970031D01*
X97275228Y-109956946D01*
X97270351Y-109943317D01*
X97266834Y-109929276D01*
X97264710Y-109914958D01*
X97264000Y-109900500D01*
X97264000Y-109555500D01*
X97264710Y-109541042D01*
X97266834Y-109526724D01*
X97270351Y-109512683D01*
X97275228Y-109499054D01*
X97281417Y-109485969D01*
X97288858Y-109473553D01*
X97297481Y-109461927D01*
X97307202Y-109451202D01*
X97317927Y-109441481D01*
X97329553Y-109432858D01*
X97341969Y-109425417D01*
X97355054Y-109419228D01*
X97368683Y-109414351D01*
X97382724Y-109410834D01*
X97397042Y-109408710D01*
X97411500Y-109408000D01*
X97706500Y-109408000D01*
X97720958Y-109408710D01*
G37*
G36*
X103839958Y-93762310D02*
G01*
X103854276Y-93764434D01*
X103868317Y-93767951D01*
X103881946Y-93772828D01*
X103895031Y-93779017D01*
X103907447Y-93786458D01*
X103919073Y-93795081D01*
X103929798Y-93804802D01*
X103939519Y-93815527D01*
X103948142Y-93827153D01*
X103955583Y-93839569D01*
X103961772Y-93852654D01*
X103966649Y-93866283D01*
X103970166Y-93880324D01*
X103972290Y-93894642D01*
X103973000Y-93909100D01*
X103973000Y-94254100D01*
X103972290Y-94268558D01*
X103970166Y-94282876D01*
X103966649Y-94296917D01*
X103961772Y-94310546D01*
X103955583Y-94323631D01*
X103948142Y-94336047D01*
X103939519Y-94347673D01*
X103929798Y-94358398D01*
X103919073Y-94368119D01*
X103907447Y-94376742D01*
X103895031Y-94384183D01*
X103881946Y-94390372D01*
X103868317Y-94395249D01*
X103854276Y-94398766D01*
X103839958Y-94400890D01*
X103825500Y-94401600D01*
X103530500Y-94401600D01*
X103516042Y-94400890D01*
X103501724Y-94398766D01*
X103487683Y-94395249D01*
X103474054Y-94390372D01*
X103460969Y-94384183D01*
X103448553Y-94376742D01*
X103436927Y-94368119D01*
X103426202Y-94358398D01*
X103416481Y-94347673D01*
X103407858Y-94336047D01*
X103400417Y-94323631D01*
X103394228Y-94310546D01*
X103389351Y-94296917D01*
X103385834Y-94282876D01*
X103383710Y-94268558D01*
X103383000Y-94254100D01*
X103383000Y-93909100D01*
X103383710Y-93894642D01*
X103385834Y-93880324D01*
X103389351Y-93866283D01*
X103394228Y-93852654D01*
X103400417Y-93839569D01*
X103407858Y-93827153D01*
X103416481Y-93815527D01*
X103426202Y-93804802D01*
X103436927Y-93795081D01*
X103448553Y-93786458D01*
X103460969Y-93779017D01*
X103474054Y-93772828D01*
X103487683Y-93767951D01*
X103501724Y-93764434D01*
X103516042Y-93762310D01*
X103530500Y-93761600D01*
X103825500Y-93761600D01*
X103839958Y-93762310D01*
G37*
G36*
X104809958Y-93762310D02*
G01*
X104824276Y-93764434D01*
X104838317Y-93767951D01*
X104851946Y-93772828D01*
X104865031Y-93779017D01*
X104877447Y-93786458D01*
X104889073Y-93795081D01*
X104899798Y-93804802D01*
X104909519Y-93815527D01*
X104918142Y-93827153D01*
X104925583Y-93839569D01*
X104931772Y-93852654D01*
X104936649Y-93866283D01*
X104940166Y-93880324D01*
X104942290Y-93894642D01*
X104943000Y-93909100D01*
X104943000Y-94254100D01*
X104942290Y-94268558D01*
X104940166Y-94282876D01*
X104936649Y-94296917D01*
X104931772Y-94310546D01*
X104925583Y-94323631D01*
X104918142Y-94336047D01*
X104909519Y-94347673D01*
X104899798Y-94358398D01*
X104889073Y-94368119D01*
X104877447Y-94376742D01*
X104865031Y-94384183D01*
X104851946Y-94390372D01*
X104838317Y-94395249D01*
X104824276Y-94398766D01*
X104809958Y-94400890D01*
X104795500Y-94401600D01*
X104500500Y-94401600D01*
X104486042Y-94400890D01*
X104471724Y-94398766D01*
X104457683Y-94395249D01*
X104444054Y-94390372D01*
X104430969Y-94384183D01*
X104418553Y-94376742D01*
X104406927Y-94368119D01*
X104396202Y-94358398D01*
X104386481Y-94347673D01*
X104377858Y-94336047D01*
X104370417Y-94323631D01*
X104364228Y-94310546D01*
X104359351Y-94296917D01*
X104355834Y-94282876D01*
X104353710Y-94268558D01*
X104353000Y-94254100D01*
X104353000Y-93909100D01*
X104353710Y-93894642D01*
X104355834Y-93880324D01*
X104359351Y-93866283D01*
X104364228Y-93852654D01*
X104370417Y-93839569D01*
X104377858Y-93827153D01*
X104386481Y-93815527D01*
X104396202Y-93804802D01*
X104406927Y-93795081D01*
X104418553Y-93786458D01*
X104430969Y-93779017D01*
X104444054Y-93772828D01*
X104457683Y-93767951D01*
X104471724Y-93764434D01*
X104486042Y-93762310D01*
X104500500Y-93761600D01*
X104795500Y-93761600D01*
X104809958Y-93762310D01*
G37*
G36*
X103870158Y-108773710D02*
G01*
X103884476Y-108775834D01*
X103898517Y-108779351D01*
X103912146Y-108784228D01*
X103925231Y-108790417D01*
X103937647Y-108797858D01*
X103949273Y-108806481D01*
X103959998Y-108816202D01*
X103969719Y-108826927D01*
X103978342Y-108838553D01*
X103985783Y-108850969D01*
X103991972Y-108864054D01*
X103996849Y-108877683D01*
X104000366Y-108891724D01*
X104002490Y-108906042D01*
X104003200Y-108920500D01*
X104003200Y-109265500D01*
X104002490Y-109279958D01*
X104000366Y-109294276D01*
X103996849Y-109308317D01*
X103991972Y-109321946D01*
X103985783Y-109335031D01*
X103978342Y-109347447D01*
X103969719Y-109359073D01*
X103959998Y-109369798D01*
X103949273Y-109379519D01*
X103937647Y-109388142D01*
X103925231Y-109395583D01*
X103912146Y-109401772D01*
X103898517Y-109406649D01*
X103884476Y-109410166D01*
X103870158Y-109412290D01*
X103855700Y-109413000D01*
X103560700Y-109413000D01*
X103546242Y-109412290D01*
X103531924Y-109410166D01*
X103517883Y-109406649D01*
X103504254Y-109401772D01*
X103491169Y-109395583D01*
X103478753Y-109388142D01*
X103467127Y-109379519D01*
X103456402Y-109369798D01*
X103446681Y-109359073D01*
X103438058Y-109347447D01*
X103430617Y-109335031D01*
X103424428Y-109321946D01*
X103419551Y-109308317D01*
X103416034Y-109294276D01*
X103413910Y-109279958D01*
X103413200Y-109265500D01*
X103413200Y-108920500D01*
X103413910Y-108906042D01*
X103416034Y-108891724D01*
X103419551Y-108877683D01*
X103424428Y-108864054D01*
X103430617Y-108850969D01*
X103438058Y-108838553D01*
X103446681Y-108826927D01*
X103456402Y-108816202D01*
X103467127Y-108806481D01*
X103478753Y-108797858D01*
X103491169Y-108790417D01*
X103504254Y-108784228D01*
X103517883Y-108779351D01*
X103531924Y-108775834D01*
X103546242Y-108773710D01*
X103560700Y-108773000D01*
X103855700Y-108773000D01*
X103870158Y-108773710D01*
G37*
G36*
X104840158Y-108773710D02*
G01*
X104854476Y-108775834D01*
X104868517Y-108779351D01*
X104882146Y-108784228D01*
X104895231Y-108790417D01*
X104907647Y-108797858D01*
X104919273Y-108806481D01*
X104929998Y-108816202D01*
X104939719Y-108826927D01*
X104948342Y-108838553D01*
X104955783Y-108850969D01*
X104961972Y-108864054D01*
X104966849Y-108877683D01*
X104970366Y-108891724D01*
X104972490Y-108906042D01*
X104973200Y-108920500D01*
X104973200Y-109265500D01*
X104972490Y-109279958D01*
X104970366Y-109294276D01*
X104966849Y-109308317D01*
X104961972Y-109321946D01*
X104955783Y-109335031D01*
X104948342Y-109347447D01*
X104939719Y-109359073D01*
X104929998Y-109369798D01*
X104919273Y-109379519D01*
X104907647Y-109388142D01*
X104895231Y-109395583D01*
X104882146Y-109401772D01*
X104868517Y-109406649D01*
X104854476Y-109410166D01*
X104840158Y-109412290D01*
X104825700Y-109413000D01*
X104530700Y-109413000D01*
X104516242Y-109412290D01*
X104501924Y-109410166D01*
X104487883Y-109406649D01*
X104474254Y-109401772D01*
X104461169Y-109395583D01*
X104448753Y-109388142D01*
X104437127Y-109379519D01*
X104426402Y-109369798D01*
X104416681Y-109359073D01*
X104408058Y-109347447D01*
X104400617Y-109335031D01*
X104394428Y-109321946D01*
X104389551Y-109308317D01*
X104386034Y-109294276D01*
X104383910Y-109279958D01*
X104383200Y-109265500D01*
X104383200Y-108920500D01*
X104383910Y-108906042D01*
X104386034Y-108891724D01*
X104389551Y-108877683D01*
X104394428Y-108864054D01*
X104400617Y-108850969D01*
X104408058Y-108838553D01*
X104416681Y-108826927D01*
X104426402Y-108816202D01*
X104437127Y-108806481D01*
X104448753Y-108797858D01*
X104461169Y-108790417D01*
X104474254Y-108784228D01*
X104487883Y-108779351D01*
X104501924Y-108775834D01*
X104516242Y-108773710D01*
X104530700Y-108773000D01*
X104825700Y-108773000D01*
X104840158Y-108773710D01*
G37*
G36*
X92855504Y-108912204D02*
G01*
X92879773Y-108915804D01*
X92903571Y-108921765D01*
X92926671Y-108930030D01*
X92948849Y-108940520D01*
X92969893Y-108953133D01*
X92989598Y-108967747D01*
X93007777Y-108984223D01*
X93024253Y-109002402D01*
X93038867Y-109022107D01*
X93051480Y-109043151D01*
X93061970Y-109065329D01*
X93070235Y-109088429D01*
X93076196Y-109112227D01*
X93079796Y-109136496D01*
X93081000Y-109161000D01*
X93081000Y-111311000D01*
X93079796Y-111335504D01*
X93076196Y-111359773D01*
X93070235Y-111383571D01*
X93061970Y-111406671D01*
X93051480Y-111428849D01*
X93038867Y-111449893D01*
X93024253Y-111469598D01*
X93007777Y-111487777D01*
X92989598Y-111504253D01*
X92969893Y-111518867D01*
X92948849Y-111531480D01*
X92926671Y-111541970D01*
X92903571Y-111550235D01*
X92879773Y-111556196D01*
X92855504Y-111559796D01*
X92831000Y-111561000D01*
X92081000Y-111561000D01*
X92056496Y-111559796D01*
X92032227Y-111556196D01*
X92008429Y-111550235D01*
X91985329Y-111541970D01*
X91963151Y-111531480D01*
X91942107Y-111518867D01*
X91922402Y-111504253D01*
X91904223Y-111487777D01*
X91887747Y-111469598D01*
X91873133Y-111449893D01*
X91860520Y-111428849D01*
X91850030Y-111406671D01*
X91841765Y-111383571D01*
X91835804Y-111359773D01*
X91832204Y-111335504D01*
X91831000Y-111311000D01*
X91831000Y-109161000D01*
X91832204Y-109136496D01*
X91835804Y-109112227D01*
X91841765Y-109088429D01*
X91850030Y-109065329D01*
X91860520Y-109043151D01*
X91873133Y-109022107D01*
X91887747Y-109002402D01*
X91904223Y-108984223D01*
X91922402Y-108967747D01*
X91942107Y-108953133D01*
X91963151Y-108940520D01*
X91985329Y-108930030D01*
X92008429Y-108921765D01*
X92032227Y-108915804D01*
X92056496Y-108912204D01*
X92081000Y-108911000D01*
X92831000Y-108911000D01*
X92855504Y-108912204D01*
G37*
G36*
X95655504Y-108912204D02*
G01*
X95679773Y-108915804D01*
X95703571Y-108921765D01*
X95726671Y-108930030D01*
X95748849Y-108940520D01*
X95769893Y-108953133D01*
X95789598Y-108967747D01*
X95807777Y-108984223D01*
X95824253Y-109002402D01*
X95838867Y-109022107D01*
X95851480Y-109043151D01*
X95861970Y-109065329D01*
X95870235Y-109088429D01*
X95876196Y-109112227D01*
X95879796Y-109136496D01*
X95881000Y-109161000D01*
X95881000Y-111311000D01*
X95879796Y-111335504D01*
X95876196Y-111359773D01*
X95870235Y-111383571D01*
X95861970Y-111406671D01*
X95851480Y-111428849D01*
X95838867Y-111449893D01*
X95824253Y-111469598D01*
X95807777Y-111487777D01*
X95789598Y-111504253D01*
X95769893Y-111518867D01*
X95748849Y-111531480D01*
X95726671Y-111541970D01*
X95703571Y-111550235D01*
X95679773Y-111556196D01*
X95655504Y-111559796D01*
X95631000Y-111561000D01*
X94881000Y-111561000D01*
X94856496Y-111559796D01*
X94832227Y-111556196D01*
X94808429Y-111550235D01*
X94785329Y-111541970D01*
X94763151Y-111531480D01*
X94742107Y-111518867D01*
X94722402Y-111504253D01*
X94704223Y-111487777D01*
X94687747Y-111469598D01*
X94673133Y-111449893D01*
X94660520Y-111428849D01*
X94650030Y-111406671D01*
X94641765Y-111383571D01*
X94635804Y-111359773D01*
X94632204Y-111335504D01*
X94631000Y-111311000D01*
X94631000Y-109161000D01*
X94632204Y-109136496D01*
X94635804Y-109112227D01*
X94641765Y-109088429D01*
X94650030Y-109065329D01*
X94660520Y-109043151D01*
X94673133Y-109022107D01*
X94687747Y-109002402D01*
X94704223Y-108984223D01*
X94722402Y-108967747D01*
X94742107Y-108953133D01*
X94763151Y-108940520D01*
X94785329Y-108930030D01*
X94808429Y-108921765D01*
X94832227Y-108915804D01*
X94856496Y-108912204D01*
X94881000Y-108911000D01*
X95631000Y-108911000D01*
X95655504Y-108912204D01*
G37*
G36*
X100091504Y-96212204D02*
G01*
X100115773Y-96215804D01*
X100139571Y-96221765D01*
X100162671Y-96230030D01*
X100184849Y-96240520D01*
X100205893Y-96253133D01*
X100225598Y-96267747D01*
X100243777Y-96284223D01*
X100260253Y-96302402D01*
X100274867Y-96322107D01*
X100287480Y-96343151D01*
X100297970Y-96365329D01*
X100306235Y-96388429D01*
X100312196Y-96412227D01*
X100315796Y-96436496D01*
X100317000Y-96461000D01*
X100317000Y-98611000D01*
X100315796Y-98635504D01*
X100312196Y-98659773D01*
X100306235Y-98683571D01*
X100297970Y-98706671D01*
X100287480Y-98728849D01*
X100274867Y-98749893D01*
X100260253Y-98769598D01*
X100243777Y-98787777D01*
X100225598Y-98804253D01*
X100205893Y-98818867D01*
X100184849Y-98831480D01*
X100162671Y-98841970D01*
X100139571Y-98850235D01*
X100115773Y-98856196D01*
X100091504Y-98859796D01*
X100067000Y-98861000D01*
X99317000Y-98861000D01*
X99292496Y-98859796D01*
X99268227Y-98856196D01*
X99244429Y-98850235D01*
X99221329Y-98841970D01*
X99199151Y-98831480D01*
X99178107Y-98818867D01*
X99158402Y-98804253D01*
X99140223Y-98787777D01*
X99123747Y-98769598D01*
X99109133Y-98749893D01*
X99096520Y-98728849D01*
X99086030Y-98706671D01*
X99077765Y-98683571D01*
X99071804Y-98659773D01*
X99068204Y-98635504D01*
X99067000Y-98611000D01*
X99067000Y-96461000D01*
X99068204Y-96436496D01*
X99071804Y-96412227D01*
X99077765Y-96388429D01*
X99086030Y-96365329D01*
X99096520Y-96343151D01*
X99109133Y-96322107D01*
X99123747Y-96302402D01*
X99140223Y-96284223D01*
X99158402Y-96267747D01*
X99178107Y-96253133D01*
X99199151Y-96240520D01*
X99221329Y-96230030D01*
X99244429Y-96221765D01*
X99268227Y-96215804D01*
X99292496Y-96212204D01*
X99317000Y-96211000D01*
X100067000Y-96211000D01*
X100091504Y-96212204D01*
G37*
G36*
X102891504Y-96212204D02*
G01*
X102915773Y-96215804D01*
X102939571Y-96221765D01*
X102962671Y-96230030D01*
X102984849Y-96240520D01*
X103005893Y-96253133D01*
X103025598Y-96267747D01*
X103043777Y-96284223D01*
X103060253Y-96302402D01*
X103074867Y-96322107D01*
X103087480Y-96343151D01*
X103097970Y-96365329D01*
X103106235Y-96388429D01*
X103112196Y-96412227D01*
X103115796Y-96436496D01*
X103117000Y-96461000D01*
X103117000Y-98611000D01*
X103115796Y-98635504D01*
X103112196Y-98659773D01*
X103106235Y-98683571D01*
X103097970Y-98706671D01*
X103087480Y-98728849D01*
X103074867Y-98749893D01*
X103060253Y-98769598D01*
X103043777Y-98787777D01*
X103025598Y-98804253D01*
X103005893Y-98818867D01*
X102984849Y-98831480D01*
X102962671Y-98841970D01*
X102939571Y-98850235D01*
X102915773Y-98856196D01*
X102891504Y-98859796D01*
X102867000Y-98861000D01*
X102117000Y-98861000D01*
X102092496Y-98859796D01*
X102068227Y-98856196D01*
X102044429Y-98850235D01*
X102021329Y-98841970D01*
X101999151Y-98831480D01*
X101978107Y-98818867D01*
X101958402Y-98804253D01*
X101940223Y-98787777D01*
X101923747Y-98769598D01*
X101909133Y-98749893D01*
X101896520Y-98728849D01*
X101886030Y-98706671D01*
X101877765Y-98683571D01*
X101871804Y-98659773D01*
X101868204Y-98635504D01*
X101867000Y-98611000D01*
X101867000Y-96461000D01*
X101868204Y-96436496D01*
X101871804Y-96412227D01*
X101877765Y-96388429D01*
X101886030Y-96365329D01*
X101896520Y-96343151D01*
X101909133Y-96322107D01*
X101923747Y-96302402D01*
X101940223Y-96284223D01*
X101958402Y-96267747D01*
X101978107Y-96253133D01*
X101999151Y-96240520D01*
X102021329Y-96230030D01*
X102044429Y-96221765D01*
X102068227Y-96215804D01*
X102092496Y-96212204D01*
X102117000Y-96211000D01*
X102867000Y-96211000D01*
X102891504Y-96212204D01*
G37*
G36*
X107779504Y-105300204D02*
G01*
X107803773Y-105303804D01*
X107827571Y-105309765D01*
X107850671Y-105318030D01*
X107872849Y-105328520D01*
X107893893Y-105341133D01*
X107913598Y-105355747D01*
X107931777Y-105372223D01*
X107948253Y-105390402D01*
X107962867Y-105410107D01*
X107975480Y-105431151D01*
X107985970Y-105453329D01*
X107994235Y-105476429D01*
X108000196Y-105500227D01*
X108003796Y-105524496D01*
X108005000Y-105549000D01*
X108005000Y-106299000D01*
X108003796Y-106323504D01*
X108000196Y-106347773D01*
X107994235Y-106371571D01*
X107985970Y-106394671D01*
X107975480Y-106416849D01*
X107962867Y-106437893D01*
X107948253Y-106457598D01*
X107931777Y-106475777D01*
X107913598Y-106492253D01*
X107893893Y-106506867D01*
X107872849Y-106519480D01*
X107850671Y-106529970D01*
X107827571Y-106538235D01*
X107803773Y-106544196D01*
X107779504Y-106547796D01*
X107755000Y-106549000D01*
X105605000Y-106549000D01*
X105580496Y-106547796D01*
X105556227Y-106544196D01*
X105532429Y-106538235D01*
X105509329Y-106529970D01*
X105487151Y-106519480D01*
X105466107Y-106506867D01*
X105446402Y-106492253D01*
X105428223Y-106475777D01*
X105411747Y-106457598D01*
X105397133Y-106437893D01*
X105384520Y-106416849D01*
X105374030Y-106394671D01*
X105365765Y-106371571D01*
X105359804Y-106347773D01*
X105356204Y-106323504D01*
X105355000Y-106299000D01*
X105355000Y-105549000D01*
X105356204Y-105524496D01*
X105359804Y-105500227D01*
X105365765Y-105476429D01*
X105374030Y-105453329D01*
X105384520Y-105431151D01*
X105397133Y-105410107D01*
X105411747Y-105390402D01*
X105428223Y-105372223D01*
X105446402Y-105355747D01*
X105466107Y-105341133D01*
X105487151Y-105328520D01*
X105509329Y-105318030D01*
X105532429Y-105309765D01*
X105556227Y-105303804D01*
X105580496Y-105300204D01*
X105605000Y-105299000D01*
X107755000Y-105299000D01*
X107779504Y-105300204D01*
G37*
G36*
X107779504Y-102500204D02*
G01*
X107803773Y-102503804D01*
X107827571Y-102509765D01*
X107850671Y-102518030D01*
X107872849Y-102528520D01*
X107893893Y-102541133D01*
X107913598Y-102555747D01*
X107931777Y-102572223D01*
X107948253Y-102590402D01*
X107962867Y-102610107D01*
X107975480Y-102631151D01*
X107985970Y-102653329D01*
X107994235Y-102676429D01*
X108000196Y-102700227D01*
X108003796Y-102724496D01*
X108005000Y-102749000D01*
X108005000Y-103499000D01*
X108003796Y-103523504D01*
X108000196Y-103547773D01*
X107994235Y-103571571D01*
X107985970Y-103594671D01*
X107975480Y-103616849D01*
X107962867Y-103637893D01*
X107948253Y-103657598D01*
X107931777Y-103675777D01*
X107913598Y-103692253D01*
X107893893Y-103706867D01*
X107872849Y-103719480D01*
X107850671Y-103729970D01*
X107827571Y-103738235D01*
X107803773Y-103744196D01*
X107779504Y-103747796D01*
X107755000Y-103749000D01*
X105605000Y-103749000D01*
X105580496Y-103747796D01*
X105556227Y-103744196D01*
X105532429Y-103738235D01*
X105509329Y-103729970D01*
X105487151Y-103719480D01*
X105466107Y-103706867D01*
X105446402Y-103692253D01*
X105428223Y-103675777D01*
X105411747Y-103657598D01*
X105397133Y-103637893D01*
X105384520Y-103616849D01*
X105374030Y-103594671D01*
X105365765Y-103571571D01*
X105359804Y-103547773D01*
X105356204Y-103523504D01*
X105355000Y-103499000D01*
X105355000Y-102749000D01*
X105356204Y-102724496D01*
X105359804Y-102700227D01*
X105365765Y-102676429D01*
X105374030Y-102653329D01*
X105384520Y-102631151D01*
X105397133Y-102610107D01*
X105411747Y-102590402D01*
X105428223Y-102572223D01*
X105446402Y-102555747D01*
X105466107Y-102541133D01*
X105487151Y-102528520D01*
X105509329Y-102518030D01*
X105532429Y-102509765D01*
X105556227Y-102503804D01*
X105580496Y-102500204D01*
X105605000Y-102499000D01*
X107755000Y-102499000D01*
X107779504Y-102500204D01*
G37*
G36*
X112962958Y-103868710D02*
G01*
X112977276Y-103870834D01*
X112991317Y-103874351D01*
X113004946Y-103879228D01*
X113018031Y-103885417D01*
X113030447Y-103892858D01*
X113042073Y-103901481D01*
X113052798Y-103911202D01*
X113062519Y-103921927D01*
X113071142Y-103933553D01*
X113078583Y-103945969D01*
X113084772Y-103959054D01*
X113089649Y-103972683D01*
X113093166Y-103986724D01*
X113095290Y-104001042D01*
X113096000Y-104015500D01*
X113096000Y-104310500D01*
X113095290Y-104324958D01*
X113093166Y-104339276D01*
X113089649Y-104353317D01*
X113084772Y-104366946D01*
X113078583Y-104380031D01*
X113071142Y-104392447D01*
X113062519Y-104404073D01*
X113052798Y-104414798D01*
X113042073Y-104424519D01*
X113030447Y-104433142D01*
X113018031Y-104440583D01*
X113004946Y-104446772D01*
X112991317Y-104451649D01*
X112977276Y-104455166D01*
X112962958Y-104457290D01*
X112948500Y-104458000D01*
X112603500Y-104458000D01*
X112589042Y-104457290D01*
X112574724Y-104455166D01*
X112560683Y-104451649D01*
X112547054Y-104446772D01*
X112533969Y-104440583D01*
X112521553Y-104433142D01*
X112509927Y-104424519D01*
X112499202Y-104414798D01*
X112489481Y-104404073D01*
X112480858Y-104392447D01*
X112473417Y-104380031D01*
X112467228Y-104366946D01*
X112462351Y-104353317D01*
X112458834Y-104339276D01*
X112456710Y-104324958D01*
X112456000Y-104310500D01*
X112456000Y-104015500D01*
X112456710Y-104001042D01*
X112458834Y-103986724D01*
X112462351Y-103972683D01*
X112467228Y-103959054D01*
X112473417Y-103945969D01*
X112480858Y-103933553D01*
X112489481Y-103921927D01*
X112499202Y-103911202D01*
X112509927Y-103901481D01*
X112521553Y-103892858D01*
X112533969Y-103885417D01*
X112547054Y-103879228D01*
X112560683Y-103874351D01*
X112574724Y-103870834D01*
X112589042Y-103868710D01*
X112603500Y-103868000D01*
X112948500Y-103868000D01*
X112962958Y-103868710D01*
G37*
G36*
X112962958Y-104838710D02*
G01*
X112977276Y-104840834D01*
X112991317Y-104844351D01*
X113004946Y-104849228D01*
X113018031Y-104855417D01*
X113030447Y-104862858D01*
X113042073Y-104871481D01*
X113052798Y-104881202D01*
X113062519Y-104891927D01*
X113071142Y-104903553D01*
X113078583Y-104915969D01*
X113084772Y-104929054D01*
X113089649Y-104942683D01*
X113093166Y-104956724D01*
X113095290Y-104971042D01*
X113096000Y-104985500D01*
X113096000Y-105280500D01*
X113095290Y-105294958D01*
X113093166Y-105309276D01*
X113089649Y-105323317D01*
X113084772Y-105336946D01*
X113078583Y-105350031D01*
X113071142Y-105362447D01*
X113062519Y-105374073D01*
X113052798Y-105384798D01*
X113042073Y-105394519D01*
X113030447Y-105403142D01*
X113018031Y-105410583D01*
X113004946Y-105416772D01*
X112991317Y-105421649D01*
X112977276Y-105425166D01*
X112962958Y-105427290D01*
X112948500Y-105428000D01*
X112603500Y-105428000D01*
X112589042Y-105427290D01*
X112574724Y-105425166D01*
X112560683Y-105421649D01*
X112547054Y-105416772D01*
X112533969Y-105410583D01*
X112521553Y-105403142D01*
X112509927Y-105394519D01*
X112499202Y-105384798D01*
X112489481Y-105374073D01*
X112480858Y-105362447D01*
X112473417Y-105350031D01*
X112467228Y-105336946D01*
X112462351Y-105323317D01*
X112458834Y-105309276D01*
X112456710Y-105294958D01*
X112456000Y-105280500D01*
X112456000Y-104985500D01*
X112456710Y-104971042D01*
X112458834Y-104956724D01*
X112462351Y-104942683D01*
X112467228Y-104929054D01*
X112473417Y-104915969D01*
X112480858Y-104903553D01*
X112489481Y-104891927D01*
X112499202Y-104881202D01*
X112509927Y-104871481D01*
X112521553Y-104862858D01*
X112533969Y-104855417D01*
X112547054Y-104849228D01*
X112560683Y-104844351D01*
X112574724Y-104840834D01*
X112589042Y-104838710D01*
X112603500Y-104838000D01*
X112948500Y-104838000D01*
X112962958Y-104838710D01*
G37*
G36*
X111143504Y-113484204D02*
G01*
X111167773Y-113487804D01*
X111191571Y-113493765D01*
X111214671Y-113502030D01*
X111236849Y-113512520D01*
X111257893Y-113525133D01*
X111277598Y-113539747D01*
X111295777Y-113556223D01*
X111312253Y-113574402D01*
X111326867Y-113594107D01*
X111339480Y-113615151D01*
X111349970Y-113637329D01*
X111358235Y-113660429D01*
X111364196Y-113684227D01*
X111367796Y-113708496D01*
X111369000Y-113733000D01*
X111369000Y-115883000D01*
X111367796Y-115907504D01*
X111364196Y-115931773D01*
X111358235Y-115955571D01*
X111349970Y-115978671D01*
X111339480Y-116000849D01*
X111326867Y-116021893D01*
X111312253Y-116041598D01*
X111295777Y-116059777D01*
X111277598Y-116076253D01*
X111257893Y-116090867D01*
X111236849Y-116103480D01*
X111214671Y-116113970D01*
X111191571Y-116122235D01*
X111167773Y-116128196D01*
X111143504Y-116131796D01*
X111119000Y-116133000D01*
X110369000Y-116133000D01*
X110344496Y-116131796D01*
X110320227Y-116128196D01*
X110296429Y-116122235D01*
X110273329Y-116113970D01*
X110251151Y-116103480D01*
X110230107Y-116090867D01*
X110210402Y-116076253D01*
X110192223Y-116059777D01*
X110175747Y-116041598D01*
X110161133Y-116021893D01*
X110148520Y-116000849D01*
X110138030Y-115978671D01*
X110129765Y-115955571D01*
X110123804Y-115931773D01*
X110120204Y-115907504D01*
X110119000Y-115883000D01*
X110119000Y-113733000D01*
X110120204Y-113708496D01*
X110123804Y-113684227D01*
X110129765Y-113660429D01*
X110138030Y-113637329D01*
X110148520Y-113615151D01*
X110161133Y-113594107D01*
X110175747Y-113574402D01*
X110192223Y-113556223D01*
X110210402Y-113539747D01*
X110230107Y-113525133D01*
X110251151Y-113512520D01*
X110273329Y-113502030D01*
X110296429Y-113493765D01*
X110320227Y-113487804D01*
X110344496Y-113484204D01*
X110369000Y-113483000D01*
X111119000Y-113483000D01*
X111143504Y-113484204D01*
G37*
G36*
X108343504Y-113484204D02*
G01*
X108367773Y-113487804D01*
X108391571Y-113493765D01*
X108414671Y-113502030D01*
X108436849Y-113512520D01*
X108457893Y-113525133D01*
X108477598Y-113539747D01*
X108495777Y-113556223D01*
X108512253Y-113574402D01*
X108526867Y-113594107D01*
X108539480Y-113615151D01*
X108549970Y-113637329D01*
X108558235Y-113660429D01*
X108564196Y-113684227D01*
X108567796Y-113708496D01*
X108569000Y-113733000D01*
X108569000Y-115883000D01*
X108567796Y-115907504D01*
X108564196Y-115931773D01*
X108558235Y-115955571D01*
X108549970Y-115978671D01*
X108539480Y-116000849D01*
X108526867Y-116021893D01*
X108512253Y-116041598D01*
X108495777Y-116059777D01*
X108477598Y-116076253D01*
X108457893Y-116090867D01*
X108436849Y-116103480D01*
X108414671Y-116113970D01*
X108391571Y-116122235D01*
X108367773Y-116128196D01*
X108343504Y-116131796D01*
X108319000Y-116133000D01*
X107569000Y-116133000D01*
X107544496Y-116131796D01*
X107520227Y-116128196D01*
X107496429Y-116122235D01*
X107473329Y-116113970D01*
X107451151Y-116103480D01*
X107430107Y-116090867D01*
X107410402Y-116076253D01*
X107392223Y-116059777D01*
X107375747Y-116041598D01*
X107361133Y-116021893D01*
X107348520Y-116000849D01*
X107338030Y-115978671D01*
X107329765Y-115955571D01*
X107323804Y-115931773D01*
X107320204Y-115907504D01*
X107319000Y-115883000D01*
X107319000Y-113733000D01*
X107320204Y-113708496D01*
X107323804Y-113684227D01*
X107329765Y-113660429D01*
X107338030Y-113637329D01*
X107348520Y-113615151D01*
X107361133Y-113594107D01*
X107375747Y-113574402D01*
X107392223Y-113556223D01*
X107410402Y-113539747D01*
X107430107Y-113525133D01*
X107451151Y-113512520D01*
X107473329Y-113502030D01*
X107496429Y-113493765D01*
X107520227Y-113487804D01*
X107544496Y-113484204D01*
X107569000Y-113483000D01*
X108319000Y-113483000D01*
X108343504Y-113484204D01*
G37*
M02*
