G04 #@! TF.GenerationSoftware,KiCad,Pcbnew,(5.1.5)-3*
G04 #@! TF.CreationDate,2026-05-20T17:09:14+02:00*
G04 #@! TF.ProjectId,26 MAR,3236204d-4152-42e6-9b69-6361645f7063,rev?*
G04 #@! TF.SameCoordinates,Original*
G04 #@! TF.FileFunction,Legend,Bot*
G04 #@! TF.FilePolarity,Positive*
%FSLAX46Y46*%
G04 Gerber Fmt 4.6, Leading zero omitted, Abs format (unit mm)*
G04 Created by KiCad (PCBNEW (5.1.5)-3) date 2026-05-20 17:09:14*
%MOMM*%
%LPD*%
G04 APERTURE LIST*
%ADD10C,0.120000*%
%ADD11C,0.150000*%
G04 APERTURE END LIST*
D10*
X94144000Y-104618064D02*
X94144000Y-103413936D01*
X96864000Y-104618064D02*
X96864000Y-103413936D01*
X106055279Y-118874000D02*
X105729721Y-118874000D01*
X106055279Y-117854000D02*
X105729721Y-117854000D01*
X94458064Y-111596000D02*
X93253936Y-111596000D01*
X94458064Y-108876000D02*
X93253936Y-108876000D01*
X101694064Y-98896000D02*
X100489936Y-98896000D01*
X101694064Y-96176000D02*
X100489936Y-96176000D01*
X108040000Y-103921936D02*
X108040000Y-105126064D01*
X105320000Y-103921936D02*
X105320000Y-105126064D01*
X108741936Y-113448000D02*
X109946064Y-113448000D01*
X108741936Y-116168000D02*
X109946064Y-116168000D01*
D11*
X93841866Y-101595180D02*
X94175200Y-101118990D01*
X94413295Y-101595180D02*
X94413295Y-100595180D01*
X94032342Y-100595180D01*
X93937104Y-100642800D01*
X93889485Y-100690419D01*
X93841866Y-100785657D01*
X93841866Y-100928514D01*
X93889485Y-101023752D01*
X93937104Y-101071371D01*
X94032342Y-101118990D01*
X94413295Y-101118990D01*
X92937104Y-100595180D02*
X93413295Y-100595180D01*
X93460914Y-101071371D01*
X93413295Y-101023752D01*
X93318057Y-100976133D01*
X93079961Y-100976133D01*
X92984723Y-101023752D01*
X92937104Y-101071371D01*
X92889485Y-101166609D01*
X92889485Y-101404704D01*
X92937104Y-101499942D01*
X92984723Y-101547561D01*
X93079961Y-101595180D01*
X93318057Y-101595180D01*
X93413295Y-101547561D01*
X93460914Y-101499942D01*
X106535357Y-117386380D02*
X106868690Y-116910190D01*
X107106785Y-117386380D02*
X107106785Y-116386380D01*
X106725833Y-116386380D01*
X106630595Y-116434000D01*
X106582976Y-116481619D01*
X106535357Y-116576857D01*
X106535357Y-116719714D01*
X106582976Y-116814952D01*
X106630595Y-116862571D01*
X106725833Y-116910190D01*
X107106785Y-116910190D01*
X105582976Y-117386380D02*
X106154404Y-117386380D01*
X105868690Y-117386380D02*
X105868690Y-116386380D01*
X105963928Y-116529238D01*
X106059166Y-116624476D01*
X106154404Y-116672095D01*
X104630595Y-117386380D02*
X105202023Y-117386380D01*
X104916309Y-117386380D02*
X104916309Y-116386380D01*
X105011547Y-116529238D01*
X105106785Y-116624476D01*
X105202023Y-116672095D01*
X110393857Y-110334380D02*
X110727190Y-109858190D01*
X110965285Y-110334380D02*
X110965285Y-109334380D01*
X110584333Y-109334380D01*
X110489095Y-109382000D01*
X110441476Y-109429619D01*
X110393857Y-109524857D01*
X110393857Y-109667714D01*
X110441476Y-109762952D01*
X110489095Y-109810571D01*
X110584333Y-109858190D01*
X110965285Y-109858190D01*
X109441476Y-110334380D02*
X110012904Y-110334380D01*
X109727190Y-110334380D02*
X109727190Y-109334380D01*
X109822428Y-109477238D01*
X109917666Y-109572476D01*
X110012904Y-109620095D01*
X108822428Y-109334380D02*
X108727190Y-109334380D01*
X108631952Y-109382000D01*
X108584333Y-109429619D01*
X108536714Y-109524857D01*
X108489095Y-109715333D01*
X108489095Y-109953428D01*
X108536714Y-110143904D01*
X108584333Y-110239142D01*
X108631952Y-110286761D01*
X108727190Y-110334380D01*
X108822428Y-110334380D01*
X108917666Y-110286761D01*
X108965285Y-110239142D01*
X109012904Y-110143904D01*
X109060523Y-109953428D01*
X109060523Y-109715333D01*
X109012904Y-109524857D01*
X108965285Y-109429619D01*
X108917666Y-109382000D01*
X108822428Y-109334380D01*
X98210666Y-111350380D02*
X98544000Y-110874190D01*
X98782095Y-111350380D02*
X98782095Y-110350380D01*
X98401142Y-110350380D01*
X98305904Y-110398000D01*
X98258285Y-110445619D01*
X98210666Y-110540857D01*
X98210666Y-110683714D01*
X98258285Y-110778952D01*
X98305904Y-110826571D01*
X98401142Y-110874190D01*
X98782095Y-110874190D01*
X97734476Y-111350380D02*
X97544000Y-111350380D01*
X97448761Y-111302761D01*
X97401142Y-111255142D01*
X97305904Y-111112285D01*
X97258285Y-110921809D01*
X97258285Y-110540857D01*
X97305904Y-110445619D01*
X97353523Y-110398000D01*
X97448761Y-110350380D01*
X97639238Y-110350380D01*
X97734476Y-110398000D01*
X97782095Y-110445619D01*
X97829714Y-110540857D01*
X97829714Y-110778952D01*
X97782095Y-110874190D01*
X97734476Y-110921809D01*
X97639238Y-110969428D01*
X97448761Y-110969428D01*
X97353523Y-110921809D01*
X97305904Y-110874190D01*
X97258285Y-110778952D01*
X104329666Y-93363980D02*
X104663000Y-92887790D01*
X104901095Y-93363980D02*
X104901095Y-92363980D01*
X104520142Y-92363980D01*
X104424904Y-92411600D01*
X104377285Y-92459219D01*
X104329666Y-92554457D01*
X104329666Y-92697314D01*
X104377285Y-92792552D01*
X104424904Y-92840171D01*
X104520142Y-92887790D01*
X104901095Y-92887790D01*
X103758238Y-92792552D02*
X103853476Y-92744933D01*
X103901095Y-92697314D01*
X103948714Y-92602076D01*
X103948714Y-92554457D01*
X103901095Y-92459219D01*
X103853476Y-92411600D01*
X103758238Y-92363980D01*
X103567761Y-92363980D01*
X103472523Y-92411600D01*
X103424904Y-92459219D01*
X103377285Y-92554457D01*
X103377285Y-92602076D01*
X103424904Y-92697314D01*
X103472523Y-92744933D01*
X103567761Y-92792552D01*
X103758238Y-92792552D01*
X103853476Y-92840171D01*
X103901095Y-92887790D01*
X103948714Y-92983028D01*
X103948714Y-93173504D01*
X103901095Y-93268742D01*
X103853476Y-93316361D01*
X103758238Y-93363980D01*
X103567761Y-93363980D01*
X103472523Y-93316361D01*
X103424904Y-93268742D01*
X103377285Y-93173504D01*
X103377285Y-92983028D01*
X103424904Y-92887790D01*
X103472523Y-92840171D01*
X103567761Y-92792552D01*
X104359866Y-108375380D02*
X104693200Y-107899190D01*
X104931295Y-108375380D02*
X104931295Y-107375380D01*
X104550342Y-107375380D01*
X104455104Y-107423000D01*
X104407485Y-107470619D01*
X104359866Y-107565857D01*
X104359866Y-107708714D01*
X104407485Y-107803952D01*
X104455104Y-107851571D01*
X104550342Y-107899190D01*
X104931295Y-107899190D01*
X104026533Y-107375380D02*
X103359866Y-107375380D01*
X103788438Y-108375380D01*
X94022666Y-108408380D02*
X94356000Y-107932190D01*
X94594095Y-108408380D02*
X94594095Y-107408380D01*
X94213142Y-107408380D01*
X94117904Y-107456000D01*
X94070285Y-107503619D01*
X94022666Y-107598857D01*
X94022666Y-107741714D01*
X94070285Y-107836952D01*
X94117904Y-107884571D01*
X94213142Y-107932190D01*
X94594095Y-107932190D01*
X93165523Y-107408380D02*
X93356000Y-107408380D01*
X93451238Y-107456000D01*
X93498857Y-107503619D01*
X93594095Y-107646476D01*
X93641714Y-107836952D01*
X93641714Y-108217904D01*
X93594095Y-108313142D01*
X93546476Y-108360761D01*
X93451238Y-108408380D01*
X93260761Y-108408380D01*
X93165523Y-108360761D01*
X93117904Y-108313142D01*
X93070285Y-108217904D01*
X93070285Y-107979809D01*
X93117904Y-107884571D01*
X93165523Y-107836952D01*
X93260761Y-107789333D01*
X93451238Y-107789333D01*
X93546476Y-107836952D01*
X93594095Y-107884571D01*
X93641714Y-107979809D01*
X101258666Y-95708380D02*
X101592000Y-95232190D01*
X101830095Y-95708380D02*
X101830095Y-94708380D01*
X101449142Y-94708380D01*
X101353904Y-94756000D01*
X101306285Y-94803619D01*
X101258666Y-94898857D01*
X101258666Y-95041714D01*
X101306285Y-95136952D01*
X101353904Y-95184571D01*
X101449142Y-95232190D01*
X101830095Y-95232190D01*
X100401523Y-95041714D02*
X100401523Y-95708380D01*
X100639619Y-94660761D02*
X100877714Y-95375047D01*
X100258666Y-95375047D01*
X107100666Y-102077780D02*
X107434000Y-101601590D01*
X107672095Y-102077780D02*
X107672095Y-101077780D01*
X107291142Y-101077780D01*
X107195904Y-101125400D01*
X107148285Y-101173019D01*
X107100666Y-101268257D01*
X107100666Y-101411114D01*
X107148285Y-101506352D01*
X107195904Y-101553971D01*
X107291142Y-101601590D01*
X107672095Y-101601590D01*
X106767333Y-101077780D02*
X106148285Y-101077780D01*
X106481619Y-101458733D01*
X106338761Y-101458733D01*
X106243523Y-101506352D01*
X106195904Y-101553971D01*
X106148285Y-101649209D01*
X106148285Y-101887304D01*
X106195904Y-101982542D01*
X106243523Y-102030161D01*
X106338761Y-102077780D01*
X106624476Y-102077780D01*
X106719714Y-102030161D01*
X106767333Y-101982542D01*
X114441266Y-105100380D02*
X114774600Y-104624190D01*
X115012695Y-105100380D02*
X115012695Y-104100380D01*
X114631742Y-104100380D01*
X114536504Y-104148000D01*
X114488885Y-104195619D01*
X114441266Y-104290857D01*
X114441266Y-104433714D01*
X114488885Y-104528952D01*
X114536504Y-104576571D01*
X114631742Y-104624190D01*
X115012695Y-104624190D01*
X114060314Y-104195619D02*
X114012695Y-104148000D01*
X113917457Y-104100380D01*
X113679361Y-104100380D01*
X113584123Y-104148000D01*
X113536504Y-104195619D01*
X113488885Y-104290857D01*
X113488885Y-104386095D01*
X113536504Y-104528952D01*
X114107933Y-105100380D01*
X113488885Y-105100380D01*
X109510666Y-117540380D02*
X109844000Y-117064190D01*
X110082095Y-117540380D02*
X110082095Y-116540380D01*
X109701142Y-116540380D01*
X109605904Y-116588000D01*
X109558285Y-116635619D01*
X109510666Y-116730857D01*
X109510666Y-116873714D01*
X109558285Y-116968952D01*
X109605904Y-117016571D01*
X109701142Y-117064190D01*
X110082095Y-117064190D01*
X108558285Y-117540380D02*
X109129714Y-117540380D01*
X108844000Y-117540380D02*
X108844000Y-116540380D01*
X108939238Y-116683238D01*
X109034476Y-116778476D01*
X109129714Y-116826095D01*
M02*
