G04 #@! TF.GenerationSoftware,KiCad,Pcbnew,(5.1.5)-3*
G04 #@! TF.CreationDate,2026-05-20T17:09:14+02:00*
G04 #@! TF.ProjectId,26 MAR,3236204d-4152-42e6-9b69-6361645f7063,rev?*
G04 #@! TF.SameCoordinates,Original*
G04 #@! TF.FileFunction,Copper,L1,Top*
G04 #@! TF.FilePolarity,Positive*
%FSLAX46Y46*%
G04 Gerber Fmt 4.6, Leading zero omitted, Abs format (unit mm)*
G04 Created by KiCad (PCBNEW (5.1.5)-3) date 2026-05-20 17:09:14*
%MOMM*%
%LPD*%
G04 APERTURE LIST*
%ADD10R,1.120000X2.160000*%
%ADD11C,0.100000*%
%ADD12C,0.800000*%
%ADD13C,0.250000*%
%ADD14C,0.254000*%
G04 APERTURE END LIST*
D10*
X118364000Y-97536000D03*
X118364000Y-104266000D03*
G04 #@! TA.AperFunction,SMDPad,CuDef*
D11*
G36*
X101064142Y-116353674D02*
G01*
X101087803Y-116357184D01*
X101111007Y-116362996D01*
X101133529Y-116371054D01*
X101155153Y-116381282D01*
X101175670Y-116393579D01*
X101194883Y-116407829D01*
X101212607Y-116423893D01*
X101228671Y-116441617D01*
X101242921Y-116460830D01*
X101255218Y-116481347D01*
X101265446Y-116502971D01*
X101273504Y-116525493D01*
X101279316Y-116548697D01*
X101282826Y-116572358D01*
X101284000Y-116596250D01*
X101284000Y-117083750D01*
X101282826Y-117107642D01*
X101279316Y-117131303D01*
X101273504Y-117154507D01*
X101265446Y-117177029D01*
X101255218Y-117198653D01*
X101242921Y-117219170D01*
X101228671Y-117238383D01*
X101212607Y-117256107D01*
X101194883Y-117272171D01*
X101175670Y-117286421D01*
X101155153Y-117298718D01*
X101133529Y-117308946D01*
X101111007Y-117317004D01*
X101087803Y-117322816D01*
X101064142Y-117326326D01*
X101040250Y-117327500D01*
X100127750Y-117327500D01*
X100103858Y-117326326D01*
X100080197Y-117322816D01*
X100056993Y-117317004D01*
X100034471Y-117308946D01*
X100012847Y-117298718D01*
X99992330Y-117286421D01*
X99973117Y-117272171D01*
X99955393Y-117256107D01*
X99939329Y-117238383D01*
X99925079Y-117219170D01*
X99912782Y-117198653D01*
X99902554Y-117177029D01*
X99894496Y-117154507D01*
X99888684Y-117131303D01*
X99885174Y-117107642D01*
X99884000Y-117083750D01*
X99884000Y-116596250D01*
X99885174Y-116572358D01*
X99888684Y-116548697D01*
X99894496Y-116525493D01*
X99902554Y-116502971D01*
X99912782Y-116481347D01*
X99925079Y-116460830D01*
X99939329Y-116441617D01*
X99955393Y-116423893D01*
X99973117Y-116407829D01*
X99992330Y-116393579D01*
X100012847Y-116381282D01*
X100034471Y-116371054D01*
X100056993Y-116362996D01*
X100080197Y-116357184D01*
X100103858Y-116353674D01*
X100127750Y-116352500D01*
X101040250Y-116352500D01*
X101064142Y-116353674D01*
G37*
G04 #@! TD.AperFunction*
G04 #@! TA.AperFunction,SMDPad,CuDef*
G36*
X101064142Y-118228674D02*
G01*
X101087803Y-118232184D01*
X101111007Y-118237996D01*
X101133529Y-118246054D01*
X101155153Y-118256282D01*
X101175670Y-118268579D01*
X101194883Y-118282829D01*
X101212607Y-118298893D01*
X101228671Y-118316617D01*
X101242921Y-118335830D01*
X101255218Y-118356347D01*
X101265446Y-118377971D01*
X101273504Y-118400493D01*
X101279316Y-118423697D01*
X101282826Y-118447358D01*
X101284000Y-118471250D01*
X101284000Y-118958750D01*
X101282826Y-118982642D01*
X101279316Y-119006303D01*
X101273504Y-119029507D01*
X101265446Y-119052029D01*
X101255218Y-119073653D01*
X101242921Y-119094170D01*
X101228671Y-119113383D01*
X101212607Y-119131107D01*
X101194883Y-119147171D01*
X101175670Y-119161421D01*
X101155153Y-119173718D01*
X101133529Y-119183946D01*
X101111007Y-119192004D01*
X101087803Y-119197816D01*
X101064142Y-119201326D01*
X101040250Y-119202500D01*
X100127750Y-119202500D01*
X100103858Y-119201326D01*
X100080197Y-119197816D01*
X100056993Y-119192004D01*
X100034471Y-119183946D01*
X100012847Y-119173718D01*
X99992330Y-119161421D01*
X99973117Y-119147171D01*
X99955393Y-119131107D01*
X99939329Y-119113383D01*
X99925079Y-119094170D01*
X99912782Y-119073653D01*
X99902554Y-119052029D01*
X99894496Y-119029507D01*
X99888684Y-119006303D01*
X99885174Y-118982642D01*
X99884000Y-118958750D01*
X99884000Y-118471250D01*
X99885174Y-118447358D01*
X99888684Y-118423697D01*
X99894496Y-118400493D01*
X99902554Y-118377971D01*
X99912782Y-118356347D01*
X99925079Y-118335830D01*
X99939329Y-118316617D01*
X99955393Y-118298893D01*
X99973117Y-118282829D01*
X99992330Y-118268579D01*
X100012847Y-118256282D01*
X100034471Y-118246054D01*
X100056993Y-118237996D01*
X100080197Y-118232184D01*
X100103858Y-118228674D01*
X100127750Y-118227500D01*
X101040250Y-118227500D01*
X101064142Y-118228674D01*
G37*
G04 #@! TD.AperFunction*
G04 #@! TA.AperFunction,SMDPad,CuDef*
G36*
X102883642Y-113601174D02*
G01*
X102907303Y-113604684D01*
X102930507Y-113610496D01*
X102953029Y-113618554D01*
X102974653Y-113628782D01*
X102995170Y-113641079D01*
X103014383Y-113655329D01*
X103032107Y-113671393D01*
X103048171Y-113689117D01*
X103062421Y-113708330D01*
X103074718Y-113728847D01*
X103084946Y-113750471D01*
X103093004Y-113772993D01*
X103098816Y-113796197D01*
X103102326Y-113819858D01*
X103103500Y-113843750D01*
X103103500Y-114756250D01*
X103102326Y-114780142D01*
X103098816Y-114803803D01*
X103093004Y-114827007D01*
X103084946Y-114849529D01*
X103074718Y-114871153D01*
X103062421Y-114891670D01*
X103048171Y-114910883D01*
X103032107Y-114928607D01*
X103014383Y-114944671D01*
X102995170Y-114958921D01*
X102974653Y-114971218D01*
X102953029Y-114981446D01*
X102930507Y-114989504D01*
X102907303Y-114995316D01*
X102883642Y-114998826D01*
X102859750Y-115000000D01*
X102372250Y-115000000D01*
X102348358Y-114998826D01*
X102324697Y-114995316D01*
X102301493Y-114989504D01*
X102278971Y-114981446D01*
X102257347Y-114971218D01*
X102236830Y-114958921D01*
X102217617Y-114944671D01*
X102199893Y-114928607D01*
X102183829Y-114910883D01*
X102169579Y-114891670D01*
X102157282Y-114871153D01*
X102147054Y-114849529D01*
X102138996Y-114827007D01*
X102133184Y-114803803D01*
X102129674Y-114780142D01*
X102128500Y-114756250D01*
X102128500Y-113843750D01*
X102129674Y-113819858D01*
X102133184Y-113796197D01*
X102138996Y-113772993D01*
X102147054Y-113750471D01*
X102157282Y-113728847D01*
X102169579Y-113708330D01*
X102183829Y-113689117D01*
X102199893Y-113671393D01*
X102217617Y-113655329D01*
X102236830Y-113641079D01*
X102257347Y-113628782D01*
X102278971Y-113618554D01*
X102301493Y-113610496D01*
X102324697Y-113604684D01*
X102348358Y-113601174D01*
X102372250Y-113600000D01*
X102859750Y-113600000D01*
X102883642Y-113601174D01*
G37*
G04 #@! TD.AperFunction*
G04 #@! TA.AperFunction,SMDPad,CuDef*
G36*
X104758642Y-113601174D02*
G01*
X104782303Y-113604684D01*
X104805507Y-113610496D01*
X104828029Y-113618554D01*
X104849653Y-113628782D01*
X104870170Y-113641079D01*
X104889383Y-113655329D01*
X104907107Y-113671393D01*
X104923171Y-113689117D01*
X104937421Y-113708330D01*
X104949718Y-113728847D01*
X104959946Y-113750471D01*
X104968004Y-113772993D01*
X104973816Y-113796197D01*
X104977326Y-113819858D01*
X104978500Y-113843750D01*
X104978500Y-114756250D01*
X104977326Y-114780142D01*
X104973816Y-114803803D01*
X104968004Y-114827007D01*
X104959946Y-114849529D01*
X104949718Y-114871153D01*
X104937421Y-114891670D01*
X104923171Y-114910883D01*
X104907107Y-114928607D01*
X104889383Y-114944671D01*
X104870170Y-114958921D01*
X104849653Y-114971218D01*
X104828029Y-114981446D01*
X104805507Y-114989504D01*
X104782303Y-114995316D01*
X104758642Y-114998826D01*
X104734750Y-115000000D01*
X104247250Y-115000000D01*
X104223358Y-114998826D01*
X104199697Y-114995316D01*
X104176493Y-114989504D01*
X104153971Y-114981446D01*
X104132347Y-114971218D01*
X104111830Y-114958921D01*
X104092617Y-114944671D01*
X104074893Y-114928607D01*
X104058829Y-114910883D01*
X104044579Y-114891670D01*
X104032282Y-114871153D01*
X104022054Y-114849529D01*
X104013996Y-114827007D01*
X104008184Y-114803803D01*
X104004674Y-114780142D01*
X104003500Y-114756250D01*
X104003500Y-113843750D01*
X104004674Y-113819858D01*
X104008184Y-113796197D01*
X104013996Y-113772993D01*
X104022054Y-113750471D01*
X104032282Y-113728847D01*
X104044579Y-113708330D01*
X104058829Y-113689117D01*
X104074893Y-113671393D01*
X104092617Y-113655329D01*
X104111830Y-113641079D01*
X104132347Y-113628782D01*
X104153971Y-113618554D01*
X104176493Y-113610496D01*
X104199697Y-113604684D01*
X104223358Y-113601174D01*
X104247250Y-113600000D01*
X104734750Y-113600000D01*
X104758642Y-113601174D01*
G37*
G04 #@! TD.AperFunction*
G04 #@! TA.AperFunction,SMDPad,CuDef*
G36*
X95263642Y-96837174D02*
G01*
X95287303Y-96840684D01*
X95310507Y-96846496D01*
X95333029Y-96854554D01*
X95354653Y-96864782D01*
X95375170Y-96877079D01*
X95394383Y-96891329D01*
X95412107Y-96907393D01*
X95428171Y-96925117D01*
X95442421Y-96944330D01*
X95454718Y-96964847D01*
X95464946Y-96986471D01*
X95473004Y-97008993D01*
X95478816Y-97032197D01*
X95482326Y-97055858D01*
X95483500Y-97079750D01*
X95483500Y-97992250D01*
X95482326Y-98016142D01*
X95478816Y-98039803D01*
X95473004Y-98063007D01*
X95464946Y-98085529D01*
X95454718Y-98107153D01*
X95442421Y-98127670D01*
X95428171Y-98146883D01*
X95412107Y-98164607D01*
X95394383Y-98180671D01*
X95375170Y-98194921D01*
X95354653Y-98207218D01*
X95333029Y-98217446D01*
X95310507Y-98225504D01*
X95287303Y-98231316D01*
X95263642Y-98234826D01*
X95239750Y-98236000D01*
X94752250Y-98236000D01*
X94728358Y-98234826D01*
X94704697Y-98231316D01*
X94681493Y-98225504D01*
X94658971Y-98217446D01*
X94637347Y-98207218D01*
X94616830Y-98194921D01*
X94597617Y-98180671D01*
X94579893Y-98164607D01*
X94563829Y-98146883D01*
X94549579Y-98127670D01*
X94537282Y-98107153D01*
X94527054Y-98085529D01*
X94518996Y-98063007D01*
X94513184Y-98039803D01*
X94509674Y-98016142D01*
X94508500Y-97992250D01*
X94508500Y-97079750D01*
X94509674Y-97055858D01*
X94513184Y-97032197D01*
X94518996Y-97008993D01*
X94527054Y-96986471D01*
X94537282Y-96964847D01*
X94549579Y-96944330D01*
X94563829Y-96925117D01*
X94579893Y-96907393D01*
X94597617Y-96891329D01*
X94616830Y-96877079D01*
X94637347Y-96864782D01*
X94658971Y-96854554D01*
X94681493Y-96846496D01*
X94704697Y-96840684D01*
X94728358Y-96837174D01*
X94752250Y-96836000D01*
X95239750Y-96836000D01*
X95263642Y-96837174D01*
G37*
G04 #@! TD.AperFunction*
G04 #@! TA.AperFunction,SMDPad,CuDef*
G36*
X93388642Y-96837174D02*
G01*
X93412303Y-96840684D01*
X93435507Y-96846496D01*
X93458029Y-96854554D01*
X93479653Y-96864782D01*
X93500170Y-96877079D01*
X93519383Y-96891329D01*
X93537107Y-96907393D01*
X93553171Y-96925117D01*
X93567421Y-96944330D01*
X93579718Y-96964847D01*
X93589946Y-96986471D01*
X93598004Y-97008993D01*
X93603816Y-97032197D01*
X93607326Y-97055858D01*
X93608500Y-97079750D01*
X93608500Y-97992250D01*
X93607326Y-98016142D01*
X93603816Y-98039803D01*
X93598004Y-98063007D01*
X93589946Y-98085529D01*
X93579718Y-98107153D01*
X93567421Y-98127670D01*
X93553171Y-98146883D01*
X93537107Y-98164607D01*
X93519383Y-98180671D01*
X93500170Y-98194921D01*
X93479653Y-98207218D01*
X93458029Y-98217446D01*
X93435507Y-98225504D01*
X93412303Y-98231316D01*
X93388642Y-98234826D01*
X93364750Y-98236000D01*
X92877250Y-98236000D01*
X92853358Y-98234826D01*
X92829697Y-98231316D01*
X92806493Y-98225504D01*
X92783971Y-98217446D01*
X92762347Y-98207218D01*
X92741830Y-98194921D01*
X92722617Y-98180671D01*
X92704893Y-98164607D01*
X92688829Y-98146883D01*
X92674579Y-98127670D01*
X92662282Y-98107153D01*
X92652054Y-98085529D01*
X92643996Y-98063007D01*
X92638184Y-98039803D01*
X92634674Y-98016142D01*
X92633500Y-97992250D01*
X92633500Y-97079750D01*
X92634674Y-97055858D01*
X92638184Y-97032197D01*
X92643996Y-97008993D01*
X92652054Y-96986471D01*
X92662282Y-96964847D01*
X92674579Y-96944330D01*
X92688829Y-96925117D01*
X92704893Y-96907393D01*
X92722617Y-96891329D01*
X92741830Y-96877079D01*
X92762347Y-96864782D01*
X92783971Y-96854554D01*
X92806493Y-96846496D01*
X92829697Y-96840684D01*
X92853358Y-96837174D01*
X92877250Y-96836000D01*
X93364750Y-96836000D01*
X93388642Y-96837174D01*
G37*
G04 #@! TD.AperFunction*
G04 #@! TA.AperFunction,SMDPad,CuDef*
G36*
X117461091Y-93836253D02*
G01*
X117482326Y-93839403D01*
X117503150Y-93844619D01*
X117523362Y-93851851D01*
X117542768Y-93861030D01*
X117561181Y-93872066D01*
X117578424Y-93884854D01*
X117594330Y-93899270D01*
X117608746Y-93915176D01*
X117621534Y-93932419D01*
X117632570Y-93950832D01*
X117641749Y-93970238D01*
X117648981Y-93990450D01*
X117654197Y-94011274D01*
X117657347Y-94032509D01*
X117658400Y-94053950D01*
X117658400Y-94566450D01*
X117657347Y-94587891D01*
X117654197Y-94609126D01*
X117648981Y-94629950D01*
X117641749Y-94650162D01*
X117632570Y-94669568D01*
X117621534Y-94687981D01*
X117608746Y-94705224D01*
X117594330Y-94721130D01*
X117578424Y-94735546D01*
X117561181Y-94748334D01*
X117542768Y-94759370D01*
X117523362Y-94768549D01*
X117503150Y-94775781D01*
X117482326Y-94780997D01*
X117461091Y-94784147D01*
X117439650Y-94785200D01*
X117002150Y-94785200D01*
X116980709Y-94784147D01*
X116959474Y-94780997D01*
X116938650Y-94775781D01*
X116918438Y-94768549D01*
X116899032Y-94759370D01*
X116880619Y-94748334D01*
X116863376Y-94735546D01*
X116847470Y-94721130D01*
X116833054Y-94705224D01*
X116820266Y-94687981D01*
X116809230Y-94669568D01*
X116800051Y-94650162D01*
X116792819Y-94629950D01*
X116787603Y-94609126D01*
X116784453Y-94587891D01*
X116783400Y-94566450D01*
X116783400Y-94053950D01*
X116784453Y-94032509D01*
X116787603Y-94011274D01*
X116792819Y-93990450D01*
X116800051Y-93970238D01*
X116809230Y-93950832D01*
X116820266Y-93932419D01*
X116833054Y-93915176D01*
X116847470Y-93899270D01*
X116863376Y-93884854D01*
X116880619Y-93872066D01*
X116899032Y-93861030D01*
X116918438Y-93851851D01*
X116938650Y-93844619D01*
X116959474Y-93839403D01*
X116980709Y-93836253D01*
X117002150Y-93835200D01*
X117439650Y-93835200D01*
X117461091Y-93836253D01*
G37*
G04 #@! TD.AperFunction*
G04 #@! TA.AperFunction,SMDPad,CuDef*
G36*
X119036091Y-93836253D02*
G01*
X119057326Y-93839403D01*
X119078150Y-93844619D01*
X119098362Y-93851851D01*
X119117768Y-93861030D01*
X119136181Y-93872066D01*
X119153424Y-93884854D01*
X119169330Y-93899270D01*
X119183746Y-93915176D01*
X119196534Y-93932419D01*
X119207570Y-93950832D01*
X119216749Y-93970238D01*
X119223981Y-93990450D01*
X119229197Y-94011274D01*
X119232347Y-94032509D01*
X119233400Y-94053950D01*
X119233400Y-94566450D01*
X119232347Y-94587891D01*
X119229197Y-94609126D01*
X119223981Y-94629950D01*
X119216749Y-94650162D01*
X119207570Y-94669568D01*
X119196534Y-94687981D01*
X119183746Y-94705224D01*
X119169330Y-94721130D01*
X119153424Y-94735546D01*
X119136181Y-94748334D01*
X119117768Y-94759370D01*
X119098362Y-94768549D01*
X119078150Y-94775781D01*
X119057326Y-94780997D01*
X119036091Y-94784147D01*
X119014650Y-94785200D01*
X118577150Y-94785200D01*
X118555709Y-94784147D01*
X118534474Y-94780997D01*
X118513650Y-94775781D01*
X118493438Y-94768549D01*
X118474032Y-94759370D01*
X118455619Y-94748334D01*
X118438376Y-94735546D01*
X118422470Y-94721130D01*
X118408054Y-94705224D01*
X118395266Y-94687981D01*
X118384230Y-94669568D01*
X118375051Y-94650162D01*
X118367819Y-94629950D01*
X118362603Y-94609126D01*
X118359453Y-94587891D01*
X118358400Y-94566450D01*
X118358400Y-94053950D01*
X118359453Y-94032509D01*
X118362603Y-94011274D01*
X118367819Y-93990450D01*
X118375051Y-93970238D01*
X118384230Y-93950832D01*
X118395266Y-93932419D01*
X118408054Y-93915176D01*
X118422470Y-93899270D01*
X118438376Y-93884854D01*
X118455619Y-93872066D01*
X118474032Y-93861030D01*
X118493438Y-93851851D01*
X118513650Y-93844619D01*
X118534474Y-93839403D01*
X118555709Y-93836253D01*
X118577150Y-93835200D01*
X119014650Y-93835200D01*
X119036091Y-93836253D01*
G37*
G04 #@! TD.AperFunction*
G04 #@! TA.AperFunction,SMDPad,CuDef*
G36*
X105904191Y-110778053D02*
G01*
X105925426Y-110781203D01*
X105946250Y-110786419D01*
X105966462Y-110793651D01*
X105985868Y-110802830D01*
X106004281Y-110813866D01*
X106021524Y-110826654D01*
X106037430Y-110841070D01*
X106051846Y-110856976D01*
X106064634Y-110874219D01*
X106075670Y-110892632D01*
X106084849Y-110912038D01*
X106092081Y-110932250D01*
X106097297Y-110953074D01*
X106100447Y-110974309D01*
X106101500Y-110995750D01*
X106101500Y-111508250D01*
X106100447Y-111529691D01*
X106097297Y-111550926D01*
X106092081Y-111571750D01*
X106084849Y-111591962D01*
X106075670Y-111611368D01*
X106064634Y-111629781D01*
X106051846Y-111647024D01*
X106037430Y-111662930D01*
X106021524Y-111677346D01*
X106004281Y-111690134D01*
X105985868Y-111701170D01*
X105966462Y-111710349D01*
X105946250Y-111717581D01*
X105925426Y-111722797D01*
X105904191Y-111725947D01*
X105882750Y-111727000D01*
X105445250Y-111727000D01*
X105423809Y-111725947D01*
X105402574Y-111722797D01*
X105381750Y-111717581D01*
X105361538Y-111710349D01*
X105342132Y-111701170D01*
X105323719Y-111690134D01*
X105306476Y-111677346D01*
X105290570Y-111662930D01*
X105276154Y-111647024D01*
X105263366Y-111629781D01*
X105252330Y-111611368D01*
X105243151Y-111591962D01*
X105235919Y-111571750D01*
X105230703Y-111550926D01*
X105227553Y-111529691D01*
X105226500Y-111508250D01*
X105226500Y-110995750D01*
X105227553Y-110974309D01*
X105230703Y-110953074D01*
X105235919Y-110932250D01*
X105243151Y-110912038D01*
X105252330Y-110892632D01*
X105263366Y-110874219D01*
X105276154Y-110856976D01*
X105290570Y-110841070D01*
X105306476Y-110826654D01*
X105323719Y-110813866D01*
X105342132Y-110802830D01*
X105361538Y-110793651D01*
X105381750Y-110786419D01*
X105402574Y-110781203D01*
X105423809Y-110778053D01*
X105445250Y-110777000D01*
X105882750Y-110777000D01*
X105904191Y-110778053D01*
G37*
G04 #@! TD.AperFunction*
G04 #@! TA.AperFunction,SMDPad,CuDef*
G36*
X107479191Y-110778053D02*
G01*
X107500426Y-110781203D01*
X107521250Y-110786419D01*
X107541462Y-110793651D01*
X107560868Y-110802830D01*
X107579281Y-110813866D01*
X107596524Y-110826654D01*
X107612430Y-110841070D01*
X107626846Y-110856976D01*
X107639634Y-110874219D01*
X107650670Y-110892632D01*
X107659849Y-110912038D01*
X107667081Y-110932250D01*
X107672297Y-110953074D01*
X107675447Y-110974309D01*
X107676500Y-110995750D01*
X107676500Y-111508250D01*
X107675447Y-111529691D01*
X107672297Y-111550926D01*
X107667081Y-111571750D01*
X107659849Y-111591962D01*
X107650670Y-111611368D01*
X107639634Y-111629781D01*
X107626846Y-111647024D01*
X107612430Y-111662930D01*
X107596524Y-111677346D01*
X107579281Y-111690134D01*
X107560868Y-111701170D01*
X107541462Y-111710349D01*
X107521250Y-111717581D01*
X107500426Y-111722797D01*
X107479191Y-111725947D01*
X107457750Y-111727000D01*
X107020250Y-111727000D01*
X106998809Y-111725947D01*
X106977574Y-111722797D01*
X106956750Y-111717581D01*
X106936538Y-111710349D01*
X106917132Y-111701170D01*
X106898719Y-111690134D01*
X106881476Y-111677346D01*
X106865570Y-111662930D01*
X106851154Y-111647024D01*
X106838366Y-111629781D01*
X106827330Y-111611368D01*
X106818151Y-111591962D01*
X106810919Y-111571750D01*
X106805703Y-111550926D01*
X106802553Y-111529691D01*
X106801500Y-111508250D01*
X106801500Y-110995750D01*
X106802553Y-110974309D01*
X106805703Y-110953074D01*
X106810919Y-110932250D01*
X106818151Y-110912038D01*
X106827330Y-110892632D01*
X106838366Y-110874219D01*
X106851154Y-110856976D01*
X106865570Y-110841070D01*
X106881476Y-110826654D01*
X106898719Y-110813866D01*
X106917132Y-110802830D01*
X106936538Y-110793651D01*
X106956750Y-110786419D01*
X106977574Y-110781203D01*
X106998809Y-110778053D01*
X107020250Y-110777000D01*
X107457750Y-110777000D01*
X107479191Y-110778053D01*
G37*
G04 #@! TD.AperFunction*
G04 #@! TA.AperFunction,SMDPad,CuDef*
G36*
X110005691Y-95296053D02*
G01*
X110026926Y-95299203D01*
X110047750Y-95304419D01*
X110067962Y-95311651D01*
X110087368Y-95320830D01*
X110105781Y-95331866D01*
X110123024Y-95344654D01*
X110138930Y-95359070D01*
X110153346Y-95374976D01*
X110166134Y-95392219D01*
X110177170Y-95410632D01*
X110186349Y-95430038D01*
X110193581Y-95450250D01*
X110198797Y-95471074D01*
X110201947Y-95492309D01*
X110203000Y-95513750D01*
X110203000Y-95951250D01*
X110201947Y-95972691D01*
X110198797Y-95993926D01*
X110193581Y-96014750D01*
X110186349Y-96034962D01*
X110177170Y-96054368D01*
X110166134Y-96072781D01*
X110153346Y-96090024D01*
X110138930Y-96105930D01*
X110123024Y-96120346D01*
X110105781Y-96133134D01*
X110087368Y-96144170D01*
X110067962Y-96153349D01*
X110047750Y-96160581D01*
X110026926Y-96165797D01*
X110005691Y-96168947D01*
X109984250Y-96170000D01*
X109471750Y-96170000D01*
X109450309Y-96168947D01*
X109429074Y-96165797D01*
X109408250Y-96160581D01*
X109388038Y-96153349D01*
X109368632Y-96144170D01*
X109350219Y-96133134D01*
X109332976Y-96120346D01*
X109317070Y-96105930D01*
X109302654Y-96090024D01*
X109289866Y-96072781D01*
X109278830Y-96054368D01*
X109269651Y-96034962D01*
X109262419Y-96014750D01*
X109257203Y-95993926D01*
X109254053Y-95972691D01*
X109253000Y-95951250D01*
X109253000Y-95513750D01*
X109254053Y-95492309D01*
X109257203Y-95471074D01*
X109262419Y-95450250D01*
X109269651Y-95430038D01*
X109278830Y-95410632D01*
X109289866Y-95392219D01*
X109302654Y-95374976D01*
X109317070Y-95359070D01*
X109332976Y-95344654D01*
X109350219Y-95331866D01*
X109368632Y-95320830D01*
X109388038Y-95311651D01*
X109408250Y-95304419D01*
X109429074Y-95299203D01*
X109450309Y-95296053D01*
X109471750Y-95295000D01*
X109984250Y-95295000D01*
X110005691Y-95296053D01*
G37*
G04 #@! TD.AperFunction*
G04 #@! TA.AperFunction,SMDPad,CuDef*
G36*
X110005691Y-96871053D02*
G01*
X110026926Y-96874203D01*
X110047750Y-96879419D01*
X110067962Y-96886651D01*
X110087368Y-96895830D01*
X110105781Y-96906866D01*
X110123024Y-96919654D01*
X110138930Y-96934070D01*
X110153346Y-96949976D01*
X110166134Y-96967219D01*
X110177170Y-96985632D01*
X110186349Y-97005038D01*
X110193581Y-97025250D01*
X110198797Y-97046074D01*
X110201947Y-97067309D01*
X110203000Y-97088750D01*
X110203000Y-97526250D01*
X110201947Y-97547691D01*
X110198797Y-97568926D01*
X110193581Y-97589750D01*
X110186349Y-97609962D01*
X110177170Y-97629368D01*
X110166134Y-97647781D01*
X110153346Y-97665024D01*
X110138930Y-97680930D01*
X110123024Y-97695346D01*
X110105781Y-97708134D01*
X110087368Y-97719170D01*
X110067962Y-97728349D01*
X110047750Y-97735581D01*
X110026926Y-97740797D01*
X110005691Y-97743947D01*
X109984250Y-97745000D01*
X109471750Y-97745000D01*
X109450309Y-97743947D01*
X109429074Y-97740797D01*
X109408250Y-97735581D01*
X109388038Y-97728349D01*
X109368632Y-97719170D01*
X109350219Y-97708134D01*
X109332976Y-97695346D01*
X109317070Y-97680930D01*
X109302654Y-97665024D01*
X109289866Y-97647781D01*
X109278830Y-97629368D01*
X109269651Y-97609962D01*
X109262419Y-97589750D01*
X109257203Y-97568926D01*
X109254053Y-97547691D01*
X109253000Y-97526250D01*
X109253000Y-97088750D01*
X109254053Y-97067309D01*
X109257203Y-97046074D01*
X109262419Y-97025250D01*
X109269651Y-97005038D01*
X109278830Y-96985632D01*
X109289866Y-96967219D01*
X109302654Y-96949976D01*
X109317070Y-96934070D01*
X109332976Y-96919654D01*
X109350219Y-96906866D01*
X109368632Y-96895830D01*
X109388038Y-96886651D01*
X109408250Y-96879419D01*
X109429074Y-96874203D01*
X109450309Y-96871053D01*
X109471750Y-96870000D01*
X109984250Y-96870000D01*
X110005691Y-96871053D01*
G37*
G04 #@! TD.AperFunction*
G04 #@! TA.AperFunction,SMDPad,CuDef*
G36*
X113200642Y-107505174D02*
G01*
X113224303Y-107508684D01*
X113247507Y-107514496D01*
X113270029Y-107522554D01*
X113291653Y-107532782D01*
X113312170Y-107545079D01*
X113331383Y-107559329D01*
X113349107Y-107575393D01*
X113365171Y-107593117D01*
X113379421Y-107612330D01*
X113391718Y-107632847D01*
X113401946Y-107654471D01*
X113410004Y-107676993D01*
X113415816Y-107700197D01*
X113419326Y-107723858D01*
X113420500Y-107747750D01*
X113420500Y-108660250D01*
X113419326Y-108684142D01*
X113415816Y-108707803D01*
X113410004Y-108731007D01*
X113401946Y-108753529D01*
X113391718Y-108775153D01*
X113379421Y-108795670D01*
X113365171Y-108814883D01*
X113349107Y-108832607D01*
X113331383Y-108848671D01*
X113312170Y-108862921D01*
X113291653Y-108875218D01*
X113270029Y-108885446D01*
X113247507Y-108893504D01*
X113224303Y-108899316D01*
X113200642Y-108902826D01*
X113176750Y-108904000D01*
X112689250Y-108904000D01*
X112665358Y-108902826D01*
X112641697Y-108899316D01*
X112618493Y-108893504D01*
X112595971Y-108885446D01*
X112574347Y-108875218D01*
X112553830Y-108862921D01*
X112534617Y-108848671D01*
X112516893Y-108832607D01*
X112500829Y-108814883D01*
X112486579Y-108795670D01*
X112474282Y-108775153D01*
X112464054Y-108753529D01*
X112455996Y-108731007D01*
X112450184Y-108707803D01*
X112446674Y-108684142D01*
X112445500Y-108660250D01*
X112445500Y-107747750D01*
X112446674Y-107723858D01*
X112450184Y-107700197D01*
X112455996Y-107676993D01*
X112464054Y-107654471D01*
X112474282Y-107632847D01*
X112486579Y-107612330D01*
X112500829Y-107593117D01*
X112516893Y-107575393D01*
X112534617Y-107559329D01*
X112553830Y-107545079D01*
X112574347Y-107532782D01*
X112595971Y-107522554D01*
X112618493Y-107514496D01*
X112641697Y-107508684D01*
X112665358Y-107505174D01*
X112689250Y-107504000D01*
X113176750Y-107504000D01*
X113200642Y-107505174D01*
G37*
G04 #@! TD.AperFunction*
G04 #@! TA.AperFunction,SMDPad,CuDef*
G36*
X115075642Y-107505174D02*
G01*
X115099303Y-107508684D01*
X115122507Y-107514496D01*
X115145029Y-107522554D01*
X115166653Y-107532782D01*
X115187170Y-107545079D01*
X115206383Y-107559329D01*
X115224107Y-107575393D01*
X115240171Y-107593117D01*
X115254421Y-107612330D01*
X115266718Y-107632847D01*
X115276946Y-107654471D01*
X115285004Y-107676993D01*
X115290816Y-107700197D01*
X115294326Y-107723858D01*
X115295500Y-107747750D01*
X115295500Y-108660250D01*
X115294326Y-108684142D01*
X115290816Y-108707803D01*
X115285004Y-108731007D01*
X115276946Y-108753529D01*
X115266718Y-108775153D01*
X115254421Y-108795670D01*
X115240171Y-108814883D01*
X115224107Y-108832607D01*
X115206383Y-108848671D01*
X115187170Y-108862921D01*
X115166653Y-108875218D01*
X115145029Y-108885446D01*
X115122507Y-108893504D01*
X115099303Y-108899316D01*
X115075642Y-108902826D01*
X115051750Y-108904000D01*
X114564250Y-108904000D01*
X114540358Y-108902826D01*
X114516697Y-108899316D01*
X114493493Y-108893504D01*
X114470971Y-108885446D01*
X114449347Y-108875218D01*
X114428830Y-108862921D01*
X114409617Y-108848671D01*
X114391893Y-108832607D01*
X114375829Y-108814883D01*
X114361579Y-108795670D01*
X114349282Y-108775153D01*
X114339054Y-108753529D01*
X114330996Y-108731007D01*
X114325184Y-108707803D01*
X114321674Y-108684142D01*
X114320500Y-108660250D01*
X114320500Y-107747750D01*
X114321674Y-107723858D01*
X114325184Y-107700197D01*
X114330996Y-107676993D01*
X114339054Y-107654471D01*
X114349282Y-107632847D01*
X114361579Y-107612330D01*
X114375829Y-107593117D01*
X114391893Y-107575393D01*
X114409617Y-107559329D01*
X114428830Y-107545079D01*
X114449347Y-107532782D01*
X114470971Y-107522554D01*
X114493493Y-107514496D01*
X114516697Y-107508684D01*
X114540358Y-107505174D01*
X114564250Y-107504000D01*
X115051750Y-107504000D01*
X115075642Y-107505174D01*
G37*
G04 #@! TD.AperFunction*
G04 #@! TA.AperFunction,SMDPad,CuDef*
G36*
X99521703Y-107396722D02*
G01*
X99536264Y-107398882D01*
X99550543Y-107402459D01*
X99564403Y-107407418D01*
X99577710Y-107413712D01*
X99590336Y-107421280D01*
X99602159Y-107430048D01*
X99613066Y-107439934D01*
X99622952Y-107450841D01*
X99631720Y-107462664D01*
X99639288Y-107475290D01*
X99645582Y-107488597D01*
X99650541Y-107502457D01*
X99654118Y-107516736D01*
X99656278Y-107531297D01*
X99657000Y-107546000D01*
X99657000Y-107846000D01*
X99656278Y-107860703D01*
X99654118Y-107875264D01*
X99650541Y-107889543D01*
X99645582Y-107903403D01*
X99639288Y-107916710D01*
X99631720Y-107929336D01*
X99622952Y-107941159D01*
X99613066Y-107952066D01*
X99602159Y-107961952D01*
X99590336Y-107970720D01*
X99577710Y-107978288D01*
X99564403Y-107984582D01*
X99550543Y-107989541D01*
X99536264Y-107993118D01*
X99521703Y-107995278D01*
X99507000Y-107996000D01*
X97857000Y-107996000D01*
X97842297Y-107995278D01*
X97827736Y-107993118D01*
X97813457Y-107989541D01*
X97799597Y-107984582D01*
X97786290Y-107978288D01*
X97773664Y-107970720D01*
X97761841Y-107961952D01*
X97750934Y-107952066D01*
X97741048Y-107941159D01*
X97732280Y-107929336D01*
X97724712Y-107916710D01*
X97718418Y-107903403D01*
X97713459Y-107889543D01*
X97709882Y-107875264D01*
X97707722Y-107860703D01*
X97707000Y-107846000D01*
X97707000Y-107546000D01*
X97707722Y-107531297D01*
X97709882Y-107516736D01*
X97713459Y-107502457D01*
X97718418Y-107488597D01*
X97724712Y-107475290D01*
X97732280Y-107462664D01*
X97741048Y-107450841D01*
X97750934Y-107439934D01*
X97761841Y-107430048D01*
X97773664Y-107421280D01*
X97786290Y-107413712D01*
X97799597Y-107407418D01*
X97813457Y-107402459D01*
X97827736Y-107398882D01*
X97842297Y-107396722D01*
X97857000Y-107396000D01*
X99507000Y-107396000D01*
X99521703Y-107396722D01*
G37*
G04 #@! TD.AperFunction*
G04 #@! TA.AperFunction,SMDPad,CuDef*
G36*
X99521703Y-106126722D02*
G01*
X99536264Y-106128882D01*
X99550543Y-106132459D01*
X99564403Y-106137418D01*
X99577710Y-106143712D01*
X99590336Y-106151280D01*
X99602159Y-106160048D01*
X99613066Y-106169934D01*
X99622952Y-106180841D01*
X99631720Y-106192664D01*
X99639288Y-106205290D01*
X99645582Y-106218597D01*
X99650541Y-106232457D01*
X99654118Y-106246736D01*
X99656278Y-106261297D01*
X99657000Y-106276000D01*
X99657000Y-106576000D01*
X99656278Y-106590703D01*
X99654118Y-106605264D01*
X99650541Y-106619543D01*
X99645582Y-106633403D01*
X99639288Y-106646710D01*
X99631720Y-106659336D01*
X99622952Y-106671159D01*
X99613066Y-106682066D01*
X99602159Y-106691952D01*
X99590336Y-106700720D01*
X99577710Y-106708288D01*
X99564403Y-106714582D01*
X99550543Y-106719541D01*
X99536264Y-106723118D01*
X99521703Y-106725278D01*
X99507000Y-106726000D01*
X97857000Y-106726000D01*
X97842297Y-106725278D01*
X97827736Y-106723118D01*
X97813457Y-106719541D01*
X97799597Y-106714582D01*
X97786290Y-106708288D01*
X97773664Y-106700720D01*
X97761841Y-106691952D01*
X97750934Y-106682066D01*
X97741048Y-106671159D01*
X97732280Y-106659336D01*
X97724712Y-106646710D01*
X97718418Y-106633403D01*
X97713459Y-106619543D01*
X97709882Y-106605264D01*
X97707722Y-106590703D01*
X97707000Y-106576000D01*
X97707000Y-106276000D01*
X97707722Y-106261297D01*
X97709882Y-106246736D01*
X97713459Y-106232457D01*
X97718418Y-106218597D01*
X97724712Y-106205290D01*
X97732280Y-106192664D01*
X97741048Y-106180841D01*
X97750934Y-106169934D01*
X97761841Y-106160048D01*
X97773664Y-106151280D01*
X97786290Y-106143712D01*
X97799597Y-106137418D01*
X97813457Y-106132459D01*
X97827736Y-106128882D01*
X97842297Y-106126722D01*
X97857000Y-106126000D01*
X99507000Y-106126000D01*
X99521703Y-106126722D01*
G37*
G04 #@! TD.AperFunction*
G04 #@! TA.AperFunction,SMDPad,CuDef*
G36*
X99521703Y-104856722D02*
G01*
X99536264Y-104858882D01*
X99550543Y-104862459D01*
X99564403Y-104867418D01*
X99577710Y-104873712D01*
X99590336Y-104881280D01*
X99602159Y-104890048D01*
X99613066Y-104899934D01*
X99622952Y-104910841D01*
X99631720Y-104922664D01*
X99639288Y-104935290D01*
X99645582Y-104948597D01*
X99650541Y-104962457D01*
X99654118Y-104976736D01*
X99656278Y-104991297D01*
X99657000Y-105006000D01*
X99657000Y-105306000D01*
X99656278Y-105320703D01*
X99654118Y-105335264D01*
X99650541Y-105349543D01*
X99645582Y-105363403D01*
X99639288Y-105376710D01*
X99631720Y-105389336D01*
X99622952Y-105401159D01*
X99613066Y-105412066D01*
X99602159Y-105421952D01*
X99590336Y-105430720D01*
X99577710Y-105438288D01*
X99564403Y-105444582D01*
X99550543Y-105449541D01*
X99536264Y-105453118D01*
X99521703Y-105455278D01*
X99507000Y-105456000D01*
X97857000Y-105456000D01*
X97842297Y-105455278D01*
X97827736Y-105453118D01*
X97813457Y-105449541D01*
X97799597Y-105444582D01*
X97786290Y-105438288D01*
X97773664Y-105430720D01*
X97761841Y-105421952D01*
X97750934Y-105412066D01*
X97741048Y-105401159D01*
X97732280Y-105389336D01*
X97724712Y-105376710D01*
X97718418Y-105363403D01*
X97713459Y-105349543D01*
X97709882Y-105335264D01*
X97707722Y-105320703D01*
X97707000Y-105306000D01*
X97707000Y-105006000D01*
X97707722Y-104991297D01*
X97709882Y-104976736D01*
X97713459Y-104962457D01*
X97718418Y-104948597D01*
X97724712Y-104935290D01*
X97732280Y-104922664D01*
X97741048Y-104910841D01*
X97750934Y-104899934D01*
X97761841Y-104890048D01*
X97773664Y-104881280D01*
X97786290Y-104873712D01*
X97799597Y-104867418D01*
X97813457Y-104862459D01*
X97827736Y-104858882D01*
X97842297Y-104856722D01*
X97857000Y-104856000D01*
X99507000Y-104856000D01*
X99521703Y-104856722D01*
G37*
G04 #@! TD.AperFunction*
G04 #@! TA.AperFunction,SMDPad,CuDef*
G36*
X99521703Y-103586722D02*
G01*
X99536264Y-103588882D01*
X99550543Y-103592459D01*
X99564403Y-103597418D01*
X99577710Y-103603712D01*
X99590336Y-103611280D01*
X99602159Y-103620048D01*
X99613066Y-103629934D01*
X99622952Y-103640841D01*
X99631720Y-103652664D01*
X99639288Y-103665290D01*
X99645582Y-103678597D01*
X99650541Y-103692457D01*
X99654118Y-103706736D01*
X99656278Y-103721297D01*
X99657000Y-103736000D01*
X99657000Y-104036000D01*
X99656278Y-104050703D01*
X99654118Y-104065264D01*
X99650541Y-104079543D01*
X99645582Y-104093403D01*
X99639288Y-104106710D01*
X99631720Y-104119336D01*
X99622952Y-104131159D01*
X99613066Y-104142066D01*
X99602159Y-104151952D01*
X99590336Y-104160720D01*
X99577710Y-104168288D01*
X99564403Y-104174582D01*
X99550543Y-104179541D01*
X99536264Y-104183118D01*
X99521703Y-104185278D01*
X99507000Y-104186000D01*
X97857000Y-104186000D01*
X97842297Y-104185278D01*
X97827736Y-104183118D01*
X97813457Y-104179541D01*
X97799597Y-104174582D01*
X97786290Y-104168288D01*
X97773664Y-104160720D01*
X97761841Y-104151952D01*
X97750934Y-104142066D01*
X97741048Y-104131159D01*
X97732280Y-104119336D01*
X97724712Y-104106710D01*
X97718418Y-104093403D01*
X97713459Y-104079543D01*
X97709882Y-104065264D01*
X97707722Y-104050703D01*
X97707000Y-104036000D01*
X97707000Y-103736000D01*
X97707722Y-103721297D01*
X97709882Y-103706736D01*
X97713459Y-103692457D01*
X97718418Y-103678597D01*
X97724712Y-103665290D01*
X97732280Y-103652664D01*
X97741048Y-103640841D01*
X97750934Y-103629934D01*
X97761841Y-103620048D01*
X97773664Y-103611280D01*
X97786290Y-103603712D01*
X97799597Y-103597418D01*
X97813457Y-103592459D01*
X97827736Y-103588882D01*
X97842297Y-103586722D01*
X97857000Y-103586000D01*
X99507000Y-103586000D01*
X99521703Y-103586722D01*
G37*
G04 #@! TD.AperFunction*
G04 #@! TA.AperFunction,SMDPad,CuDef*
G36*
X99521703Y-102316722D02*
G01*
X99536264Y-102318882D01*
X99550543Y-102322459D01*
X99564403Y-102327418D01*
X99577710Y-102333712D01*
X99590336Y-102341280D01*
X99602159Y-102350048D01*
X99613066Y-102359934D01*
X99622952Y-102370841D01*
X99631720Y-102382664D01*
X99639288Y-102395290D01*
X99645582Y-102408597D01*
X99650541Y-102422457D01*
X99654118Y-102436736D01*
X99656278Y-102451297D01*
X99657000Y-102466000D01*
X99657000Y-102766000D01*
X99656278Y-102780703D01*
X99654118Y-102795264D01*
X99650541Y-102809543D01*
X99645582Y-102823403D01*
X99639288Y-102836710D01*
X99631720Y-102849336D01*
X99622952Y-102861159D01*
X99613066Y-102872066D01*
X99602159Y-102881952D01*
X99590336Y-102890720D01*
X99577710Y-102898288D01*
X99564403Y-102904582D01*
X99550543Y-102909541D01*
X99536264Y-102913118D01*
X99521703Y-102915278D01*
X99507000Y-102916000D01*
X97857000Y-102916000D01*
X97842297Y-102915278D01*
X97827736Y-102913118D01*
X97813457Y-102909541D01*
X97799597Y-102904582D01*
X97786290Y-102898288D01*
X97773664Y-102890720D01*
X97761841Y-102881952D01*
X97750934Y-102872066D01*
X97741048Y-102861159D01*
X97732280Y-102849336D01*
X97724712Y-102836710D01*
X97718418Y-102823403D01*
X97713459Y-102809543D01*
X97709882Y-102795264D01*
X97707722Y-102780703D01*
X97707000Y-102766000D01*
X97707000Y-102466000D01*
X97707722Y-102451297D01*
X97709882Y-102436736D01*
X97713459Y-102422457D01*
X97718418Y-102408597D01*
X97724712Y-102395290D01*
X97732280Y-102382664D01*
X97741048Y-102370841D01*
X97750934Y-102359934D01*
X97761841Y-102350048D01*
X97773664Y-102341280D01*
X97786290Y-102333712D01*
X97799597Y-102327418D01*
X97813457Y-102322459D01*
X97827736Y-102318882D01*
X97842297Y-102316722D01*
X97857000Y-102316000D01*
X99507000Y-102316000D01*
X99521703Y-102316722D01*
G37*
G04 #@! TD.AperFunction*
G04 #@! TA.AperFunction,SMDPad,CuDef*
G36*
X99521703Y-101046722D02*
G01*
X99536264Y-101048882D01*
X99550543Y-101052459D01*
X99564403Y-101057418D01*
X99577710Y-101063712D01*
X99590336Y-101071280D01*
X99602159Y-101080048D01*
X99613066Y-101089934D01*
X99622952Y-101100841D01*
X99631720Y-101112664D01*
X99639288Y-101125290D01*
X99645582Y-101138597D01*
X99650541Y-101152457D01*
X99654118Y-101166736D01*
X99656278Y-101181297D01*
X99657000Y-101196000D01*
X99657000Y-101496000D01*
X99656278Y-101510703D01*
X99654118Y-101525264D01*
X99650541Y-101539543D01*
X99645582Y-101553403D01*
X99639288Y-101566710D01*
X99631720Y-101579336D01*
X99622952Y-101591159D01*
X99613066Y-101602066D01*
X99602159Y-101611952D01*
X99590336Y-101620720D01*
X99577710Y-101628288D01*
X99564403Y-101634582D01*
X99550543Y-101639541D01*
X99536264Y-101643118D01*
X99521703Y-101645278D01*
X99507000Y-101646000D01*
X97857000Y-101646000D01*
X97842297Y-101645278D01*
X97827736Y-101643118D01*
X97813457Y-101639541D01*
X97799597Y-101634582D01*
X97786290Y-101628288D01*
X97773664Y-101620720D01*
X97761841Y-101611952D01*
X97750934Y-101602066D01*
X97741048Y-101591159D01*
X97732280Y-101579336D01*
X97724712Y-101566710D01*
X97718418Y-101553403D01*
X97713459Y-101539543D01*
X97709882Y-101525264D01*
X97707722Y-101510703D01*
X97707000Y-101496000D01*
X97707000Y-101196000D01*
X97707722Y-101181297D01*
X97709882Y-101166736D01*
X97713459Y-101152457D01*
X97718418Y-101138597D01*
X97724712Y-101125290D01*
X97732280Y-101112664D01*
X97741048Y-101100841D01*
X97750934Y-101089934D01*
X97761841Y-101080048D01*
X97773664Y-101071280D01*
X97786290Y-101063712D01*
X97799597Y-101057418D01*
X97813457Y-101052459D01*
X97827736Y-101048882D01*
X97842297Y-101046722D01*
X97857000Y-101046000D01*
X99507000Y-101046000D01*
X99521703Y-101046722D01*
G37*
G04 #@! TD.AperFunction*
G04 #@! TA.AperFunction,SMDPad,CuDef*
G36*
X99521703Y-99776722D02*
G01*
X99536264Y-99778882D01*
X99550543Y-99782459D01*
X99564403Y-99787418D01*
X99577710Y-99793712D01*
X99590336Y-99801280D01*
X99602159Y-99810048D01*
X99613066Y-99819934D01*
X99622952Y-99830841D01*
X99631720Y-99842664D01*
X99639288Y-99855290D01*
X99645582Y-99868597D01*
X99650541Y-99882457D01*
X99654118Y-99896736D01*
X99656278Y-99911297D01*
X99657000Y-99926000D01*
X99657000Y-100226000D01*
X99656278Y-100240703D01*
X99654118Y-100255264D01*
X99650541Y-100269543D01*
X99645582Y-100283403D01*
X99639288Y-100296710D01*
X99631720Y-100309336D01*
X99622952Y-100321159D01*
X99613066Y-100332066D01*
X99602159Y-100341952D01*
X99590336Y-100350720D01*
X99577710Y-100358288D01*
X99564403Y-100364582D01*
X99550543Y-100369541D01*
X99536264Y-100373118D01*
X99521703Y-100375278D01*
X99507000Y-100376000D01*
X97857000Y-100376000D01*
X97842297Y-100375278D01*
X97827736Y-100373118D01*
X97813457Y-100369541D01*
X97799597Y-100364582D01*
X97786290Y-100358288D01*
X97773664Y-100350720D01*
X97761841Y-100341952D01*
X97750934Y-100332066D01*
X97741048Y-100321159D01*
X97732280Y-100309336D01*
X97724712Y-100296710D01*
X97718418Y-100283403D01*
X97713459Y-100269543D01*
X97709882Y-100255264D01*
X97707722Y-100240703D01*
X97707000Y-100226000D01*
X97707000Y-99926000D01*
X97707722Y-99911297D01*
X97709882Y-99896736D01*
X97713459Y-99882457D01*
X97718418Y-99868597D01*
X97724712Y-99855290D01*
X97732280Y-99842664D01*
X97741048Y-99830841D01*
X97750934Y-99819934D01*
X97761841Y-99810048D01*
X97773664Y-99801280D01*
X97786290Y-99793712D01*
X97799597Y-99787418D01*
X97813457Y-99782459D01*
X97827736Y-99778882D01*
X97842297Y-99776722D01*
X97857000Y-99776000D01*
X99507000Y-99776000D01*
X99521703Y-99776722D01*
G37*
G04 #@! TD.AperFunction*
G04 #@! TA.AperFunction,SMDPad,CuDef*
G36*
X104471703Y-99776722D02*
G01*
X104486264Y-99778882D01*
X104500543Y-99782459D01*
X104514403Y-99787418D01*
X104527710Y-99793712D01*
X104540336Y-99801280D01*
X104552159Y-99810048D01*
X104563066Y-99819934D01*
X104572952Y-99830841D01*
X104581720Y-99842664D01*
X104589288Y-99855290D01*
X104595582Y-99868597D01*
X104600541Y-99882457D01*
X104604118Y-99896736D01*
X104606278Y-99911297D01*
X104607000Y-99926000D01*
X104607000Y-100226000D01*
X104606278Y-100240703D01*
X104604118Y-100255264D01*
X104600541Y-100269543D01*
X104595582Y-100283403D01*
X104589288Y-100296710D01*
X104581720Y-100309336D01*
X104572952Y-100321159D01*
X104563066Y-100332066D01*
X104552159Y-100341952D01*
X104540336Y-100350720D01*
X104527710Y-100358288D01*
X104514403Y-100364582D01*
X104500543Y-100369541D01*
X104486264Y-100373118D01*
X104471703Y-100375278D01*
X104457000Y-100376000D01*
X102807000Y-100376000D01*
X102792297Y-100375278D01*
X102777736Y-100373118D01*
X102763457Y-100369541D01*
X102749597Y-100364582D01*
X102736290Y-100358288D01*
X102723664Y-100350720D01*
X102711841Y-100341952D01*
X102700934Y-100332066D01*
X102691048Y-100321159D01*
X102682280Y-100309336D01*
X102674712Y-100296710D01*
X102668418Y-100283403D01*
X102663459Y-100269543D01*
X102659882Y-100255264D01*
X102657722Y-100240703D01*
X102657000Y-100226000D01*
X102657000Y-99926000D01*
X102657722Y-99911297D01*
X102659882Y-99896736D01*
X102663459Y-99882457D01*
X102668418Y-99868597D01*
X102674712Y-99855290D01*
X102682280Y-99842664D01*
X102691048Y-99830841D01*
X102700934Y-99819934D01*
X102711841Y-99810048D01*
X102723664Y-99801280D01*
X102736290Y-99793712D01*
X102749597Y-99787418D01*
X102763457Y-99782459D01*
X102777736Y-99778882D01*
X102792297Y-99776722D01*
X102807000Y-99776000D01*
X104457000Y-99776000D01*
X104471703Y-99776722D01*
G37*
G04 #@! TD.AperFunction*
G04 #@! TA.AperFunction,SMDPad,CuDef*
G36*
X104471703Y-101046722D02*
G01*
X104486264Y-101048882D01*
X104500543Y-101052459D01*
X104514403Y-101057418D01*
X104527710Y-101063712D01*
X104540336Y-101071280D01*
X104552159Y-101080048D01*
X104563066Y-101089934D01*
X104572952Y-101100841D01*
X104581720Y-101112664D01*
X104589288Y-101125290D01*
X104595582Y-101138597D01*
X104600541Y-101152457D01*
X104604118Y-101166736D01*
X104606278Y-101181297D01*
X104607000Y-101196000D01*
X104607000Y-101496000D01*
X104606278Y-101510703D01*
X104604118Y-101525264D01*
X104600541Y-101539543D01*
X104595582Y-101553403D01*
X104589288Y-101566710D01*
X104581720Y-101579336D01*
X104572952Y-101591159D01*
X104563066Y-101602066D01*
X104552159Y-101611952D01*
X104540336Y-101620720D01*
X104527710Y-101628288D01*
X104514403Y-101634582D01*
X104500543Y-101639541D01*
X104486264Y-101643118D01*
X104471703Y-101645278D01*
X104457000Y-101646000D01*
X102807000Y-101646000D01*
X102792297Y-101645278D01*
X102777736Y-101643118D01*
X102763457Y-101639541D01*
X102749597Y-101634582D01*
X102736290Y-101628288D01*
X102723664Y-101620720D01*
X102711841Y-101611952D01*
X102700934Y-101602066D01*
X102691048Y-101591159D01*
X102682280Y-101579336D01*
X102674712Y-101566710D01*
X102668418Y-101553403D01*
X102663459Y-101539543D01*
X102659882Y-101525264D01*
X102657722Y-101510703D01*
X102657000Y-101496000D01*
X102657000Y-101196000D01*
X102657722Y-101181297D01*
X102659882Y-101166736D01*
X102663459Y-101152457D01*
X102668418Y-101138597D01*
X102674712Y-101125290D01*
X102682280Y-101112664D01*
X102691048Y-101100841D01*
X102700934Y-101089934D01*
X102711841Y-101080048D01*
X102723664Y-101071280D01*
X102736290Y-101063712D01*
X102749597Y-101057418D01*
X102763457Y-101052459D01*
X102777736Y-101048882D01*
X102792297Y-101046722D01*
X102807000Y-101046000D01*
X104457000Y-101046000D01*
X104471703Y-101046722D01*
G37*
G04 #@! TD.AperFunction*
G04 #@! TA.AperFunction,SMDPad,CuDef*
G36*
X104471703Y-102316722D02*
G01*
X104486264Y-102318882D01*
X104500543Y-102322459D01*
X104514403Y-102327418D01*
X104527710Y-102333712D01*
X104540336Y-102341280D01*
X104552159Y-102350048D01*
X104563066Y-102359934D01*
X104572952Y-102370841D01*
X104581720Y-102382664D01*
X104589288Y-102395290D01*
X104595582Y-102408597D01*
X104600541Y-102422457D01*
X104604118Y-102436736D01*
X104606278Y-102451297D01*
X104607000Y-102466000D01*
X104607000Y-102766000D01*
X104606278Y-102780703D01*
X104604118Y-102795264D01*
X104600541Y-102809543D01*
X104595582Y-102823403D01*
X104589288Y-102836710D01*
X104581720Y-102849336D01*
X104572952Y-102861159D01*
X104563066Y-102872066D01*
X104552159Y-102881952D01*
X104540336Y-102890720D01*
X104527710Y-102898288D01*
X104514403Y-102904582D01*
X104500543Y-102909541D01*
X104486264Y-102913118D01*
X104471703Y-102915278D01*
X104457000Y-102916000D01*
X102807000Y-102916000D01*
X102792297Y-102915278D01*
X102777736Y-102913118D01*
X102763457Y-102909541D01*
X102749597Y-102904582D01*
X102736290Y-102898288D01*
X102723664Y-102890720D01*
X102711841Y-102881952D01*
X102700934Y-102872066D01*
X102691048Y-102861159D01*
X102682280Y-102849336D01*
X102674712Y-102836710D01*
X102668418Y-102823403D01*
X102663459Y-102809543D01*
X102659882Y-102795264D01*
X102657722Y-102780703D01*
X102657000Y-102766000D01*
X102657000Y-102466000D01*
X102657722Y-102451297D01*
X102659882Y-102436736D01*
X102663459Y-102422457D01*
X102668418Y-102408597D01*
X102674712Y-102395290D01*
X102682280Y-102382664D01*
X102691048Y-102370841D01*
X102700934Y-102359934D01*
X102711841Y-102350048D01*
X102723664Y-102341280D01*
X102736290Y-102333712D01*
X102749597Y-102327418D01*
X102763457Y-102322459D01*
X102777736Y-102318882D01*
X102792297Y-102316722D01*
X102807000Y-102316000D01*
X104457000Y-102316000D01*
X104471703Y-102316722D01*
G37*
G04 #@! TD.AperFunction*
G04 #@! TA.AperFunction,SMDPad,CuDef*
G36*
X104471703Y-103586722D02*
G01*
X104486264Y-103588882D01*
X104500543Y-103592459D01*
X104514403Y-103597418D01*
X104527710Y-103603712D01*
X104540336Y-103611280D01*
X104552159Y-103620048D01*
X104563066Y-103629934D01*
X104572952Y-103640841D01*
X104581720Y-103652664D01*
X104589288Y-103665290D01*
X104595582Y-103678597D01*
X104600541Y-103692457D01*
X104604118Y-103706736D01*
X104606278Y-103721297D01*
X104607000Y-103736000D01*
X104607000Y-104036000D01*
X104606278Y-104050703D01*
X104604118Y-104065264D01*
X104600541Y-104079543D01*
X104595582Y-104093403D01*
X104589288Y-104106710D01*
X104581720Y-104119336D01*
X104572952Y-104131159D01*
X104563066Y-104142066D01*
X104552159Y-104151952D01*
X104540336Y-104160720D01*
X104527710Y-104168288D01*
X104514403Y-104174582D01*
X104500543Y-104179541D01*
X104486264Y-104183118D01*
X104471703Y-104185278D01*
X104457000Y-104186000D01*
X102807000Y-104186000D01*
X102792297Y-104185278D01*
X102777736Y-104183118D01*
X102763457Y-104179541D01*
X102749597Y-104174582D01*
X102736290Y-104168288D01*
X102723664Y-104160720D01*
X102711841Y-104151952D01*
X102700934Y-104142066D01*
X102691048Y-104131159D01*
X102682280Y-104119336D01*
X102674712Y-104106710D01*
X102668418Y-104093403D01*
X102663459Y-104079543D01*
X102659882Y-104065264D01*
X102657722Y-104050703D01*
X102657000Y-104036000D01*
X102657000Y-103736000D01*
X102657722Y-103721297D01*
X102659882Y-103706736D01*
X102663459Y-103692457D01*
X102668418Y-103678597D01*
X102674712Y-103665290D01*
X102682280Y-103652664D01*
X102691048Y-103640841D01*
X102700934Y-103629934D01*
X102711841Y-103620048D01*
X102723664Y-103611280D01*
X102736290Y-103603712D01*
X102749597Y-103597418D01*
X102763457Y-103592459D01*
X102777736Y-103588882D01*
X102792297Y-103586722D01*
X102807000Y-103586000D01*
X104457000Y-103586000D01*
X104471703Y-103586722D01*
G37*
G04 #@! TD.AperFunction*
G04 #@! TA.AperFunction,SMDPad,CuDef*
G36*
X104471703Y-104856722D02*
G01*
X104486264Y-104858882D01*
X104500543Y-104862459D01*
X104514403Y-104867418D01*
X104527710Y-104873712D01*
X104540336Y-104881280D01*
X104552159Y-104890048D01*
X104563066Y-104899934D01*
X104572952Y-104910841D01*
X104581720Y-104922664D01*
X104589288Y-104935290D01*
X104595582Y-104948597D01*
X104600541Y-104962457D01*
X104604118Y-104976736D01*
X104606278Y-104991297D01*
X104607000Y-105006000D01*
X104607000Y-105306000D01*
X104606278Y-105320703D01*
X104604118Y-105335264D01*
X104600541Y-105349543D01*
X104595582Y-105363403D01*
X104589288Y-105376710D01*
X104581720Y-105389336D01*
X104572952Y-105401159D01*
X104563066Y-105412066D01*
X104552159Y-105421952D01*
X104540336Y-105430720D01*
X104527710Y-105438288D01*
X104514403Y-105444582D01*
X104500543Y-105449541D01*
X104486264Y-105453118D01*
X104471703Y-105455278D01*
X104457000Y-105456000D01*
X102807000Y-105456000D01*
X102792297Y-105455278D01*
X102777736Y-105453118D01*
X102763457Y-105449541D01*
X102749597Y-105444582D01*
X102736290Y-105438288D01*
X102723664Y-105430720D01*
X102711841Y-105421952D01*
X102700934Y-105412066D01*
X102691048Y-105401159D01*
X102682280Y-105389336D01*
X102674712Y-105376710D01*
X102668418Y-105363403D01*
X102663459Y-105349543D01*
X102659882Y-105335264D01*
X102657722Y-105320703D01*
X102657000Y-105306000D01*
X102657000Y-105006000D01*
X102657722Y-104991297D01*
X102659882Y-104976736D01*
X102663459Y-104962457D01*
X102668418Y-104948597D01*
X102674712Y-104935290D01*
X102682280Y-104922664D01*
X102691048Y-104910841D01*
X102700934Y-104899934D01*
X102711841Y-104890048D01*
X102723664Y-104881280D01*
X102736290Y-104873712D01*
X102749597Y-104867418D01*
X102763457Y-104862459D01*
X102777736Y-104858882D01*
X102792297Y-104856722D01*
X102807000Y-104856000D01*
X104457000Y-104856000D01*
X104471703Y-104856722D01*
G37*
G04 #@! TD.AperFunction*
G04 #@! TA.AperFunction,SMDPad,CuDef*
G36*
X104471703Y-106126722D02*
G01*
X104486264Y-106128882D01*
X104500543Y-106132459D01*
X104514403Y-106137418D01*
X104527710Y-106143712D01*
X104540336Y-106151280D01*
X104552159Y-106160048D01*
X104563066Y-106169934D01*
X104572952Y-106180841D01*
X104581720Y-106192664D01*
X104589288Y-106205290D01*
X104595582Y-106218597D01*
X104600541Y-106232457D01*
X104604118Y-106246736D01*
X104606278Y-106261297D01*
X104607000Y-106276000D01*
X104607000Y-106576000D01*
X104606278Y-106590703D01*
X104604118Y-106605264D01*
X104600541Y-106619543D01*
X104595582Y-106633403D01*
X104589288Y-106646710D01*
X104581720Y-106659336D01*
X104572952Y-106671159D01*
X104563066Y-106682066D01*
X104552159Y-106691952D01*
X104540336Y-106700720D01*
X104527710Y-106708288D01*
X104514403Y-106714582D01*
X104500543Y-106719541D01*
X104486264Y-106723118D01*
X104471703Y-106725278D01*
X104457000Y-106726000D01*
X102807000Y-106726000D01*
X102792297Y-106725278D01*
X102777736Y-106723118D01*
X102763457Y-106719541D01*
X102749597Y-106714582D01*
X102736290Y-106708288D01*
X102723664Y-106700720D01*
X102711841Y-106691952D01*
X102700934Y-106682066D01*
X102691048Y-106671159D01*
X102682280Y-106659336D01*
X102674712Y-106646710D01*
X102668418Y-106633403D01*
X102663459Y-106619543D01*
X102659882Y-106605264D01*
X102657722Y-106590703D01*
X102657000Y-106576000D01*
X102657000Y-106276000D01*
X102657722Y-106261297D01*
X102659882Y-106246736D01*
X102663459Y-106232457D01*
X102668418Y-106218597D01*
X102674712Y-106205290D01*
X102682280Y-106192664D01*
X102691048Y-106180841D01*
X102700934Y-106169934D01*
X102711841Y-106160048D01*
X102723664Y-106151280D01*
X102736290Y-106143712D01*
X102749597Y-106137418D01*
X102763457Y-106132459D01*
X102777736Y-106128882D01*
X102792297Y-106126722D01*
X102807000Y-106126000D01*
X104457000Y-106126000D01*
X104471703Y-106126722D01*
G37*
G04 #@! TD.AperFunction*
G04 #@! TA.AperFunction,SMDPad,CuDef*
G36*
X104471703Y-107396722D02*
G01*
X104486264Y-107398882D01*
X104500543Y-107402459D01*
X104514403Y-107407418D01*
X104527710Y-107413712D01*
X104540336Y-107421280D01*
X104552159Y-107430048D01*
X104563066Y-107439934D01*
X104572952Y-107450841D01*
X104581720Y-107462664D01*
X104589288Y-107475290D01*
X104595582Y-107488597D01*
X104600541Y-107502457D01*
X104604118Y-107516736D01*
X104606278Y-107531297D01*
X104607000Y-107546000D01*
X104607000Y-107846000D01*
X104606278Y-107860703D01*
X104604118Y-107875264D01*
X104600541Y-107889543D01*
X104595582Y-107903403D01*
X104589288Y-107916710D01*
X104581720Y-107929336D01*
X104572952Y-107941159D01*
X104563066Y-107952066D01*
X104552159Y-107961952D01*
X104540336Y-107970720D01*
X104527710Y-107978288D01*
X104514403Y-107984582D01*
X104500543Y-107989541D01*
X104486264Y-107993118D01*
X104471703Y-107995278D01*
X104457000Y-107996000D01*
X102807000Y-107996000D01*
X102792297Y-107995278D01*
X102777736Y-107993118D01*
X102763457Y-107989541D01*
X102749597Y-107984582D01*
X102736290Y-107978288D01*
X102723664Y-107970720D01*
X102711841Y-107961952D01*
X102700934Y-107952066D01*
X102691048Y-107941159D01*
X102682280Y-107929336D01*
X102674712Y-107916710D01*
X102668418Y-107903403D01*
X102663459Y-107889543D01*
X102659882Y-107875264D01*
X102657722Y-107860703D01*
X102657000Y-107846000D01*
X102657000Y-107546000D01*
X102657722Y-107531297D01*
X102659882Y-107516736D01*
X102663459Y-107502457D01*
X102668418Y-107488597D01*
X102674712Y-107475290D01*
X102682280Y-107462664D01*
X102691048Y-107450841D01*
X102700934Y-107439934D01*
X102711841Y-107430048D01*
X102723664Y-107421280D01*
X102736290Y-107413712D01*
X102749597Y-107407418D01*
X102763457Y-107402459D01*
X102777736Y-107398882D01*
X102792297Y-107396722D01*
X102807000Y-107396000D01*
X104457000Y-107396000D01*
X104471703Y-107396722D01*
G37*
G04 #@! TD.AperFunction*
G04 #@! TA.AperFunction,SMDPad,CuDef*
G36*
X113758505Y-96436204D02*
G01*
X113782773Y-96439804D01*
X113806572Y-96445765D01*
X113829671Y-96454030D01*
X113851850Y-96464520D01*
X113872893Y-96477132D01*
X113892599Y-96491747D01*
X113910777Y-96508223D01*
X113927253Y-96526401D01*
X113941868Y-96546107D01*
X113954480Y-96567150D01*
X113964970Y-96589329D01*
X113973235Y-96612428D01*
X113979196Y-96636227D01*
X113982796Y-96660495D01*
X113984000Y-96684999D01*
X113984000Y-97335001D01*
X113982796Y-97359505D01*
X113979196Y-97383773D01*
X113973235Y-97407572D01*
X113964970Y-97430671D01*
X113954480Y-97452850D01*
X113941868Y-97473893D01*
X113927253Y-97493599D01*
X113910777Y-97511777D01*
X113892599Y-97528253D01*
X113872893Y-97542868D01*
X113851850Y-97555480D01*
X113829671Y-97565970D01*
X113806572Y-97574235D01*
X113782773Y-97580196D01*
X113758505Y-97583796D01*
X113734001Y-97585000D01*
X112833999Y-97585000D01*
X112809495Y-97583796D01*
X112785227Y-97580196D01*
X112761428Y-97574235D01*
X112738329Y-97565970D01*
X112716150Y-97555480D01*
X112695107Y-97542868D01*
X112675401Y-97528253D01*
X112657223Y-97511777D01*
X112640747Y-97493599D01*
X112626132Y-97473893D01*
X112613520Y-97452850D01*
X112603030Y-97430671D01*
X112594765Y-97407572D01*
X112588804Y-97383773D01*
X112585204Y-97359505D01*
X112584000Y-97335001D01*
X112584000Y-96684999D01*
X112585204Y-96660495D01*
X112588804Y-96636227D01*
X112594765Y-96612428D01*
X112603030Y-96589329D01*
X112613520Y-96567150D01*
X112626132Y-96546107D01*
X112640747Y-96526401D01*
X112657223Y-96508223D01*
X112675401Y-96491747D01*
X112695107Y-96477132D01*
X112716150Y-96464520D01*
X112738329Y-96454030D01*
X112761428Y-96445765D01*
X112785227Y-96439804D01*
X112809495Y-96436204D01*
X112833999Y-96435000D01*
X113734001Y-96435000D01*
X113758505Y-96436204D01*
G37*
G04 #@! TD.AperFunction*
G04 #@! TA.AperFunction,SMDPad,CuDef*
G36*
X113758505Y-98486204D02*
G01*
X113782773Y-98489804D01*
X113806572Y-98495765D01*
X113829671Y-98504030D01*
X113851850Y-98514520D01*
X113872893Y-98527132D01*
X113892599Y-98541747D01*
X113910777Y-98558223D01*
X113927253Y-98576401D01*
X113941868Y-98596107D01*
X113954480Y-98617150D01*
X113964970Y-98639329D01*
X113973235Y-98662428D01*
X113979196Y-98686227D01*
X113982796Y-98710495D01*
X113984000Y-98734999D01*
X113984000Y-99385001D01*
X113982796Y-99409505D01*
X113979196Y-99433773D01*
X113973235Y-99457572D01*
X113964970Y-99480671D01*
X113954480Y-99502850D01*
X113941868Y-99523893D01*
X113927253Y-99543599D01*
X113910777Y-99561777D01*
X113892599Y-99578253D01*
X113872893Y-99592868D01*
X113851850Y-99605480D01*
X113829671Y-99615970D01*
X113806572Y-99624235D01*
X113782773Y-99630196D01*
X113758505Y-99633796D01*
X113734001Y-99635000D01*
X112833999Y-99635000D01*
X112809495Y-99633796D01*
X112785227Y-99630196D01*
X112761428Y-99624235D01*
X112738329Y-99615970D01*
X112716150Y-99605480D01*
X112695107Y-99592868D01*
X112675401Y-99578253D01*
X112657223Y-99561777D01*
X112640747Y-99543599D01*
X112626132Y-99523893D01*
X112613520Y-99502850D01*
X112603030Y-99480671D01*
X112594765Y-99457572D01*
X112588804Y-99433773D01*
X112585204Y-99409505D01*
X112584000Y-99385001D01*
X112584000Y-98734999D01*
X112585204Y-98710495D01*
X112588804Y-98686227D01*
X112594765Y-98662428D01*
X112603030Y-98639329D01*
X112613520Y-98617150D01*
X112626132Y-98596107D01*
X112640747Y-98576401D01*
X112657223Y-98558223D01*
X112675401Y-98541747D01*
X112695107Y-98527132D01*
X112716150Y-98514520D01*
X112738329Y-98504030D01*
X112761428Y-98495765D01*
X112785227Y-98489804D01*
X112809495Y-98486204D01*
X112833999Y-98485000D01*
X113734001Y-98485000D01*
X113758505Y-98486204D01*
G37*
G04 #@! TD.AperFunction*
G04 #@! TA.AperFunction,SMDPad,CuDef*
G36*
X112205442Y-93027174D02*
G01*
X112229103Y-93030684D01*
X112252307Y-93036496D01*
X112274829Y-93044554D01*
X112296453Y-93054782D01*
X112316970Y-93067079D01*
X112336183Y-93081329D01*
X112353907Y-93097393D01*
X112369971Y-93115117D01*
X112384221Y-93134330D01*
X112396518Y-93154847D01*
X112406746Y-93176471D01*
X112414804Y-93198993D01*
X112420616Y-93222197D01*
X112424126Y-93245858D01*
X112425300Y-93269750D01*
X112425300Y-94182250D01*
X112424126Y-94206142D01*
X112420616Y-94229803D01*
X112414804Y-94253007D01*
X112406746Y-94275529D01*
X112396518Y-94297153D01*
X112384221Y-94317670D01*
X112369971Y-94336883D01*
X112353907Y-94354607D01*
X112336183Y-94370671D01*
X112316970Y-94384921D01*
X112296453Y-94397218D01*
X112274829Y-94407446D01*
X112252307Y-94415504D01*
X112229103Y-94421316D01*
X112205442Y-94424826D01*
X112181550Y-94426000D01*
X111694050Y-94426000D01*
X111670158Y-94424826D01*
X111646497Y-94421316D01*
X111623293Y-94415504D01*
X111600771Y-94407446D01*
X111579147Y-94397218D01*
X111558630Y-94384921D01*
X111539417Y-94370671D01*
X111521693Y-94354607D01*
X111505629Y-94336883D01*
X111491379Y-94317670D01*
X111479082Y-94297153D01*
X111468854Y-94275529D01*
X111460796Y-94253007D01*
X111454984Y-94229803D01*
X111451474Y-94206142D01*
X111450300Y-94182250D01*
X111450300Y-93269750D01*
X111451474Y-93245858D01*
X111454984Y-93222197D01*
X111460796Y-93198993D01*
X111468854Y-93176471D01*
X111479082Y-93154847D01*
X111491379Y-93134330D01*
X111505629Y-93115117D01*
X111521693Y-93097393D01*
X111539417Y-93081329D01*
X111558630Y-93067079D01*
X111579147Y-93054782D01*
X111600771Y-93044554D01*
X111623293Y-93036496D01*
X111646497Y-93030684D01*
X111670158Y-93027174D01*
X111694050Y-93026000D01*
X112181550Y-93026000D01*
X112205442Y-93027174D01*
G37*
G04 #@! TD.AperFunction*
G04 #@! TA.AperFunction,SMDPad,CuDef*
G36*
X114080442Y-93027174D02*
G01*
X114104103Y-93030684D01*
X114127307Y-93036496D01*
X114149829Y-93044554D01*
X114171453Y-93054782D01*
X114191970Y-93067079D01*
X114211183Y-93081329D01*
X114228907Y-93097393D01*
X114244971Y-93115117D01*
X114259221Y-93134330D01*
X114271518Y-93154847D01*
X114281746Y-93176471D01*
X114289804Y-93198993D01*
X114295616Y-93222197D01*
X114299126Y-93245858D01*
X114300300Y-93269750D01*
X114300300Y-94182250D01*
X114299126Y-94206142D01*
X114295616Y-94229803D01*
X114289804Y-94253007D01*
X114281746Y-94275529D01*
X114271518Y-94297153D01*
X114259221Y-94317670D01*
X114244971Y-94336883D01*
X114228907Y-94354607D01*
X114211183Y-94370671D01*
X114191970Y-94384921D01*
X114171453Y-94397218D01*
X114149829Y-94407446D01*
X114127307Y-94415504D01*
X114104103Y-94421316D01*
X114080442Y-94424826D01*
X114056550Y-94426000D01*
X113569050Y-94426000D01*
X113545158Y-94424826D01*
X113521497Y-94421316D01*
X113498293Y-94415504D01*
X113475771Y-94407446D01*
X113454147Y-94397218D01*
X113433630Y-94384921D01*
X113414417Y-94370671D01*
X113396693Y-94354607D01*
X113380629Y-94336883D01*
X113366379Y-94317670D01*
X113354082Y-94297153D01*
X113343854Y-94275529D01*
X113335796Y-94253007D01*
X113329984Y-94229803D01*
X113326474Y-94206142D01*
X113325300Y-94182250D01*
X113325300Y-93269750D01*
X113326474Y-93245858D01*
X113329984Y-93222197D01*
X113335796Y-93198993D01*
X113343854Y-93176471D01*
X113354082Y-93154847D01*
X113366379Y-93134330D01*
X113380629Y-93115117D01*
X113396693Y-93097393D01*
X113414417Y-93081329D01*
X113433630Y-93067079D01*
X113454147Y-93054782D01*
X113475771Y-93044554D01*
X113498293Y-93036496D01*
X113521497Y-93030684D01*
X113545158Y-93027174D01*
X113569050Y-93026000D01*
X114056550Y-93026000D01*
X114080442Y-93027174D01*
G37*
G04 #@! TD.AperFunction*
D12*
X103632000Y-118694200D03*
X104749600Y-116382800D03*
X105441375Y-112471402D03*
X100932991Y-104013000D03*
X93192600Y-104597200D03*
X119151400Y-117703600D03*
X113817400Y-101371400D03*
X108712000Y-104444800D03*
X97942400Y-108839000D03*
X96748600Y-107010200D03*
X91731000Y-105410000D03*
X107746800Y-112547400D03*
X96723200Y-101219000D03*
X100787200Y-100990400D03*
X104673400Y-98399600D03*
X102006400Y-100076000D03*
X112166400Y-102209600D03*
X106527600Y-104648000D03*
X106222800Y-107975400D03*
X111480600Y-108534200D03*
X96723200Y-97612200D03*
X101777800Y-110998000D03*
X98933000Y-116001800D03*
D13*
X94510810Y-103886000D02*
X97707000Y-103886000D01*
X93606527Y-98021527D02*
X93606527Y-102981717D01*
X93121000Y-97536000D02*
X93606527Y-98021527D01*
X105664000Y-113127000D02*
X104491000Y-114300000D01*
X105664000Y-111252000D02*
X105664000Y-113127000D01*
X112581500Y-95732500D02*
X113284000Y-96435000D01*
X113284000Y-96435000D02*
X113284000Y-97010000D01*
X109728000Y-95732500D02*
X112581500Y-95732500D01*
X113984000Y-97010000D02*
X113284000Y-97010000D01*
X119830010Y-102856010D02*
X113984000Y-97010000D01*
X119830010Y-105661402D02*
X119830010Y-102856010D01*
X117287412Y-108204000D02*
X119830010Y-105661402D01*
X114808000Y-108204000D02*
X117287412Y-108204000D01*
X100584000Y-118715000D02*
X103611200Y-118715000D01*
X103611200Y-118715000D02*
X103632000Y-118694200D01*
X104749600Y-114558600D02*
X104491000Y-114300000D01*
X104749600Y-116382800D02*
X104749600Y-114558600D01*
X105664000Y-111252000D02*
X105664000Y-112248777D01*
X105664000Y-112248777D02*
X105441375Y-112471402D01*
X97707000Y-103886000D02*
X98682000Y-103886000D01*
X97256990Y-103435990D02*
X97707000Y-103886000D01*
X97256990Y-102394242D02*
X97256990Y-103435990D01*
X97660242Y-101990990D02*
X97256990Y-102394242D01*
X99703758Y-101990990D02*
X97660242Y-101990990D01*
X100932991Y-103220223D02*
X99703758Y-101990990D01*
X100932991Y-104013000D02*
X100932991Y-103220223D01*
X93592599Y-104197201D02*
X93592599Y-103841601D01*
X93592599Y-103841601D02*
X94029505Y-103404695D01*
X93606527Y-102981717D02*
X94029505Y-103404695D01*
X93192600Y-104597200D02*
X93592599Y-104197201D01*
X94029505Y-103404695D02*
X94510810Y-103886000D01*
X114808000Y-108904000D02*
X114808000Y-108204000D01*
X110439599Y-113272401D02*
X114808000Y-108904000D01*
X107209401Y-113272401D02*
X110439599Y-113272401D01*
X105664000Y-111727000D02*
X107209401Y-113272401D01*
X105664000Y-111252000D02*
X105664000Y-111727000D01*
X112423327Y-95574327D02*
X112581500Y-95732500D01*
X112423327Y-94211527D02*
X112423327Y-95574327D01*
X111937800Y-93726000D02*
X112423327Y-94211527D01*
X117220900Y-93835200D02*
X117220900Y-94310200D01*
X117111700Y-93726000D02*
X117220900Y-93835200D01*
X113812800Y-93726000D02*
X117111700Y-93726000D01*
X113984000Y-99060000D02*
X118364000Y-103440000D01*
X118364000Y-103440000D02*
X118364000Y-104266000D01*
X113284000Y-99060000D02*
X113984000Y-99060000D01*
X113284000Y-99060000D02*
X113284000Y-99635000D01*
X113817400Y-99593400D02*
X113284000Y-99060000D01*
X113817400Y-101371400D02*
X113817400Y-99593400D01*
X108153200Y-103886000D02*
X103632000Y-103886000D01*
X108712000Y-104444800D02*
X108153200Y-103886000D01*
X97942400Y-108435600D02*
X98682000Y-107696000D01*
X97942400Y-108839000D02*
X97942400Y-108435600D01*
X98097800Y-107010200D02*
X98682000Y-106426000D01*
X96748600Y-107010200D02*
X98097800Y-107010200D01*
X95148400Y-105410000D02*
X96748600Y-107010200D01*
X91731000Y-105410000D02*
X95148400Y-105410000D01*
X104737010Y-112299660D02*
X103428510Y-113608160D01*
X103428510Y-113608160D02*
X103428510Y-114991840D01*
X99982010Y-102941010D02*
X99982010Y-104830990D01*
X99657000Y-102616000D02*
X99982010Y-102941010D01*
X98682000Y-102616000D02*
X99657000Y-102616000D01*
X107239000Y-110777000D02*
X107239000Y-111252000D01*
X106913990Y-110451990D02*
X107239000Y-110777000D01*
X104737010Y-110934996D02*
X105220016Y-110451990D01*
X105220016Y-110451990D02*
X106913990Y-110451990D01*
X104737010Y-112299660D02*
X104737010Y-110934996D01*
X97707000Y-102616000D02*
X98682000Y-102616000D01*
X102657000Y-105156000D02*
X103632000Y-105156000D01*
X102331990Y-104830990D02*
X102657000Y-105156000D01*
X102331990Y-102941010D02*
X102331990Y-104830990D01*
X102657000Y-102616000D02*
X102331990Y-102941010D01*
X103632000Y-102616000D02*
X102657000Y-102616000D01*
X99888020Y-105156000D02*
X99982010Y-105062010D01*
X98682000Y-105156000D02*
X99888020Y-105156000D01*
X99982010Y-113170360D02*
X99982010Y-105062010D01*
X99982010Y-105062010D02*
X99982010Y-102941010D01*
X102630222Y-107070990D02*
X110920600Y-107070990D01*
X102108000Y-106548768D02*
X102108000Y-103124000D01*
X113304340Y-107070990D02*
X102630222Y-107070990D01*
X113745510Y-107512160D02*
X113304340Y-107070990D01*
X113745510Y-108895840D02*
X113745510Y-107512160D01*
X112413840Y-110227510D02*
X113745510Y-108895840D01*
X103428510Y-114991840D02*
X103428510Y-110227510D01*
X103095340Y-115325010D02*
X103428510Y-114991840D01*
X102630222Y-107070990D02*
X102108000Y-106548768D01*
X102136660Y-115325010D02*
X103095340Y-115325010D01*
X99982010Y-113170360D02*
X102136660Y-115325010D01*
X103428510Y-110227510D02*
X112413840Y-110227510D01*
X99982010Y-102941010D02*
X99982010Y-113170360D01*
X102331990Y-102941010D02*
X102108000Y-103124000D01*
X107239000Y-111252000D02*
X107239000Y-112039600D01*
X107239000Y-112039600D02*
X107746800Y-112547400D01*
X98555000Y-101219000D02*
X98682000Y-101346000D01*
X96723200Y-101219000D02*
X98555000Y-101219000D01*
X99872800Y-100076000D02*
X98682000Y-100076000D01*
X100787200Y-100990400D02*
X99872800Y-100076000D01*
X104673400Y-99034600D02*
X103632000Y-100076000D01*
X104673400Y-98399600D02*
X104673400Y-99034600D01*
X103632000Y-101346000D02*
X102657000Y-101346000D01*
X102006400Y-100695400D02*
X102006400Y-100076000D01*
X102657000Y-101346000D02*
X102006400Y-100695400D01*
X109728000Y-97307500D02*
X109728000Y-99771200D01*
X109728000Y-99771200D02*
X112166400Y-102209600D01*
X104749600Y-106426000D02*
X103632000Y-106426000D01*
X106527600Y-104648000D02*
X104749600Y-106426000D01*
X103911400Y-107975400D02*
X103632000Y-107696000D01*
X106222800Y-107975400D02*
X103911400Y-107975400D01*
X112602800Y-108534200D02*
X112933000Y-108204000D01*
X111480600Y-108534200D02*
X112602800Y-108534200D01*
X118795900Y-97104100D02*
X118364000Y-97536000D01*
X118795900Y-94310200D02*
X118795900Y-97104100D01*
X95072200Y-97612200D02*
X94996000Y-97536000D01*
X96723200Y-97612200D02*
X95072200Y-97612200D01*
X101777800Y-113461800D02*
X102616000Y-114300000D01*
X101777800Y-110998000D02*
X101777800Y-113461800D01*
X99745800Y-116001800D02*
X100584000Y-116840000D01*
X98933000Y-116001800D02*
X99745800Y-116001800D01*
D14*
G36*
X110860798Y-92781820D02*
G01*
X110824488Y-92901518D01*
X110812228Y-93026000D01*
X110815300Y-93440250D01*
X110974050Y-93599000D01*
X111810800Y-93599000D01*
X111810800Y-93579000D01*
X112064800Y-93579000D01*
X112064800Y-93599000D01*
X112084800Y-93599000D01*
X112084800Y-93853000D01*
X112064800Y-93853000D01*
X112064800Y-94902250D01*
X112223550Y-95061000D01*
X112425300Y-95064072D01*
X112549782Y-95051812D01*
X112669480Y-95015502D01*
X112779794Y-94956537D01*
X112876485Y-94877185D01*
X112940292Y-94799436D01*
X112945508Y-94805792D01*
X113079136Y-94915458D01*
X113231591Y-94996947D01*
X113397015Y-95047128D01*
X113569050Y-95064072D01*
X114056550Y-95064072D01*
X114228585Y-95047128D01*
X114394009Y-94996947D01*
X114546464Y-94915458D01*
X114680092Y-94805792D01*
X114789758Y-94672164D01*
X114871247Y-94519709D01*
X114881473Y-94486000D01*
X116145328Y-94486000D01*
X116145328Y-94566450D01*
X116161792Y-94733608D01*
X116210550Y-94894342D01*
X116289729Y-95042475D01*
X116396285Y-95172315D01*
X116526125Y-95278871D01*
X116674258Y-95358050D01*
X116834992Y-95406808D01*
X117002150Y-95423272D01*
X117439650Y-95423272D01*
X117606808Y-95406808D01*
X117767542Y-95358050D01*
X117915675Y-95278871D01*
X118008400Y-95202774D01*
X118035900Y-95225343D01*
X118035901Y-95817928D01*
X117804000Y-95817928D01*
X117679518Y-95830188D01*
X117559820Y-95866498D01*
X117449506Y-95925463D01*
X117352815Y-96004815D01*
X117273463Y-96101506D01*
X117214498Y-96211820D01*
X117178188Y-96331518D01*
X117165928Y-96456000D01*
X117165928Y-98616000D01*
X117178188Y-98740482D01*
X117214498Y-98860180D01*
X117273463Y-98970494D01*
X117352815Y-99067185D01*
X117449506Y-99146537D01*
X117559820Y-99205502D01*
X117679518Y-99241812D01*
X117804000Y-99254072D01*
X118924000Y-99254072D01*
X119048482Y-99241812D01*
X119168180Y-99205502D01*
X119278494Y-99146537D01*
X119375185Y-99067185D01*
X119454537Y-98970494D01*
X119513502Y-98860180D01*
X119549812Y-98740482D01*
X119562072Y-98616000D01*
X119562072Y-96456000D01*
X119555900Y-96393333D01*
X119555900Y-95225343D01*
X119620515Y-95172315D01*
X119727071Y-95042475D01*
X119806250Y-94894342D01*
X119855008Y-94733608D01*
X119871472Y-94566450D01*
X119871472Y-94053950D01*
X119855008Y-93886792D01*
X119806250Y-93726058D01*
X119727071Y-93577925D01*
X119620515Y-93448085D01*
X119490675Y-93341529D01*
X119342542Y-93262350D01*
X119181808Y-93213592D01*
X119014650Y-93197128D01*
X118577150Y-93197128D01*
X118409992Y-93213592D01*
X118249258Y-93262350D01*
X118101125Y-93341529D01*
X118008400Y-93417626D01*
X117915675Y-93341529D01*
X117767542Y-93262350D01*
X117703391Y-93242890D01*
X117675504Y-93215003D01*
X117651701Y-93185999D01*
X117535976Y-93091026D01*
X117403947Y-93020454D01*
X117260686Y-92976997D01*
X117149033Y-92966000D01*
X117149022Y-92966000D01*
X117111700Y-92962324D01*
X117074378Y-92966000D01*
X114881473Y-92966000D01*
X114871247Y-92932291D01*
X114789758Y-92779836D01*
X114752962Y-92735000D01*
X120625000Y-92735000D01*
X120625001Y-119355000D01*
X101901313Y-119355000D01*
X101909812Y-119326982D01*
X101922072Y-119202500D01*
X101919000Y-119000750D01*
X101760250Y-118842000D01*
X100711000Y-118842000D01*
X100711000Y-118862000D01*
X100457000Y-118862000D01*
X100457000Y-118842000D01*
X99407750Y-118842000D01*
X99249000Y-119000750D01*
X99245928Y-119202500D01*
X99258188Y-119326982D01*
X99266687Y-119355000D01*
X91465000Y-119355000D01*
X91465000Y-115899861D01*
X97898000Y-115899861D01*
X97898000Y-116103739D01*
X97937774Y-116303698D01*
X98015795Y-116492056D01*
X98129063Y-116661574D01*
X98273226Y-116805737D01*
X98442744Y-116919005D01*
X98631102Y-116997026D01*
X98831061Y-117036800D01*
X99034939Y-117036800D01*
X99234898Y-116997026D01*
X99245928Y-116992457D01*
X99245928Y-117083750D01*
X99262872Y-117255785D01*
X99313053Y-117421209D01*
X99394542Y-117573664D01*
X99504208Y-117707292D01*
X99510564Y-117712508D01*
X99432815Y-117776315D01*
X99353463Y-117873006D01*
X99294498Y-117983320D01*
X99258188Y-118103018D01*
X99245928Y-118227500D01*
X99249000Y-118429250D01*
X99407750Y-118588000D01*
X100457000Y-118588000D01*
X100457000Y-118568000D01*
X100711000Y-118568000D01*
X100711000Y-118588000D01*
X101760250Y-118588000D01*
X101919000Y-118429250D01*
X101922072Y-118227500D01*
X101909812Y-118103018D01*
X101873502Y-117983320D01*
X101814537Y-117873006D01*
X101735185Y-117776315D01*
X101657436Y-117712508D01*
X101663792Y-117707292D01*
X101773458Y-117573664D01*
X101854947Y-117421209D01*
X101905128Y-117255785D01*
X101922072Y-117083750D01*
X101922072Y-116596250D01*
X101905128Y-116424215D01*
X101854947Y-116258791D01*
X101773458Y-116106336D01*
X101663792Y-115972708D01*
X101530164Y-115863042D01*
X101377709Y-115781553D01*
X101212285Y-115731372D01*
X101040250Y-115714428D01*
X100533229Y-115714428D01*
X100309603Y-115490802D01*
X100285801Y-115461799D01*
X100170076Y-115366826D01*
X100038047Y-115296254D01*
X99894786Y-115252797D01*
X99783133Y-115241800D01*
X99783122Y-115241800D01*
X99745800Y-115238124D01*
X99708478Y-115241800D01*
X99636711Y-115241800D01*
X99592774Y-115197863D01*
X99423256Y-115084595D01*
X99234898Y-115006574D01*
X99034939Y-114966800D01*
X98831061Y-114966800D01*
X98631102Y-115006574D01*
X98442744Y-115084595D01*
X98273226Y-115197863D01*
X98129063Y-115342026D01*
X98015795Y-115511544D01*
X97937774Y-115699902D01*
X97898000Y-115899861D01*
X91465000Y-115899861D01*
X91465000Y-106412366D01*
X91629061Y-106445000D01*
X91832939Y-106445000D01*
X92032898Y-106405226D01*
X92221256Y-106327205D01*
X92390774Y-106213937D01*
X92434711Y-106170000D01*
X94833599Y-106170000D01*
X95713600Y-107050002D01*
X95713600Y-107112139D01*
X95753374Y-107312098D01*
X95831395Y-107500456D01*
X95944663Y-107669974D01*
X96088826Y-107814137D01*
X96258344Y-107927405D01*
X96446702Y-108005426D01*
X96646661Y-108045200D01*
X96850539Y-108045200D01*
X97050498Y-108005426D01*
X97083293Y-107991842D01*
X97084071Y-107999745D01*
X97128916Y-108147582D01*
X97143264Y-108174425D01*
X97138463Y-108179226D01*
X97025195Y-108348744D01*
X96947174Y-108537102D01*
X96907400Y-108737061D01*
X96907400Y-108940939D01*
X96947174Y-109140898D01*
X97025195Y-109329256D01*
X97138463Y-109498774D01*
X97282626Y-109642937D01*
X97452144Y-109756205D01*
X97640502Y-109834226D01*
X97840461Y-109874000D01*
X98044339Y-109874000D01*
X98244298Y-109834226D01*
X98432656Y-109756205D01*
X98602174Y-109642937D01*
X98746337Y-109498774D01*
X98859605Y-109329256D01*
X98937626Y-109140898D01*
X98977400Y-108940939D01*
X98977400Y-108737061D01*
X98956914Y-108634072D01*
X99222011Y-108634072D01*
X99222010Y-113133038D01*
X99218334Y-113170360D01*
X99222010Y-113207682D01*
X99222010Y-113207692D01*
X99233007Y-113319345D01*
X99275423Y-113459174D01*
X99276464Y-113462606D01*
X99347036Y-113594636D01*
X99386881Y-113643186D01*
X99442009Y-113710361D01*
X99471013Y-113734164D01*
X101572861Y-115836013D01*
X101596659Y-115865011D01*
X101712384Y-115959984D01*
X101844413Y-116030556D01*
X101987674Y-116074013D01*
X102099327Y-116085010D01*
X102099336Y-116085010D01*
X102136659Y-116088686D01*
X102173982Y-116085010D01*
X103058018Y-116085010D01*
X103095340Y-116088686D01*
X103132662Y-116085010D01*
X103132673Y-116085010D01*
X103244326Y-116074013D01*
X103387587Y-116030556D01*
X103519616Y-115959984D01*
X103635341Y-115865011D01*
X103659144Y-115836007D01*
X103871592Y-115623559D01*
X103879018Y-115625812D01*
X104003500Y-115638072D01*
X104205250Y-115635000D01*
X104364000Y-115476250D01*
X104364000Y-114427000D01*
X104618000Y-114427000D01*
X104618000Y-115476250D01*
X104776750Y-115635000D01*
X104978500Y-115638072D01*
X105102982Y-115625812D01*
X105222680Y-115589502D01*
X105332994Y-115530537D01*
X105429685Y-115451185D01*
X105509037Y-115354494D01*
X105568002Y-115244180D01*
X105604312Y-115124482D01*
X105616572Y-115000000D01*
X105613500Y-114585750D01*
X105454750Y-114427000D01*
X104618000Y-114427000D01*
X104364000Y-114427000D01*
X104344000Y-114427000D01*
X104344000Y-114173000D01*
X104364000Y-114173000D01*
X104364000Y-114153000D01*
X104618000Y-114153000D01*
X104618000Y-114173000D01*
X105454750Y-114173000D01*
X105613500Y-114014250D01*
X105616572Y-113600000D01*
X105604312Y-113475518D01*
X105568002Y-113355820D01*
X105509037Y-113245506D01*
X105429685Y-113148815D01*
X105332994Y-113069463D01*
X105222680Y-113010498D01*
X105129301Y-112982172D01*
X105248019Y-112863454D01*
X105277011Y-112839661D01*
X105300805Y-112810668D01*
X105300809Y-112810664D01*
X105371983Y-112723937D01*
X105371984Y-112723936D01*
X105442556Y-112591907D01*
X105486013Y-112448646D01*
X105497010Y-112336993D01*
X105497010Y-112336984D01*
X105500686Y-112299661D01*
X105497010Y-112262338D01*
X105497010Y-112243240D01*
X105537000Y-112203250D01*
X105537000Y-111379000D01*
X105517000Y-111379000D01*
X105517000Y-111229807D01*
X105534817Y-111211990D01*
X105811000Y-111211990D01*
X105811000Y-111379000D01*
X105791000Y-111379000D01*
X105791000Y-112203250D01*
X105949750Y-112362000D01*
X106101500Y-112365072D01*
X106225982Y-112352812D01*
X106345680Y-112316502D01*
X106455994Y-112257537D01*
X106499966Y-112221450D01*
X106518317Y-112281944D01*
X106533454Y-112331846D01*
X106604026Y-112463876D01*
X106672573Y-112547400D01*
X106699000Y-112579601D01*
X106711800Y-112590106D01*
X106711800Y-112649339D01*
X106751574Y-112849298D01*
X106829595Y-113037656D01*
X106942863Y-113207174D01*
X107087026Y-113351337D01*
X107256544Y-113464605D01*
X107444902Y-113542626D01*
X107644861Y-113582400D01*
X107848739Y-113582400D01*
X108048698Y-113542626D01*
X108237056Y-113464605D01*
X108406574Y-113351337D01*
X108550737Y-113207174D01*
X108664005Y-113037656D01*
X108742026Y-112849298D01*
X108781800Y-112649339D01*
X108781800Y-112445461D01*
X108742026Y-112245502D01*
X108664005Y-112057144D01*
X108550737Y-111887626D01*
X108406574Y-111743463D01*
X108298516Y-111671261D01*
X108314572Y-111508250D01*
X108314572Y-110995750D01*
X108313760Y-110987510D01*
X112376518Y-110987510D01*
X112413840Y-110991186D01*
X112451162Y-110987510D01*
X112451173Y-110987510D01*
X112562826Y-110976513D01*
X112706087Y-110933056D01*
X112838116Y-110862484D01*
X112953841Y-110767511D01*
X112977644Y-110738507D01*
X114188592Y-109527559D01*
X114196018Y-109529812D01*
X114320500Y-109542072D01*
X114522250Y-109539000D01*
X114681000Y-109380250D01*
X114681000Y-108331000D01*
X114935000Y-108331000D01*
X114935000Y-109380250D01*
X115093750Y-109539000D01*
X115295500Y-109542072D01*
X115419982Y-109529812D01*
X115539680Y-109493502D01*
X115649994Y-109434537D01*
X115746685Y-109355185D01*
X115826037Y-109258494D01*
X115885002Y-109148180D01*
X115921312Y-109028482D01*
X115933572Y-108904000D01*
X115930500Y-108489750D01*
X115771750Y-108331000D01*
X114935000Y-108331000D01*
X114681000Y-108331000D01*
X114661000Y-108331000D01*
X114661000Y-108077000D01*
X114681000Y-108077000D01*
X114681000Y-107027750D01*
X114935000Y-107027750D01*
X114935000Y-108077000D01*
X115771750Y-108077000D01*
X115930500Y-107918250D01*
X115933572Y-107504000D01*
X115921312Y-107379518D01*
X115885002Y-107259820D01*
X115826037Y-107149506D01*
X115746685Y-107052815D01*
X115649994Y-106973463D01*
X115539680Y-106914498D01*
X115419982Y-106878188D01*
X115295500Y-106865928D01*
X115093750Y-106869000D01*
X114935000Y-107027750D01*
X114681000Y-107027750D01*
X114522250Y-106869000D01*
X114320500Y-106865928D01*
X114196018Y-106878188D01*
X114188592Y-106880441D01*
X113868144Y-106559993D01*
X113844341Y-106530989D01*
X113728616Y-106436016D01*
X113596587Y-106365444D01*
X113453326Y-106321987D01*
X113341673Y-106310990D01*
X113341662Y-106310990D01*
X113304340Y-106307314D01*
X113267018Y-106310990D01*
X105939411Y-106310990D01*
X106567402Y-105683000D01*
X106629539Y-105683000D01*
X106829498Y-105643226D01*
X107017856Y-105565205D01*
X107187374Y-105451937D01*
X107331537Y-105307774D01*
X107444805Y-105138256D01*
X107522826Y-104949898D01*
X107562600Y-104749939D01*
X107562600Y-104646000D01*
X107696744Y-104646000D01*
X107716774Y-104746698D01*
X107794795Y-104935056D01*
X107908063Y-105104574D01*
X108052226Y-105248737D01*
X108221744Y-105362005D01*
X108410102Y-105440026D01*
X108610061Y-105479800D01*
X108813939Y-105479800D01*
X109013898Y-105440026D01*
X109202256Y-105362005D01*
X109371774Y-105248737D01*
X109515937Y-105104574D01*
X109629205Y-104935056D01*
X109707226Y-104746698D01*
X109747000Y-104546739D01*
X109747000Y-104342861D01*
X109707226Y-104142902D01*
X109629205Y-103954544D01*
X109515937Y-103785026D01*
X109371774Y-103640863D01*
X109202256Y-103527595D01*
X109013898Y-103449574D01*
X108813939Y-103409800D01*
X108751801Y-103409800D01*
X108717003Y-103375002D01*
X108693201Y-103345999D01*
X108577476Y-103251026D01*
X108445447Y-103180454D01*
X108302186Y-103136997D01*
X108190533Y-103126000D01*
X108190522Y-103126000D01*
X108153200Y-103122324D01*
X108115878Y-103126000D01*
X105153859Y-103126000D01*
X105185084Y-103067582D01*
X105229929Y-102919745D01*
X105245072Y-102766000D01*
X105245072Y-102466000D01*
X105229929Y-102312255D01*
X105185084Y-102164418D01*
X105112258Y-102028171D01*
X105073546Y-101981000D01*
X105112258Y-101933829D01*
X105185084Y-101797582D01*
X105229929Y-101649745D01*
X105245072Y-101496000D01*
X105245072Y-101196000D01*
X105229929Y-101042255D01*
X105185084Y-100894418D01*
X105112258Y-100758171D01*
X105073546Y-100711000D01*
X105112258Y-100663829D01*
X105185084Y-100527582D01*
X105229929Y-100379745D01*
X105245072Y-100226000D01*
X105245072Y-99926000D01*
X105229929Y-99772255D01*
X105185084Y-99624418D01*
X105175784Y-99607018D01*
X105184403Y-99598399D01*
X105213401Y-99574601D01*
X105245081Y-99535999D01*
X105308374Y-99458877D01*
X105378946Y-99326847D01*
X105395965Y-99270742D01*
X105422403Y-99183586D01*
X105429972Y-99106739D01*
X105477337Y-99059374D01*
X105590605Y-98889856D01*
X105668626Y-98701498D01*
X105708400Y-98501539D01*
X105708400Y-98297661D01*
X105668626Y-98097702D01*
X105590605Y-97909344D01*
X105477337Y-97739826D01*
X105333174Y-97595663D01*
X105163656Y-97482395D01*
X104975298Y-97404374D01*
X104775339Y-97364600D01*
X104571461Y-97364600D01*
X104371502Y-97404374D01*
X104183144Y-97482395D01*
X104013626Y-97595663D01*
X103869463Y-97739826D01*
X103756195Y-97909344D01*
X103678174Y-98097702D01*
X103638400Y-98297661D01*
X103638400Y-98501539D01*
X103678174Y-98701498D01*
X103752431Y-98880768D01*
X103495271Y-99137928D01*
X102807000Y-99137928D01*
X102653255Y-99153071D01*
X102539660Y-99187529D01*
X102496656Y-99158795D01*
X102308298Y-99080774D01*
X102108339Y-99041000D01*
X101904461Y-99041000D01*
X101704502Y-99080774D01*
X101516144Y-99158795D01*
X101346626Y-99272063D01*
X101202463Y-99416226D01*
X101089195Y-99585744D01*
X101011174Y-99774102D01*
X100971840Y-99971850D01*
X100889139Y-99955400D01*
X100827001Y-99955400D01*
X100436603Y-99565002D01*
X100412801Y-99535999D01*
X100297076Y-99441026D01*
X100165047Y-99370454D01*
X100021786Y-99326997D01*
X100012229Y-99326056D01*
X99944829Y-99270742D01*
X99808582Y-99197916D01*
X99660745Y-99153071D01*
X99507000Y-99137928D01*
X97857000Y-99137928D01*
X97703255Y-99153071D01*
X97555418Y-99197916D01*
X97419171Y-99270742D01*
X97299749Y-99368749D01*
X97201742Y-99488171D01*
X97128916Y-99624418D01*
X97084071Y-99772255D01*
X97068928Y-99926000D01*
X97068928Y-100226000D01*
X97070564Y-100242607D01*
X97025098Y-100223774D01*
X96825139Y-100184000D01*
X96621261Y-100184000D01*
X96421302Y-100223774D01*
X96232944Y-100301795D01*
X96063426Y-100415063D01*
X95919263Y-100559226D01*
X95805995Y-100728744D01*
X95727974Y-100917102D01*
X95688200Y-101117061D01*
X95688200Y-101320939D01*
X95727974Y-101520898D01*
X95805995Y-101709256D01*
X95919263Y-101878774D01*
X96063426Y-102022937D01*
X96232944Y-102136205D01*
X96421302Y-102214226D01*
X96621261Y-102254000D01*
X96825139Y-102254000D01*
X97025098Y-102214226D01*
X97069923Y-102195659D01*
X97001454Y-102323753D01*
X96957997Y-102467014D01*
X96943323Y-102616000D01*
X96957997Y-102764986D01*
X97001454Y-102908247D01*
X97072026Y-103040276D01*
X97166999Y-103156001D01*
X97183350Y-103169420D01*
X97200730Y-103201936D01*
X97176463Y-103231506D01*
X97117498Y-103341820D01*
X97081188Y-103461518D01*
X97068928Y-103586000D01*
X97072000Y-103600250D01*
X97230750Y-103759000D01*
X98555000Y-103759000D01*
X98555000Y-103739000D01*
X98809000Y-103739000D01*
X98809000Y-103759000D01*
X98829000Y-103759000D01*
X98829000Y-104013000D01*
X98809000Y-104013000D01*
X98809000Y-104033000D01*
X98555000Y-104033000D01*
X98555000Y-104013000D01*
X97230750Y-104013000D01*
X97072000Y-104171750D01*
X97068928Y-104186000D01*
X97081188Y-104310482D01*
X97117498Y-104430180D01*
X97176463Y-104540494D01*
X97200730Y-104570064D01*
X97128916Y-104704418D01*
X97084071Y-104852255D01*
X97068928Y-105006000D01*
X97068928Y-105306000D01*
X97084071Y-105459745D01*
X97128916Y-105607582D01*
X97201742Y-105743829D01*
X97240454Y-105791000D01*
X97201742Y-105838171D01*
X97128916Y-105974418D01*
X97109234Y-106039303D01*
X97050498Y-106014974D01*
X96850539Y-105975200D01*
X96788402Y-105975200D01*
X95712204Y-104899003D01*
X95688401Y-104869999D01*
X95572676Y-104775026D01*
X95440647Y-104704454D01*
X95297386Y-104660997D01*
X95185733Y-104650000D01*
X95185722Y-104650000D01*
X95148400Y-104646324D01*
X95111078Y-104650000D01*
X92434711Y-104650000D01*
X92390774Y-104606063D01*
X92221256Y-104492795D01*
X92032898Y-104414774D01*
X91832939Y-104375000D01*
X91629061Y-104375000D01*
X91465000Y-104407634D01*
X91465000Y-98236000D01*
X91995428Y-98236000D01*
X92007688Y-98360482D01*
X92043998Y-98480180D01*
X92102963Y-98590494D01*
X92182315Y-98687185D01*
X92279006Y-98766537D01*
X92389320Y-98825502D01*
X92509018Y-98861812D01*
X92633500Y-98874072D01*
X92835250Y-98871000D01*
X92994000Y-98712250D01*
X92994000Y-97663000D01*
X92157250Y-97663000D01*
X91998500Y-97821750D01*
X91995428Y-98236000D01*
X91465000Y-98236000D01*
X91465000Y-96836000D01*
X91995428Y-96836000D01*
X91998500Y-97250250D01*
X92157250Y-97409000D01*
X92994000Y-97409000D01*
X92994000Y-96359750D01*
X93248000Y-96359750D01*
X93248000Y-97409000D01*
X93268000Y-97409000D01*
X93268000Y-97663000D01*
X93248000Y-97663000D01*
X93248000Y-98712250D01*
X93406750Y-98871000D01*
X93608500Y-98874072D01*
X93732982Y-98861812D01*
X93852680Y-98825502D01*
X93962994Y-98766537D01*
X94059685Y-98687185D01*
X94123492Y-98609436D01*
X94128708Y-98615792D01*
X94262336Y-98725458D01*
X94414791Y-98806947D01*
X94580215Y-98857128D01*
X94752250Y-98874072D01*
X95239750Y-98874072D01*
X95411785Y-98857128D01*
X95577209Y-98806947D01*
X95729664Y-98725458D01*
X95863292Y-98615792D01*
X95972958Y-98482164D01*
X96027469Y-98380180D01*
X96063426Y-98416137D01*
X96232944Y-98529405D01*
X96421302Y-98607426D01*
X96621261Y-98647200D01*
X96825139Y-98647200D01*
X97025098Y-98607426D01*
X97213456Y-98529405D01*
X97382974Y-98416137D01*
X97527137Y-98271974D01*
X97640405Y-98102456D01*
X97718426Y-97914098D01*
X97758200Y-97714139D01*
X97758200Y-97510261D01*
X97718426Y-97310302D01*
X97640405Y-97121944D01*
X97527137Y-96952426D01*
X97382974Y-96808263D01*
X97213456Y-96694995D01*
X97025098Y-96616974D01*
X96825139Y-96577200D01*
X96621261Y-96577200D01*
X96421302Y-96616974D01*
X96232944Y-96694995D01*
X96072600Y-96802133D01*
X96054447Y-96742291D01*
X95972958Y-96589836D01*
X95863292Y-96456208D01*
X95729664Y-96346542D01*
X95577209Y-96265053D01*
X95411785Y-96214872D01*
X95239750Y-96197928D01*
X94752250Y-96197928D01*
X94580215Y-96214872D01*
X94414791Y-96265053D01*
X94262336Y-96346542D01*
X94128708Y-96456208D01*
X94123492Y-96462564D01*
X94059685Y-96384815D01*
X93962994Y-96305463D01*
X93852680Y-96246498D01*
X93732982Y-96210188D01*
X93608500Y-96197928D01*
X93406750Y-96201000D01*
X93248000Y-96359750D01*
X92994000Y-96359750D01*
X92835250Y-96201000D01*
X92633500Y-96197928D01*
X92509018Y-96210188D01*
X92389320Y-96246498D01*
X92279006Y-96305463D01*
X92182315Y-96384815D01*
X92102963Y-96481506D01*
X92043998Y-96591820D01*
X92007688Y-96711518D01*
X91995428Y-96836000D01*
X91465000Y-96836000D01*
X91465000Y-96170000D01*
X108614928Y-96170000D01*
X108627188Y-96294482D01*
X108663498Y-96414180D01*
X108722463Y-96524494D01*
X108777100Y-96591070D01*
X108759329Y-96612725D01*
X108680150Y-96760858D01*
X108631392Y-96921592D01*
X108614928Y-97088750D01*
X108614928Y-97526250D01*
X108631392Y-97693408D01*
X108680150Y-97854142D01*
X108759329Y-98002275D01*
X108865885Y-98132115D01*
X108968000Y-98215918D01*
X108968001Y-99733868D01*
X108964324Y-99771200D01*
X108978998Y-99920185D01*
X109022454Y-100063446D01*
X109093026Y-100195476D01*
X109156708Y-100273072D01*
X109188000Y-100311201D01*
X109216998Y-100334999D01*
X111131400Y-102249402D01*
X111131400Y-102311539D01*
X111171174Y-102511498D01*
X111249195Y-102699856D01*
X111362463Y-102869374D01*
X111506626Y-103013537D01*
X111676144Y-103126805D01*
X111864502Y-103204826D01*
X112064461Y-103244600D01*
X112268339Y-103244600D01*
X112468298Y-103204826D01*
X112656656Y-103126805D01*
X112826174Y-103013537D01*
X112970337Y-102869374D01*
X113083605Y-102699856D01*
X113161626Y-102511498D01*
X113201400Y-102311539D01*
X113201400Y-102204586D01*
X113327144Y-102288605D01*
X113515502Y-102366626D01*
X113715461Y-102406400D01*
X113919339Y-102406400D01*
X114119298Y-102366626D01*
X114307656Y-102288605D01*
X114477174Y-102175337D01*
X114621337Y-102031174D01*
X114734605Y-101861656D01*
X114812626Y-101673298D01*
X114852400Y-101473339D01*
X114852400Y-101269461D01*
X114812626Y-101069502D01*
X114737619Y-100888421D01*
X117165928Y-103316731D01*
X117165928Y-105346000D01*
X117178188Y-105470482D01*
X117214498Y-105590180D01*
X117273463Y-105700494D01*
X117352815Y-105797185D01*
X117449506Y-105876537D01*
X117559820Y-105935502D01*
X117679518Y-105971812D01*
X117804000Y-105984072D01*
X118924000Y-105984072D01*
X119048482Y-105971812D01*
X119168180Y-105935502D01*
X119278494Y-105876537D01*
X119375185Y-105797185D01*
X119454537Y-105700494D01*
X119513502Y-105590180D01*
X119549812Y-105470482D01*
X119562072Y-105346000D01*
X119562072Y-103186000D01*
X119549812Y-103061518D01*
X119513502Y-102941820D01*
X119454537Y-102831506D01*
X119375185Y-102734815D01*
X119278494Y-102655463D01*
X119168180Y-102596498D01*
X119048482Y-102560188D01*
X118924000Y-102547928D01*
X118546731Y-102547928D01*
X114609866Y-98611064D01*
X114605008Y-98561745D01*
X114554472Y-98395149D01*
X114472405Y-98241613D01*
X114361962Y-98107038D01*
X114355406Y-98101658D01*
X114435185Y-98036185D01*
X114514537Y-97939494D01*
X114573502Y-97829180D01*
X114609812Y-97709482D01*
X114622072Y-97585000D01*
X114619000Y-97295750D01*
X114460250Y-97137000D01*
X113411000Y-97137000D01*
X113411000Y-97157000D01*
X113157000Y-97157000D01*
X113157000Y-97137000D01*
X112107750Y-97137000D01*
X111949000Y-97295750D01*
X111945928Y-97585000D01*
X111958188Y-97709482D01*
X111994498Y-97829180D01*
X112053463Y-97939494D01*
X112132815Y-98036185D01*
X112212594Y-98101658D01*
X112206038Y-98107038D01*
X112095595Y-98241613D01*
X112013528Y-98395149D01*
X111962992Y-98561745D01*
X111945928Y-98734999D01*
X111945928Y-99385001D01*
X111962992Y-99558255D01*
X112013528Y-99724851D01*
X112095595Y-99878387D01*
X112206038Y-100012962D01*
X112340613Y-100123405D01*
X112494149Y-100205472D01*
X112660745Y-100256008D01*
X112833999Y-100273072D01*
X112865521Y-100273072D01*
X112991754Y-100340546D01*
X113057401Y-100360459D01*
X113057400Y-100667689D01*
X113013463Y-100711626D01*
X112900195Y-100881144D01*
X112822174Y-101069502D01*
X112782400Y-101269461D01*
X112782400Y-101376414D01*
X112656656Y-101292395D01*
X112468298Y-101214374D01*
X112268339Y-101174600D01*
X112206202Y-101174600D01*
X110488000Y-99456399D01*
X110488000Y-98215918D01*
X110590115Y-98132115D01*
X110696671Y-98002275D01*
X110775850Y-97854142D01*
X110824608Y-97693408D01*
X110841072Y-97526250D01*
X110841072Y-97088750D01*
X110824608Y-96921592D01*
X110775850Y-96760858D01*
X110696671Y-96612725D01*
X110678900Y-96591070D01*
X110733537Y-96524494D01*
X110781373Y-96435000D01*
X111945928Y-96435000D01*
X111949000Y-96724250D01*
X112107750Y-96883000D01*
X113157000Y-96883000D01*
X113157000Y-95958750D01*
X113411000Y-95958750D01*
X113411000Y-96883000D01*
X114460250Y-96883000D01*
X114619000Y-96724250D01*
X114622072Y-96435000D01*
X114609812Y-96310518D01*
X114573502Y-96190820D01*
X114514537Y-96080506D01*
X114435185Y-95983815D01*
X114338494Y-95904463D01*
X114228180Y-95845498D01*
X114108482Y-95809188D01*
X113984000Y-95796928D01*
X113569750Y-95800000D01*
X113411000Y-95958750D01*
X113157000Y-95958750D01*
X112998250Y-95800000D01*
X112584000Y-95796928D01*
X112459518Y-95809188D01*
X112339820Y-95845498D01*
X112229506Y-95904463D01*
X112132815Y-95983815D01*
X112053463Y-96080506D01*
X111994498Y-96190820D01*
X111958188Y-96310518D01*
X111945928Y-96435000D01*
X110781373Y-96435000D01*
X110792502Y-96414180D01*
X110828812Y-96294482D01*
X110841072Y-96170000D01*
X110838000Y-96018250D01*
X110679250Y-95859500D01*
X109855000Y-95859500D01*
X109855000Y-95879500D01*
X109601000Y-95879500D01*
X109601000Y-95859500D01*
X108776750Y-95859500D01*
X108618000Y-96018250D01*
X108614928Y-96170000D01*
X91465000Y-96170000D01*
X91465000Y-95295000D01*
X108614928Y-95295000D01*
X108618000Y-95446750D01*
X108776750Y-95605500D01*
X109601000Y-95605500D01*
X109601000Y-94818750D01*
X109855000Y-94818750D01*
X109855000Y-95605500D01*
X110679250Y-95605500D01*
X110838000Y-95446750D01*
X110841072Y-95295000D01*
X110828812Y-95170518D01*
X110792502Y-95050820D01*
X110733537Y-94940506D01*
X110654185Y-94843815D01*
X110557494Y-94764463D01*
X110447180Y-94705498D01*
X110327482Y-94669188D01*
X110203000Y-94656928D01*
X110013750Y-94660000D01*
X109855000Y-94818750D01*
X109601000Y-94818750D01*
X109442250Y-94660000D01*
X109253000Y-94656928D01*
X109128518Y-94669188D01*
X109008820Y-94705498D01*
X108898506Y-94764463D01*
X108801815Y-94843815D01*
X108722463Y-94940506D01*
X108663498Y-95050820D01*
X108627188Y-95170518D01*
X108614928Y-95295000D01*
X91465000Y-95295000D01*
X91465000Y-94426000D01*
X110812228Y-94426000D01*
X110824488Y-94550482D01*
X110860798Y-94670180D01*
X110919763Y-94780494D01*
X110999115Y-94877185D01*
X111095806Y-94956537D01*
X111206120Y-95015502D01*
X111325818Y-95051812D01*
X111450300Y-95064072D01*
X111652050Y-95061000D01*
X111810800Y-94902250D01*
X111810800Y-93853000D01*
X110974050Y-93853000D01*
X110815300Y-94011750D01*
X110812228Y-94426000D01*
X91465000Y-94426000D01*
X91465000Y-92735000D01*
X110885824Y-92735000D01*
X110860798Y-92781820D01*
G37*
X110860798Y-92781820D02*
X110824488Y-92901518D01*
X110812228Y-93026000D01*
X110815300Y-93440250D01*
X110974050Y-93599000D01*
X111810800Y-93599000D01*
X111810800Y-93579000D01*
X112064800Y-93579000D01*
X112064800Y-93599000D01*
X112084800Y-93599000D01*
X112084800Y-93853000D01*
X112064800Y-93853000D01*
X112064800Y-94902250D01*
X112223550Y-95061000D01*
X112425300Y-95064072D01*
X112549782Y-95051812D01*
X112669480Y-95015502D01*
X112779794Y-94956537D01*
X112876485Y-94877185D01*
X112940292Y-94799436D01*
X112945508Y-94805792D01*
X113079136Y-94915458D01*
X113231591Y-94996947D01*
X113397015Y-95047128D01*
X113569050Y-95064072D01*
X114056550Y-95064072D01*
X114228585Y-95047128D01*
X114394009Y-94996947D01*
X114546464Y-94915458D01*
X114680092Y-94805792D01*
X114789758Y-94672164D01*
X114871247Y-94519709D01*
X114881473Y-94486000D01*
X116145328Y-94486000D01*
X116145328Y-94566450D01*
X116161792Y-94733608D01*
X116210550Y-94894342D01*
X116289729Y-95042475D01*
X116396285Y-95172315D01*
X116526125Y-95278871D01*
X116674258Y-95358050D01*
X116834992Y-95406808D01*
X117002150Y-95423272D01*
X117439650Y-95423272D01*
X117606808Y-95406808D01*
X117767542Y-95358050D01*
X117915675Y-95278871D01*
X118008400Y-95202774D01*
X118035900Y-95225343D01*
X118035901Y-95817928D01*
X117804000Y-95817928D01*
X117679518Y-95830188D01*
X117559820Y-95866498D01*
X117449506Y-95925463D01*
X117352815Y-96004815D01*
X117273463Y-96101506D01*
X117214498Y-96211820D01*
X117178188Y-96331518D01*
X117165928Y-96456000D01*
X117165928Y-98616000D01*
X117178188Y-98740482D01*
X117214498Y-98860180D01*
X117273463Y-98970494D01*
X117352815Y-99067185D01*
X117449506Y-99146537D01*
X117559820Y-99205502D01*
X117679518Y-99241812D01*
X117804000Y-99254072D01*
X118924000Y-99254072D01*
X119048482Y-99241812D01*
X119168180Y-99205502D01*
X119278494Y-99146537D01*
X119375185Y-99067185D01*
X119454537Y-98970494D01*
X119513502Y-98860180D01*
X119549812Y-98740482D01*
X119562072Y-98616000D01*
X119562072Y-96456000D01*
X119555900Y-96393333D01*
X119555900Y-95225343D01*
X119620515Y-95172315D01*
X119727071Y-95042475D01*
X119806250Y-94894342D01*
X119855008Y-94733608D01*
X119871472Y-94566450D01*
X119871472Y-94053950D01*
X119855008Y-93886792D01*
X119806250Y-93726058D01*
X119727071Y-93577925D01*
X119620515Y-93448085D01*
X119490675Y-93341529D01*
X119342542Y-93262350D01*
X119181808Y-93213592D01*
X119014650Y-93197128D01*
X118577150Y-93197128D01*
X118409992Y-93213592D01*
X118249258Y-93262350D01*
X118101125Y-93341529D01*
X118008400Y-93417626D01*
X117915675Y-93341529D01*
X117767542Y-93262350D01*
X117703391Y-93242890D01*
X117675504Y-93215003D01*
X117651701Y-93185999D01*
X117535976Y-93091026D01*
X117403947Y-93020454D01*
X117260686Y-92976997D01*
X117149033Y-92966000D01*
X117149022Y-92966000D01*
X117111700Y-92962324D01*
X117074378Y-92966000D01*
X114881473Y-92966000D01*
X114871247Y-92932291D01*
X114789758Y-92779836D01*
X114752962Y-92735000D01*
X120625000Y-92735000D01*
X120625001Y-119355000D01*
X101901313Y-119355000D01*
X101909812Y-119326982D01*
X101922072Y-119202500D01*
X101919000Y-119000750D01*
X101760250Y-118842000D01*
X100711000Y-118842000D01*
X100711000Y-118862000D01*
X100457000Y-118862000D01*
X100457000Y-118842000D01*
X99407750Y-118842000D01*
X99249000Y-119000750D01*
X99245928Y-119202500D01*
X99258188Y-119326982D01*
X99266687Y-119355000D01*
X91465000Y-119355000D01*
X91465000Y-115899861D01*
X97898000Y-115899861D01*
X97898000Y-116103739D01*
X97937774Y-116303698D01*
X98015795Y-116492056D01*
X98129063Y-116661574D01*
X98273226Y-116805737D01*
X98442744Y-116919005D01*
X98631102Y-116997026D01*
X98831061Y-117036800D01*
X99034939Y-117036800D01*
X99234898Y-116997026D01*
X99245928Y-116992457D01*
X99245928Y-117083750D01*
X99262872Y-117255785D01*
X99313053Y-117421209D01*
X99394542Y-117573664D01*
X99504208Y-117707292D01*
X99510564Y-117712508D01*
X99432815Y-117776315D01*
X99353463Y-117873006D01*
X99294498Y-117983320D01*
X99258188Y-118103018D01*
X99245928Y-118227500D01*
X99249000Y-118429250D01*
X99407750Y-118588000D01*
X100457000Y-118588000D01*
X100457000Y-118568000D01*
X100711000Y-118568000D01*
X100711000Y-118588000D01*
X101760250Y-118588000D01*
X101919000Y-118429250D01*
X101922072Y-118227500D01*
X101909812Y-118103018D01*
X101873502Y-117983320D01*
X101814537Y-117873006D01*
X101735185Y-117776315D01*
X101657436Y-117712508D01*
X101663792Y-117707292D01*
X101773458Y-117573664D01*
X101854947Y-117421209D01*
X101905128Y-117255785D01*
X101922072Y-117083750D01*
X101922072Y-116596250D01*
X101905128Y-116424215D01*
X101854947Y-116258791D01*
X101773458Y-116106336D01*
X101663792Y-115972708D01*
X101530164Y-115863042D01*
X101377709Y-115781553D01*
X101212285Y-115731372D01*
X101040250Y-115714428D01*
X100533229Y-115714428D01*
X100309603Y-115490802D01*
X100285801Y-115461799D01*
X100170076Y-115366826D01*
X100038047Y-115296254D01*
X99894786Y-115252797D01*
X99783133Y-115241800D01*
X99783122Y-115241800D01*
X99745800Y-115238124D01*
X99708478Y-115241800D01*
X99636711Y-115241800D01*
X99592774Y-115197863D01*
X99423256Y-115084595D01*
X99234898Y-115006574D01*
X99034939Y-114966800D01*
X98831061Y-114966800D01*
X98631102Y-115006574D01*
X98442744Y-115084595D01*
X98273226Y-115197863D01*
X98129063Y-115342026D01*
X98015795Y-115511544D01*
X97937774Y-115699902D01*
X97898000Y-115899861D01*
X91465000Y-115899861D01*
X91465000Y-106412366D01*
X91629061Y-106445000D01*
X91832939Y-106445000D01*
X92032898Y-106405226D01*
X92221256Y-106327205D01*
X92390774Y-106213937D01*
X92434711Y-106170000D01*
X94833599Y-106170000D01*
X95713600Y-107050002D01*
X95713600Y-107112139D01*
X95753374Y-107312098D01*
X95831395Y-107500456D01*
X95944663Y-107669974D01*
X96088826Y-107814137D01*
X96258344Y-107927405D01*
X96446702Y-108005426D01*
X96646661Y-108045200D01*
X96850539Y-108045200D01*
X97050498Y-108005426D01*
X97083293Y-107991842D01*
X97084071Y-107999745D01*
X97128916Y-108147582D01*
X97143264Y-108174425D01*
X97138463Y-108179226D01*
X97025195Y-108348744D01*
X96947174Y-108537102D01*
X96907400Y-108737061D01*
X96907400Y-108940939D01*
X96947174Y-109140898D01*
X97025195Y-109329256D01*
X97138463Y-109498774D01*
X97282626Y-109642937D01*
X97452144Y-109756205D01*
X97640502Y-109834226D01*
X97840461Y-109874000D01*
X98044339Y-109874000D01*
X98244298Y-109834226D01*
X98432656Y-109756205D01*
X98602174Y-109642937D01*
X98746337Y-109498774D01*
X98859605Y-109329256D01*
X98937626Y-109140898D01*
X98977400Y-108940939D01*
X98977400Y-108737061D01*
X98956914Y-108634072D01*
X99222011Y-108634072D01*
X99222010Y-113133038D01*
X99218334Y-113170360D01*
X99222010Y-113207682D01*
X99222010Y-113207692D01*
X99233007Y-113319345D01*
X99275423Y-113459174D01*
X99276464Y-113462606D01*
X99347036Y-113594636D01*
X99386881Y-113643186D01*
X99442009Y-113710361D01*
X99471013Y-113734164D01*
X101572861Y-115836013D01*
X101596659Y-115865011D01*
X101712384Y-115959984D01*
X101844413Y-116030556D01*
X101987674Y-116074013D01*
X102099327Y-116085010D01*
X102099336Y-116085010D01*
X102136659Y-116088686D01*
X102173982Y-116085010D01*
X103058018Y-116085010D01*
X103095340Y-116088686D01*
X103132662Y-116085010D01*
X103132673Y-116085010D01*
X103244326Y-116074013D01*
X103387587Y-116030556D01*
X103519616Y-115959984D01*
X103635341Y-115865011D01*
X103659144Y-115836007D01*
X103871592Y-115623559D01*
X103879018Y-115625812D01*
X104003500Y-115638072D01*
X104205250Y-115635000D01*
X104364000Y-115476250D01*
X104364000Y-114427000D01*
X104618000Y-114427000D01*
X104618000Y-115476250D01*
X104776750Y-115635000D01*
X104978500Y-115638072D01*
X105102982Y-115625812D01*
X105222680Y-115589502D01*
X105332994Y-115530537D01*
X105429685Y-115451185D01*
X105509037Y-115354494D01*
X105568002Y-115244180D01*
X105604312Y-115124482D01*
X105616572Y-115000000D01*
X105613500Y-114585750D01*
X105454750Y-114427000D01*
X104618000Y-114427000D01*
X104364000Y-114427000D01*
X104344000Y-114427000D01*
X104344000Y-114173000D01*
X104364000Y-114173000D01*
X104364000Y-114153000D01*
X104618000Y-114153000D01*
X104618000Y-114173000D01*
X105454750Y-114173000D01*
X105613500Y-114014250D01*
X105616572Y-113600000D01*
X105604312Y-113475518D01*
X105568002Y-113355820D01*
X105509037Y-113245506D01*
X105429685Y-113148815D01*
X105332994Y-113069463D01*
X105222680Y-113010498D01*
X105129301Y-112982172D01*
X105248019Y-112863454D01*
X105277011Y-112839661D01*
X105300805Y-112810668D01*
X105300809Y-112810664D01*
X105371983Y-112723937D01*
X105371984Y-112723936D01*
X105442556Y-112591907D01*
X105486013Y-112448646D01*
X105497010Y-112336993D01*
X105497010Y-112336984D01*
X105500686Y-112299661D01*
X105497010Y-112262338D01*
X105497010Y-112243240D01*
X105537000Y-112203250D01*
X105537000Y-111379000D01*
X105517000Y-111379000D01*
X105517000Y-111229807D01*
X105534817Y-111211990D01*
X105811000Y-111211990D01*
X105811000Y-111379000D01*
X105791000Y-111379000D01*
X105791000Y-112203250D01*
X105949750Y-112362000D01*
X106101500Y-112365072D01*
X106225982Y-112352812D01*
X106345680Y-112316502D01*
X106455994Y-112257537D01*
X106499966Y-112221450D01*
X106518317Y-112281944D01*
X106533454Y-112331846D01*
X106604026Y-112463876D01*
X106672573Y-112547400D01*
X106699000Y-112579601D01*
X106711800Y-112590106D01*
X106711800Y-112649339D01*
X106751574Y-112849298D01*
X106829595Y-113037656D01*
X106942863Y-113207174D01*
X107087026Y-113351337D01*
X107256544Y-113464605D01*
X107444902Y-113542626D01*
X107644861Y-113582400D01*
X107848739Y-113582400D01*
X108048698Y-113542626D01*
X108237056Y-113464605D01*
X108406574Y-113351337D01*
X108550737Y-113207174D01*
X108664005Y-113037656D01*
X108742026Y-112849298D01*
X108781800Y-112649339D01*
X108781800Y-112445461D01*
X108742026Y-112245502D01*
X108664005Y-112057144D01*
X108550737Y-111887626D01*
X108406574Y-111743463D01*
X108298516Y-111671261D01*
X108314572Y-111508250D01*
X108314572Y-110995750D01*
X108313760Y-110987510D01*
X112376518Y-110987510D01*
X112413840Y-110991186D01*
X112451162Y-110987510D01*
X112451173Y-110987510D01*
X112562826Y-110976513D01*
X112706087Y-110933056D01*
X112838116Y-110862484D01*
X112953841Y-110767511D01*
X112977644Y-110738507D01*
X114188592Y-109527559D01*
X114196018Y-109529812D01*
X114320500Y-109542072D01*
X114522250Y-109539000D01*
X114681000Y-109380250D01*
X114681000Y-108331000D01*
X114935000Y-108331000D01*
X114935000Y-109380250D01*
X115093750Y-109539000D01*
X115295500Y-109542072D01*
X115419982Y-109529812D01*
X115539680Y-109493502D01*
X115649994Y-109434537D01*
X115746685Y-109355185D01*
X115826037Y-109258494D01*
X115885002Y-109148180D01*
X115921312Y-109028482D01*
X115933572Y-108904000D01*
X115930500Y-108489750D01*
X115771750Y-108331000D01*
X114935000Y-108331000D01*
X114681000Y-108331000D01*
X114661000Y-108331000D01*
X114661000Y-108077000D01*
X114681000Y-108077000D01*
X114681000Y-107027750D01*
X114935000Y-107027750D01*
X114935000Y-108077000D01*
X115771750Y-108077000D01*
X115930500Y-107918250D01*
X115933572Y-107504000D01*
X115921312Y-107379518D01*
X115885002Y-107259820D01*
X115826037Y-107149506D01*
X115746685Y-107052815D01*
X115649994Y-106973463D01*
X115539680Y-106914498D01*
X115419982Y-106878188D01*
X115295500Y-106865928D01*
X115093750Y-106869000D01*
X114935000Y-107027750D01*
X114681000Y-107027750D01*
X114522250Y-106869000D01*
X114320500Y-106865928D01*
X114196018Y-106878188D01*
X114188592Y-106880441D01*
X113868144Y-106559993D01*
X113844341Y-106530989D01*
X113728616Y-106436016D01*
X113596587Y-106365444D01*
X113453326Y-106321987D01*
X113341673Y-106310990D01*
X113341662Y-106310990D01*
X113304340Y-106307314D01*
X113267018Y-106310990D01*
X105939411Y-106310990D01*
X106567402Y-105683000D01*
X106629539Y-105683000D01*
X106829498Y-105643226D01*
X107017856Y-105565205D01*
X107187374Y-105451937D01*
X107331537Y-105307774D01*
X107444805Y-105138256D01*
X107522826Y-104949898D01*
X107562600Y-104749939D01*
X107562600Y-104646000D01*
X107696744Y-104646000D01*
X107716774Y-104746698D01*
X107794795Y-104935056D01*
X107908063Y-105104574D01*
X108052226Y-105248737D01*
X108221744Y-105362005D01*
X108410102Y-105440026D01*
X108610061Y-105479800D01*
X108813939Y-105479800D01*
X109013898Y-105440026D01*
X109202256Y-105362005D01*
X109371774Y-105248737D01*
X109515937Y-105104574D01*
X109629205Y-104935056D01*
X109707226Y-104746698D01*
X109747000Y-104546739D01*
X109747000Y-104342861D01*
X109707226Y-104142902D01*
X109629205Y-103954544D01*
X109515937Y-103785026D01*
X109371774Y-103640863D01*
X109202256Y-103527595D01*
X109013898Y-103449574D01*
X108813939Y-103409800D01*
X108751801Y-103409800D01*
X108717003Y-103375002D01*
X108693201Y-103345999D01*
X108577476Y-103251026D01*
X108445447Y-103180454D01*
X108302186Y-103136997D01*
X108190533Y-103126000D01*
X108190522Y-103126000D01*
X108153200Y-103122324D01*
X108115878Y-103126000D01*
X105153859Y-103126000D01*
X105185084Y-103067582D01*
X105229929Y-102919745D01*
X105245072Y-102766000D01*
X105245072Y-102466000D01*
X105229929Y-102312255D01*
X105185084Y-102164418D01*
X105112258Y-102028171D01*
X105073546Y-101981000D01*
X105112258Y-101933829D01*
X105185084Y-101797582D01*
X105229929Y-101649745D01*
X105245072Y-101496000D01*
X105245072Y-101196000D01*
X105229929Y-101042255D01*
X105185084Y-100894418D01*
X105112258Y-100758171D01*
X105073546Y-100711000D01*
X105112258Y-100663829D01*
X105185084Y-100527582D01*
X105229929Y-100379745D01*
X105245072Y-100226000D01*
X105245072Y-99926000D01*
X105229929Y-99772255D01*
X105185084Y-99624418D01*
X105175784Y-99607018D01*
X105184403Y-99598399D01*
X105213401Y-99574601D01*
X105245081Y-99535999D01*
X105308374Y-99458877D01*
X105378946Y-99326847D01*
X105395965Y-99270742D01*
X105422403Y-99183586D01*
X105429972Y-99106739D01*
X105477337Y-99059374D01*
X105590605Y-98889856D01*
X105668626Y-98701498D01*
X105708400Y-98501539D01*
X105708400Y-98297661D01*
X105668626Y-98097702D01*
X105590605Y-97909344D01*
X105477337Y-97739826D01*
X105333174Y-97595663D01*
X105163656Y-97482395D01*
X104975298Y-97404374D01*
X104775339Y-97364600D01*
X104571461Y-97364600D01*
X104371502Y-97404374D01*
X104183144Y-97482395D01*
X104013626Y-97595663D01*
X103869463Y-97739826D01*
X103756195Y-97909344D01*
X103678174Y-98097702D01*
X103638400Y-98297661D01*
X103638400Y-98501539D01*
X103678174Y-98701498D01*
X103752431Y-98880768D01*
X103495271Y-99137928D01*
X102807000Y-99137928D01*
X102653255Y-99153071D01*
X102539660Y-99187529D01*
X102496656Y-99158795D01*
X102308298Y-99080774D01*
X102108339Y-99041000D01*
X101904461Y-99041000D01*
X101704502Y-99080774D01*
X101516144Y-99158795D01*
X101346626Y-99272063D01*
X101202463Y-99416226D01*
X101089195Y-99585744D01*
X101011174Y-99774102D01*
X100971840Y-99971850D01*
X100889139Y-99955400D01*
X100827001Y-99955400D01*
X100436603Y-99565002D01*
X100412801Y-99535999D01*
X100297076Y-99441026D01*
X100165047Y-99370454D01*
X100021786Y-99326997D01*
X100012229Y-99326056D01*
X99944829Y-99270742D01*
X99808582Y-99197916D01*
X99660745Y-99153071D01*
X99507000Y-99137928D01*
X97857000Y-99137928D01*
X97703255Y-99153071D01*
X97555418Y-99197916D01*
X97419171Y-99270742D01*
X97299749Y-99368749D01*
X97201742Y-99488171D01*
X97128916Y-99624418D01*
X97084071Y-99772255D01*
X97068928Y-99926000D01*
X97068928Y-100226000D01*
X97070564Y-100242607D01*
X97025098Y-100223774D01*
X96825139Y-100184000D01*
X96621261Y-100184000D01*
X96421302Y-100223774D01*
X96232944Y-100301795D01*
X96063426Y-100415063D01*
X95919263Y-100559226D01*
X95805995Y-100728744D01*
X95727974Y-100917102D01*
X95688200Y-101117061D01*
X95688200Y-101320939D01*
X95727974Y-101520898D01*
X95805995Y-101709256D01*
X95919263Y-101878774D01*
X96063426Y-102022937D01*
X96232944Y-102136205D01*
X96421302Y-102214226D01*
X96621261Y-102254000D01*
X96825139Y-102254000D01*
X97025098Y-102214226D01*
X97069923Y-102195659D01*
X97001454Y-102323753D01*
X96957997Y-102467014D01*
X96943323Y-102616000D01*
X96957997Y-102764986D01*
X97001454Y-102908247D01*
X97072026Y-103040276D01*
X97166999Y-103156001D01*
X97183350Y-103169420D01*
X97200730Y-103201936D01*
X97176463Y-103231506D01*
X97117498Y-103341820D01*
X97081188Y-103461518D01*
X97068928Y-103586000D01*
X97072000Y-103600250D01*
X97230750Y-103759000D01*
X98555000Y-103759000D01*
X98555000Y-103739000D01*
X98809000Y-103739000D01*
X98809000Y-103759000D01*
X98829000Y-103759000D01*
X98829000Y-104013000D01*
X98809000Y-104013000D01*
X98809000Y-104033000D01*
X98555000Y-104033000D01*
X98555000Y-104013000D01*
X97230750Y-104013000D01*
X97072000Y-104171750D01*
X97068928Y-104186000D01*
X97081188Y-104310482D01*
X97117498Y-104430180D01*
X97176463Y-104540494D01*
X97200730Y-104570064D01*
X97128916Y-104704418D01*
X97084071Y-104852255D01*
X97068928Y-105006000D01*
X97068928Y-105306000D01*
X97084071Y-105459745D01*
X97128916Y-105607582D01*
X97201742Y-105743829D01*
X97240454Y-105791000D01*
X97201742Y-105838171D01*
X97128916Y-105974418D01*
X97109234Y-106039303D01*
X97050498Y-106014974D01*
X96850539Y-105975200D01*
X96788402Y-105975200D01*
X95712204Y-104899003D01*
X95688401Y-104869999D01*
X95572676Y-104775026D01*
X95440647Y-104704454D01*
X95297386Y-104660997D01*
X95185733Y-104650000D01*
X95185722Y-104650000D01*
X95148400Y-104646324D01*
X95111078Y-104650000D01*
X92434711Y-104650000D01*
X92390774Y-104606063D01*
X92221256Y-104492795D01*
X92032898Y-104414774D01*
X91832939Y-104375000D01*
X91629061Y-104375000D01*
X91465000Y-104407634D01*
X91465000Y-98236000D01*
X91995428Y-98236000D01*
X92007688Y-98360482D01*
X92043998Y-98480180D01*
X92102963Y-98590494D01*
X92182315Y-98687185D01*
X92279006Y-98766537D01*
X92389320Y-98825502D01*
X92509018Y-98861812D01*
X92633500Y-98874072D01*
X92835250Y-98871000D01*
X92994000Y-98712250D01*
X92994000Y-97663000D01*
X92157250Y-97663000D01*
X91998500Y-97821750D01*
X91995428Y-98236000D01*
X91465000Y-98236000D01*
X91465000Y-96836000D01*
X91995428Y-96836000D01*
X91998500Y-97250250D01*
X92157250Y-97409000D01*
X92994000Y-97409000D01*
X92994000Y-96359750D01*
X93248000Y-96359750D01*
X93248000Y-97409000D01*
X93268000Y-97409000D01*
X93268000Y-97663000D01*
X93248000Y-97663000D01*
X93248000Y-98712250D01*
X93406750Y-98871000D01*
X93608500Y-98874072D01*
X93732982Y-98861812D01*
X93852680Y-98825502D01*
X93962994Y-98766537D01*
X94059685Y-98687185D01*
X94123492Y-98609436D01*
X94128708Y-98615792D01*
X94262336Y-98725458D01*
X94414791Y-98806947D01*
X94580215Y-98857128D01*
X94752250Y-98874072D01*
X95239750Y-98874072D01*
X95411785Y-98857128D01*
X95577209Y-98806947D01*
X95729664Y-98725458D01*
X95863292Y-98615792D01*
X95972958Y-98482164D01*
X96027469Y-98380180D01*
X96063426Y-98416137D01*
X96232944Y-98529405D01*
X96421302Y-98607426D01*
X96621261Y-98647200D01*
X96825139Y-98647200D01*
X97025098Y-98607426D01*
X97213456Y-98529405D01*
X97382974Y-98416137D01*
X97527137Y-98271974D01*
X97640405Y-98102456D01*
X97718426Y-97914098D01*
X97758200Y-97714139D01*
X97758200Y-97510261D01*
X97718426Y-97310302D01*
X97640405Y-97121944D01*
X97527137Y-96952426D01*
X97382974Y-96808263D01*
X97213456Y-96694995D01*
X97025098Y-96616974D01*
X96825139Y-96577200D01*
X96621261Y-96577200D01*
X96421302Y-96616974D01*
X96232944Y-96694995D01*
X96072600Y-96802133D01*
X96054447Y-96742291D01*
X95972958Y-96589836D01*
X95863292Y-96456208D01*
X95729664Y-96346542D01*
X95577209Y-96265053D01*
X95411785Y-96214872D01*
X95239750Y-96197928D01*
X94752250Y-96197928D01*
X94580215Y-96214872D01*
X94414791Y-96265053D01*
X94262336Y-96346542D01*
X94128708Y-96456208D01*
X94123492Y-96462564D01*
X94059685Y-96384815D01*
X93962994Y-96305463D01*
X93852680Y-96246498D01*
X93732982Y-96210188D01*
X93608500Y-96197928D01*
X93406750Y-96201000D01*
X93248000Y-96359750D01*
X92994000Y-96359750D01*
X92835250Y-96201000D01*
X92633500Y-96197928D01*
X92509018Y-96210188D01*
X92389320Y-96246498D01*
X92279006Y-96305463D01*
X92182315Y-96384815D01*
X92102963Y-96481506D01*
X92043998Y-96591820D01*
X92007688Y-96711518D01*
X91995428Y-96836000D01*
X91465000Y-96836000D01*
X91465000Y-96170000D01*
X108614928Y-96170000D01*
X108627188Y-96294482D01*
X108663498Y-96414180D01*
X108722463Y-96524494D01*
X108777100Y-96591070D01*
X108759329Y-96612725D01*
X108680150Y-96760858D01*
X108631392Y-96921592D01*
X108614928Y-97088750D01*
X108614928Y-97526250D01*
X108631392Y-97693408D01*
X108680150Y-97854142D01*
X108759329Y-98002275D01*
X108865885Y-98132115D01*
X108968000Y-98215918D01*
X108968001Y-99733868D01*
X108964324Y-99771200D01*
X108978998Y-99920185D01*
X109022454Y-100063446D01*
X109093026Y-100195476D01*
X109156708Y-100273072D01*
X109188000Y-100311201D01*
X109216998Y-100334999D01*
X111131400Y-102249402D01*
X111131400Y-102311539D01*
X111171174Y-102511498D01*
X111249195Y-102699856D01*
X111362463Y-102869374D01*
X111506626Y-103013537D01*
X111676144Y-103126805D01*
X111864502Y-103204826D01*
X112064461Y-103244600D01*
X112268339Y-103244600D01*
X112468298Y-103204826D01*
X112656656Y-103126805D01*
X112826174Y-103013537D01*
X112970337Y-102869374D01*
X113083605Y-102699856D01*
X113161626Y-102511498D01*
X113201400Y-102311539D01*
X113201400Y-102204586D01*
X113327144Y-102288605D01*
X113515502Y-102366626D01*
X113715461Y-102406400D01*
X113919339Y-102406400D01*
X114119298Y-102366626D01*
X114307656Y-102288605D01*
X114477174Y-102175337D01*
X114621337Y-102031174D01*
X114734605Y-101861656D01*
X114812626Y-101673298D01*
X114852400Y-101473339D01*
X114852400Y-101269461D01*
X114812626Y-101069502D01*
X114737619Y-100888421D01*
X117165928Y-103316731D01*
X117165928Y-105346000D01*
X117178188Y-105470482D01*
X117214498Y-105590180D01*
X117273463Y-105700494D01*
X117352815Y-105797185D01*
X117449506Y-105876537D01*
X117559820Y-105935502D01*
X117679518Y-105971812D01*
X117804000Y-105984072D01*
X118924000Y-105984072D01*
X119048482Y-105971812D01*
X119168180Y-105935502D01*
X119278494Y-105876537D01*
X119375185Y-105797185D01*
X119454537Y-105700494D01*
X119513502Y-105590180D01*
X119549812Y-105470482D01*
X119562072Y-105346000D01*
X119562072Y-103186000D01*
X119549812Y-103061518D01*
X119513502Y-102941820D01*
X119454537Y-102831506D01*
X119375185Y-102734815D01*
X119278494Y-102655463D01*
X119168180Y-102596498D01*
X119048482Y-102560188D01*
X118924000Y-102547928D01*
X118546731Y-102547928D01*
X114609866Y-98611064D01*
X114605008Y-98561745D01*
X114554472Y-98395149D01*
X114472405Y-98241613D01*
X114361962Y-98107038D01*
X114355406Y-98101658D01*
X114435185Y-98036185D01*
X114514537Y-97939494D01*
X114573502Y-97829180D01*
X114609812Y-97709482D01*
X114622072Y-97585000D01*
X114619000Y-97295750D01*
X114460250Y-97137000D01*
X113411000Y-97137000D01*
X113411000Y-97157000D01*
X113157000Y-97157000D01*
X113157000Y-97137000D01*
X112107750Y-97137000D01*
X111949000Y-97295750D01*
X111945928Y-97585000D01*
X111958188Y-97709482D01*
X111994498Y-97829180D01*
X112053463Y-97939494D01*
X112132815Y-98036185D01*
X112212594Y-98101658D01*
X112206038Y-98107038D01*
X112095595Y-98241613D01*
X112013528Y-98395149D01*
X111962992Y-98561745D01*
X111945928Y-98734999D01*
X111945928Y-99385001D01*
X111962992Y-99558255D01*
X112013528Y-99724851D01*
X112095595Y-99878387D01*
X112206038Y-100012962D01*
X112340613Y-100123405D01*
X112494149Y-100205472D01*
X112660745Y-100256008D01*
X112833999Y-100273072D01*
X112865521Y-100273072D01*
X112991754Y-100340546D01*
X113057401Y-100360459D01*
X113057400Y-100667689D01*
X113013463Y-100711626D01*
X112900195Y-100881144D01*
X112822174Y-101069502D01*
X112782400Y-101269461D01*
X112782400Y-101376414D01*
X112656656Y-101292395D01*
X112468298Y-101214374D01*
X112268339Y-101174600D01*
X112206202Y-101174600D01*
X110488000Y-99456399D01*
X110488000Y-98215918D01*
X110590115Y-98132115D01*
X110696671Y-98002275D01*
X110775850Y-97854142D01*
X110824608Y-97693408D01*
X110841072Y-97526250D01*
X110841072Y-97088750D01*
X110824608Y-96921592D01*
X110775850Y-96760858D01*
X110696671Y-96612725D01*
X110678900Y-96591070D01*
X110733537Y-96524494D01*
X110781373Y-96435000D01*
X111945928Y-96435000D01*
X111949000Y-96724250D01*
X112107750Y-96883000D01*
X113157000Y-96883000D01*
X113157000Y-95958750D01*
X113411000Y-95958750D01*
X113411000Y-96883000D01*
X114460250Y-96883000D01*
X114619000Y-96724250D01*
X114622072Y-96435000D01*
X114609812Y-96310518D01*
X114573502Y-96190820D01*
X114514537Y-96080506D01*
X114435185Y-95983815D01*
X114338494Y-95904463D01*
X114228180Y-95845498D01*
X114108482Y-95809188D01*
X113984000Y-95796928D01*
X113569750Y-95800000D01*
X113411000Y-95958750D01*
X113157000Y-95958750D01*
X112998250Y-95800000D01*
X112584000Y-95796928D01*
X112459518Y-95809188D01*
X112339820Y-95845498D01*
X112229506Y-95904463D01*
X112132815Y-95983815D01*
X112053463Y-96080506D01*
X111994498Y-96190820D01*
X111958188Y-96310518D01*
X111945928Y-96435000D01*
X110781373Y-96435000D01*
X110792502Y-96414180D01*
X110828812Y-96294482D01*
X110841072Y-96170000D01*
X110838000Y-96018250D01*
X110679250Y-95859500D01*
X109855000Y-95859500D01*
X109855000Y-95879500D01*
X109601000Y-95879500D01*
X109601000Y-95859500D01*
X108776750Y-95859500D01*
X108618000Y-96018250D01*
X108614928Y-96170000D01*
X91465000Y-96170000D01*
X91465000Y-95295000D01*
X108614928Y-95295000D01*
X108618000Y-95446750D01*
X108776750Y-95605500D01*
X109601000Y-95605500D01*
X109601000Y-94818750D01*
X109855000Y-94818750D01*
X109855000Y-95605500D01*
X110679250Y-95605500D01*
X110838000Y-95446750D01*
X110841072Y-95295000D01*
X110828812Y-95170518D01*
X110792502Y-95050820D01*
X110733537Y-94940506D01*
X110654185Y-94843815D01*
X110557494Y-94764463D01*
X110447180Y-94705498D01*
X110327482Y-94669188D01*
X110203000Y-94656928D01*
X110013750Y-94660000D01*
X109855000Y-94818750D01*
X109601000Y-94818750D01*
X109442250Y-94660000D01*
X109253000Y-94656928D01*
X109128518Y-94669188D01*
X109008820Y-94705498D01*
X108898506Y-94764463D01*
X108801815Y-94843815D01*
X108722463Y-94940506D01*
X108663498Y-95050820D01*
X108627188Y-95170518D01*
X108614928Y-95295000D01*
X91465000Y-95295000D01*
X91465000Y-94426000D01*
X110812228Y-94426000D01*
X110824488Y-94550482D01*
X110860798Y-94670180D01*
X110919763Y-94780494D01*
X110999115Y-94877185D01*
X111095806Y-94956537D01*
X111206120Y-95015502D01*
X111325818Y-95051812D01*
X111450300Y-95064072D01*
X111652050Y-95061000D01*
X111810800Y-94902250D01*
X111810800Y-93853000D01*
X110974050Y-93853000D01*
X110815300Y-94011750D01*
X110812228Y-94426000D01*
X91465000Y-94426000D01*
X91465000Y-92735000D01*
X110885824Y-92735000D01*
X110860798Y-92781820D01*
G36*
X102093200Y-101857002D02*
G01*
X102116999Y-101886001D01*
X102133350Y-101899420D01*
X102151742Y-101933829D01*
X102190454Y-101981000D01*
X102151742Y-102028171D01*
X102133350Y-102062580D01*
X102116999Y-102075999D01*
X102093196Y-102105003D01*
X101821591Y-102376608D01*
X101684478Y-102488624D01*
X101683725Y-102489026D01*
X101626596Y-102535911D01*
X101598261Y-102559059D01*
X101597658Y-102559659D01*
X101568000Y-102583999D01*
X101544739Y-102612343D01*
X101518751Y-102638215D01*
X101497363Y-102670071D01*
X101473027Y-102699724D01*
X101455743Y-102732059D01*
X101435301Y-102762506D01*
X101420540Y-102797918D01*
X101402455Y-102831753D01*
X101391811Y-102866844D01*
X101377703Y-102900689D01*
X101370134Y-102938302D01*
X101358998Y-102975014D01*
X101355404Y-103011505D01*
X101348170Y-103047454D01*
X101348084Y-103085820D01*
X101348001Y-103086667D01*
X101348001Y-103123208D01*
X101347836Y-103197159D01*
X101348001Y-103197998D01*
X101348000Y-106511445D01*
X101344324Y-106548768D01*
X101348000Y-106586090D01*
X101348000Y-106586100D01*
X101358997Y-106697753D01*
X101402454Y-106841014D01*
X101473026Y-106973044D01*
X101506498Y-107013829D01*
X101567999Y-107088769D01*
X101597002Y-107112571D01*
X102019959Y-107535530D01*
X102018928Y-107546000D01*
X102018928Y-107846000D01*
X102034071Y-107999745D01*
X102078916Y-108147582D01*
X102151742Y-108283829D01*
X102249749Y-108403251D01*
X102369171Y-108501258D01*
X102505418Y-108574084D01*
X102653255Y-108618929D01*
X102807000Y-108634072D01*
X103531459Y-108634072D01*
X103619153Y-108680946D01*
X103762414Y-108724403D01*
X103874067Y-108735400D01*
X103874076Y-108735400D01*
X103911399Y-108739076D01*
X103948722Y-108735400D01*
X105519089Y-108735400D01*
X105563026Y-108779337D01*
X105732544Y-108892605D01*
X105920902Y-108970626D01*
X106120861Y-109010400D01*
X106324739Y-109010400D01*
X106524698Y-108970626D01*
X106713056Y-108892605D01*
X106882574Y-108779337D01*
X107026737Y-108635174D01*
X107140005Y-108465656D01*
X107218026Y-108277298D01*
X107257800Y-108077339D01*
X107257800Y-107873461D01*
X107249352Y-107830990D01*
X110720099Y-107830990D01*
X110676663Y-107874426D01*
X110563395Y-108043944D01*
X110485374Y-108232302D01*
X110445600Y-108432261D01*
X110445600Y-108636139D01*
X110485374Y-108836098D01*
X110563395Y-109024456D01*
X110676663Y-109193974D01*
X110820826Y-109338137D01*
X110990344Y-109451405D01*
X111029225Y-109467510D01*
X103465843Y-109467510D01*
X103428510Y-109463833D01*
X103391177Y-109467510D01*
X103279524Y-109478507D01*
X103136263Y-109521964D01*
X103004234Y-109592536D01*
X102888509Y-109687509D01*
X102793536Y-109803234D01*
X102722964Y-109935263D01*
X102679507Y-110078524D01*
X102664833Y-110227510D01*
X102668511Y-110264853D01*
X102668511Y-110468093D01*
X102581737Y-110338226D01*
X102437574Y-110194063D01*
X102268056Y-110080795D01*
X102079698Y-110002774D01*
X101879739Y-109963000D01*
X101675861Y-109963000D01*
X101475902Y-110002774D01*
X101287544Y-110080795D01*
X101118026Y-110194063D01*
X100973863Y-110338226D01*
X100860595Y-110507744D01*
X100782574Y-110696102D01*
X100742800Y-110896061D01*
X100742800Y-111099939D01*
X100782574Y-111299898D01*
X100860595Y-111488256D01*
X100973863Y-111657774D01*
X101017800Y-111701711D01*
X101017801Y-113131350D01*
X100742010Y-112855559D01*
X100742010Y-105099332D01*
X100745686Y-105062010D01*
X100742010Y-105024687D01*
X100742010Y-102978343D01*
X100745687Y-102941010D01*
X100731013Y-102792024D01*
X100687556Y-102648763D01*
X100679598Y-102633875D01*
X100616984Y-102516734D01*
X100522011Y-102401009D01*
X100493008Y-102377207D01*
X100220804Y-102105003D01*
X100197001Y-102075999D01*
X100180650Y-102062580D01*
X100162258Y-102028171D01*
X100123546Y-101981000D01*
X100162258Y-101933829D01*
X100208031Y-101848195D01*
X100296944Y-101907605D01*
X100485302Y-101985626D01*
X100685261Y-102025400D01*
X100889139Y-102025400D01*
X101089098Y-101985626D01*
X101277456Y-101907605D01*
X101446974Y-101794337D01*
X101591137Y-101650174D01*
X101704405Y-101480656D01*
X101708051Y-101471853D01*
X102093200Y-101857002D01*
G37*
X102093200Y-101857002D02*
X102116999Y-101886001D01*
X102133350Y-101899420D01*
X102151742Y-101933829D01*
X102190454Y-101981000D01*
X102151742Y-102028171D01*
X102133350Y-102062580D01*
X102116999Y-102075999D01*
X102093196Y-102105003D01*
X101821591Y-102376608D01*
X101684478Y-102488624D01*
X101683725Y-102489026D01*
X101626596Y-102535911D01*
X101598261Y-102559059D01*
X101597658Y-102559659D01*
X101568000Y-102583999D01*
X101544739Y-102612343D01*
X101518751Y-102638215D01*
X101497363Y-102670071D01*
X101473027Y-102699724D01*
X101455743Y-102732059D01*
X101435301Y-102762506D01*
X101420540Y-102797918D01*
X101402455Y-102831753D01*
X101391811Y-102866844D01*
X101377703Y-102900689D01*
X101370134Y-102938302D01*
X101358998Y-102975014D01*
X101355404Y-103011505D01*
X101348170Y-103047454D01*
X101348084Y-103085820D01*
X101348001Y-103086667D01*
X101348001Y-103123208D01*
X101347836Y-103197159D01*
X101348001Y-103197998D01*
X101348000Y-106511445D01*
X101344324Y-106548768D01*
X101348000Y-106586090D01*
X101348000Y-106586100D01*
X101358997Y-106697753D01*
X101402454Y-106841014D01*
X101473026Y-106973044D01*
X101506498Y-107013829D01*
X101567999Y-107088769D01*
X101597002Y-107112571D01*
X102019959Y-107535530D01*
X102018928Y-107546000D01*
X102018928Y-107846000D01*
X102034071Y-107999745D01*
X102078916Y-108147582D01*
X102151742Y-108283829D01*
X102249749Y-108403251D01*
X102369171Y-108501258D01*
X102505418Y-108574084D01*
X102653255Y-108618929D01*
X102807000Y-108634072D01*
X103531459Y-108634072D01*
X103619153Y-108680946D01*
X103762414Y-108724403D01*
X103874067Y-108735400D01*
X103874076Y-108735400D01*
X103911399Y-108739076D01*
X103948722Y-108735400D01*
X105519089Y-108735400D01*
X105563026Y-108779337D01*
X105732544Y-108892605D01*
X105920902Y-108970626D01*
X106120861Y-109010400D01*
X106324739Y-109010400D01*
X106524698Y-108970626D01*
X106713056Y-108892605D01*
X106882574Y-108779337D01*
X107026737Y-108635174D01*
X107140005Y-108465656D01*
X107218026Y-108277298D01*
X107257800Y-108077339D01*
X107257800Y-107873461D01*
X107249352Y-107830990D01*
X110720099Y-107830990D01*
X110676663Y-107874426D01*
X110563395Y-108043944D01*
X110485374Y-108232302D01*
X110445600Y-108432261D01*
X110445600Y-108636139D01*
X110485374Y-108836098D01*
X110563395Y-109024456D01*
X110676663Y-109193974D01*
X110820826Y-109338137D01*
X110990344Y-109451405D01*
X111029225Y-109467510D01*
X103465843Y-109467510D01*
X103428510Y-109463833D01*
X103391177Y-109467510D01*
X103279524Y-109478507D01*
X103136263Y-109521964D01*
X103004234Y-109592536D01*
X102888509Y-109687509D01*
X102793536Y-109803234D01*
X102722964Y-109935263D01*
X102679507Y-110078524D01*
X102664833Y-110227510D01*
X102668511Y-110264853D01*
X102668511Y-110468093D01*
X102581737Y-110338226D01*
X102437574Y-110194063D01*
X102268056Y-110080795D01*
X102079698Y-110002774D01*
X101879739Y-109963000D01*
X101675861Y-109963000D01*
X101475902Y-110002774D01*
X101287544Y-110080795D01*
X101118026Y-110194063D01*
X100973863Y-110338226D01*
X100860595Y-110507744D01*
X100782574Y-110696102D01*
X100742800Y-110896061D01*
X100742800Y-111099939D01*
X100782574Y-111299898D01*
X100860595Y-111488256D01*
X100973863Y-111657774D01*
X101017800Y-111701711D01*
X101017801Y-113131350D01*
X100742010Y-112855559D01*
X100742010Y-105099332D01*
X100745686Y-105062010D01*
X100742010Y-105024687D01*
X100742010Y-102978343D01*
X100745687Y-102941010D01*
X100731013Y-102792024D01*
X100687556Y-102648763D01*
X100679598Y-102633875D01*
X100616984Y-102516734D01*
X100522011Y-102401009D01*
X100493008Y-102377207D01*
X100220804Y-102105003D01*
X100197001Y-102075999D01*
X100180650Y-102062580D01*
X100162258Y-102028171D01*
X100123546Y-101981000D01*
X100162258Y-101933829D01*
X100208031Y-101848195D01*
X100296944Y-101907605D01*
X100485302Y-101985626D01*
X100685261Y-102025400D01*
X100889139Y-102025400D01*
X101089098Y-101985626D01*
X101277456Y-101907605D01*
X101446974Y-101794337D01*
X101591137Y-101650174D01*
X101704405Y-101480656D01*
X101708051Y-101471853D01*
X102093200Y-101857002D01*
M02*
