G04 #@! TF.GenerationSoftware,KiCad,Pcbnew,(5.1.5)-3*
G04 #@! TF.CreationDate,2026-05-20T17:09:14+02:00*
G04 #@! TF.ProjectId,26 MAR,3236204d-4152-42e6-9b69-6361645f7063,rev?*
G04 #@! TF.SameCoordinates,Original*
G04 #@! TF.FileFunction,Paste,Top*
G04 #@! TF.FilePolarity,Positive*
%FSLAX46Y46*%
G04 Gerber Fmt 4.6, Leading zero omitted, Abs format (unit mm)*
G04 Created by KiCad (PCBNEW (5.1.5)-3) date 2026-05-20 17:09:14*
%MOMM*%
%LPD*%
G04 APERTURE LIST*
%ADD10R,1.120000X2.160000*%
%ADD11C,0.100000*%
G04 APERTURE END LIST*
D10*
X118364000Y-97536000D03*
X118364000Y-104266000D03*
D11*
G36*
X101064142Y-116353674D02*
G01*
X101087803Y-116357184D01*
X101111007Y-116362996D01*
X101133529Y-116371054D01*
X101155153Y-116381282D01*
X101175670Y-116393579D01*
X101194883Y-116407829D01*
X101212607Y-116423893D01*
X101228671Y-116441617D01*
X101242921Y-116460830D01*
X101255218Y-116481347D01*
X101265446Y-116502971D01*
X101273504Y-116525493D01*
X101279316Y-116548697D01*
X101282826Y-116572358D01*
X101284000Y-116596250D01*
X101284000Y-117083750D01*
X101282826Y-117107642D01*
X101279316Y-117131303D01*
X101273504Y-117154507D01*
X101265446Y-117177029D01*
X101255218Y-117198653D01*
X101242921Y-117219170D01*
X101228671Y-117238383D01*
X101212607Y-117256107D01*
X101194883Y-117272171D01*
X101175670Y-117286421D01*
X101155153Y-117298718D01*
X101133529Y-117308946D01*
X101111007Y-117317004D01*
X101087803Y-117322816D01*
X101064142Y-117326326D01*
X101040250Y-117327500D01*
X100127750Y-117327500D01*
X100103858Y-117326326D01*
X100080197Y-117322816D01*
X100056993Y-117317004D01*
X100034471Y-117308946D01*
X100012847Y-117298718D01*
X99992330Y-117286421D01*
X99973117Y-117272171D01*
X99955393Y-117256107D01*
X99939329Y-117238383D01*
X99925079Y-117219170D01*
X99912782Y-117198653D01*
X99902554Y-117177029D01*
X99894496Y-117154507D01*
X99888684Y-117131303D01*
X99885174Y-117107642D01*
X99884000Y-117083750D01*
X99884000Y-116596250D01*
X99885174Y-116572358D01*
X99888684Y-116548697D01*
X99894496Y-116525493D01*
X99902554Y-116502971D01*
X99912782Y-116481347D01*
X99925079Y-116460830D01*
X99939329Y-116441617D01*
X99955393Y-116423893D01*
X99973117Y-116407829D01*
X99992330Y-116393579D01*
X100012847Y-116381282D01*
X100034471Y-116371054D01*
X100056993Y-116362996D01*
X100080197Y-116357184D01*
X100103858Y-116353674D01*
X100127750Y-116352500D01*
X101040250Y-116352500D01*
X101064142Y-116353674D01*
G37*
G36*
X101064142Y-118228674D02*
G01*
X101087803Y-118232184D01*
X101111007Y-118237996D01*
X101133529Y-118246054D01*
X101155153Y-118256282D01*
X101175670Y-118268579D01*
X101194883Y-118282829D01*
X101212607Y-118298893D01*
X101228671Y-118316617D01*
X101242921Y-118335830D01*
X101255218Y-118356347D01*
X101265446Y-118377971D01*
X101273504Y-118400493D01*
X101279316Y-118423697D01*
X101282826Y-118447358D01*
X101284000Y-118471250D01*
X101284000Y-118958750D01*
X101282826Y-118982642D01*
X101279316Y-119006303D01*
X101273504Y-119029507D01*
X101265446Y-119052029D01*
X101255218Y-119073653D01*
X101242921Y-119094170D01*
X101228671Y-119113383D01*
X101212607Y-119131107D01*
X101194883Y-119147171D01*
X101175670Y-119161421D01*
X101155153Y-119173718D01*
X101133529Y-119183946D01*
X101111007Y-119192004D01*
X101087803Y-119197816D01*
X101064142Y-119201326D01*
X101040250Y-119202500D01*
X100127750Y-119202500D01*
X100103858Y-119201326D01*
X100080197Y-119197816D01*
X100056993Y-119192004D01*
X100034471Y-119183946D01*
X100012847Y-119173718D01*
X99992330Y-119161421D01*
X99973117Y-119147171D01*
X99955393Y-119131107D01*
X99939329Y-119113383D01*
X99925079Y-119094170D01*
X99912782Y-119073653D01*
X99902554Y-119052029D01*
X99894496Y-119029507D01*
X99888684Y-119006303D01*
X99885174Y-118982642D01*
X99884000Y-118958750D01*
X99884000Y-118471250D01*
X99885174Y-118447358D01*
X99888684Y-118423697D01*
X99894496Y-118400493D01*
X99902554Y-118377971D01*
X99912782Y-118356347D01*
X99925079Y-118335830D01*
X99939329Y-118316617D01*
X99955393Y-118298893D01*
X99973117Y-118282829D01*
X99992330Y-118268579D01*
X100012847Y-118256282D01*
X100034471Y-118246054D01*
X100056993Y-118237996D01*
X100080197Y-118232184D01*
X100103858Y-118228674D01*
X100127750Y-118227500D01*
X101040250Y-118227500D01*
X101064142Y-118228674D01*
G37*
G36*
X102883642Y-113601174D02*
G01*
X102907303Y-113604684D01*
X102930507Y-113610496D01*
X102953029Y-113618554D01*
X102974653Y-113628782D01*
X102995170Y-113641079D01*
X103014383Y-113655329D01*
X103032107Y-113671393D01*
X103048171Y-113689117D01*
X103062421Y-113708330D01*
X103074718Y-113728847D01*
X103084946Y-113750471D01*
X103093004Y-113772993D01*
X103098816Y-113796197D01*
X103102326Y-113819858D01*
X103103500Y-113843750D01*
X103103500Y-114756250D01*
X103102326Y-114780142D01*
X103098816Y-114803803D01*
X103093004Y-114827007D01*
X103084946Y-114849529D01*
X103074718Y-114871153D01*
X103062421Y-114891670D01*
X103048171Y-114910883D01*
X103032107Y-114928607D01*
X103014383Y-114944671D01*
X102995170Y-114958921D01*
X102974653Y-114971218D01*
X102953029Y-114981446D01*
X102930507Y-114989504D01*
X102907303Y-114995316D01*
X102883642Y-114998826D01*
X102859750Y-115000000D01*
X102372250Y-115000000D01*
X102348358Y-114998826D01*
X102324697Y-114995316D01*
X102301493Y-114989504D01*
X102278971Y-114981446D01*
X102257347Y-114971218D01*
X102236830Y-114958921D01*
X102217617Y-114944671D01*
X102199893Y-114928607D01*
X102183829Y-114910883D01*
X102169579Y-114891670D01*
X102157282Y-114871153D01*
X102147054Y-114849529D01*
X102138996Y-114827007D01*
X102133184Y-114803803D01*
X102129674Y-114780142D01*
X102128500Y-114756250D01*
X102128500Y-113843750D01*
X102129674Y-113819858D01*
X102133184Y-113796197D01*
X102138996Y-113772993D01*
X102147054Y-113750471D01*
X102157282Y-113728847D01*
X102169579Y-113708330D01*
X102183829Y-113689117D01*
X102199893Y-113671393D01*
X102217617Y-113655329D01*
X102236830Y-113641079D01*
X102257347Y-113628782D01*
X102278971Y-113618554D01*
X102301493Y-113610496D01*
X102324697Y-113604684D01*
X102348358Y-113601174D01*
X102372250Y-113600000D01*
X102859750Y-113600000D01*
X102883642Y-113601174D01*
G37*
G36*
X104758642Y-113601174D02*
G01*
X104782303Y-113604684D01*
X104805507Y-113610496D01*
X104828029Y-113618554D01*
X104849653Y-113628782D01*
X104870170Y-113641079D01*
X104889383Y-113655329D01*
X104907107Y-113671393D01*
X104923171Y-113689117D01*
X104937421Y-113708330D01*
X104949718Y-113728847D01*
X104959946Y-113750471D01*
X104968004Y-113772993D01*
X104973816Y-113796197D01*
X104977326Y-113819858D01*
X104978500Y-113843750D01*
X104978500Y-114756250D01*
X104977326Y-114780142D01*
X104973816Y-114803803D01*
X104968004Y-114827007D01*
X104959946Y-114849529D01*
X104949718Y-114871153D01*
X104937421Y-114891670D01*
X104923171Y-114910883D01*
X104907107Y-114928607D01*
X104889383Y-114944671D01*
X104870170Y-114958921D01*
X104849653Y-114971218D01*
X104828029Y-114981446D01*
X104805507Y-114989504D01*
X104782303Y-114995316D01*
X104758642Y-114998826D01*
X104734750Y-115000000D01*
X104247250Y-115000000D01*
X104223358Y-114998826D01*
X104199697Y-114995316D01*
X104176493Y-114989504D01*
X104153971Y-114981446D01*
X104132347Y-114971218D01*
X104111830Y-114958921D01*
X104092617Y-114944671D01*
X104074893Y-114928607D01*
X104058829Y-114910883D01*
X104044579Y-114891670D01*
X104032282Y-114871153D01*
X104022054Y-114849529D01*
X104013996Y-114827007D01*
X104008184Y-114803803D01*
X104004674Y-114780142D01*
X104003500Y-114756250D01*
X104003500Y-113843750D01*
X104004674Y-113819858D01*
X104008184Y-113796197D01*
X104013996Y-113772993D01*
X104022054Y-113750471D01*
X104032282Y-113728847D01*
X104044579Y-113708330D01*
X104058829Y-113689117D01*
X104074893Y-113671393D01*
X104092617Y-113655329D01*
X104111830Y-113641079D01*
X104132347Y-113628782D01*
X104153971Y-113618554D01*
X104176493Y-113610496D01*
X104199697Y-113604684D01*
X104223358Y-113601174D01*
X104247250Y-113600000D01*
X104734750Y-113600000D01*
X104758642Y-113601174D01*
G37*
G36*
X95263642Y-96837174D02*
G01*
X95287303Y-96840684D01*
X95310507Y-96846496D01*
X95333029Y-96854554D01*
X95354653Y-96864782D01*
X95375170Y-96877079D01*
X95394383Y-96891329D01*
X95412107Y-96907393D01*
X95428171Y-96925117D01*
X95442421Y-96944330D01*
X95454718Y-96964847D01*
X95464946Y-96986471D01*
X95473004Y-97008993D01*
X95478816Y-97032197D01*
X95482326Y-97055858D01*
X95483500Y-97079750D01*
X95483500Y-97992250D01*
X95482326Y-98016142D01*
X95478816Y-98039803D01*
X95473004Y-98063007D01*
X95464946Y-98085529D01*
X95454718Y-98107153D01*
X95442421Y-98127670D01*
X95428171Y-98146883D01*
X95412107Y-98164607D01*
X95394383Y-98180671D01*
X95375170Y-98194921D01*
X95354653Y-98207218D01*
X95333029Y-98217446D01*
X95310507Y-98225504D01*
X95287303Y-98231316D01*
X95263642Y-98234826D01*
X95239750Y-98236000D01*
X94752250Y-98236000D01*
X94728358Y-98234826D01*
X94704697Y-98231316D01*
X94681493Y-98225504D01*
X94658971Y-98217446D01*
X94637347Y-98207218D01*
X94616830Y-98194921D01*
X94597617Y-98180671D01*
X94579893Y-98164607D01*
X94563829Y-98146883D01*
X94549579Y-98127670D01*
X94537282Y-98107153D01*
X94527054Y-98085529D01*
X94518996Y-98063007D01*
X94513184Y-98039803D01*
X94509674Y-98016142D01*
X94508500Y-97992250D01*
X94508500Y-97079750D01*
X94509674Y-97055858D01*
X94513184Y-97032197D01*
X94518996Y-97008993D01*
X94527054Y-96986471D01*
X94537282Y-96964847D01*
X94549579Y-96944330D01*
X94563829Y-96925117D01*
X94579893Y-96907393D01*
X94597617Y-96891329D01*
X94616830Y-96877079D01*
X94637347Y-96864782D01*
X94658971Y-96854554D01*
X94681493Y-96846496D01*
X94704697Y-96840684D01*
X94728358Y-96837174D01*
X94752250Y-96836000D01*
X95239750Y-96836000D01*
X95263642Y-96837174D01*
G37*
G36*
X93388642Y-96837174D02*
G01*
X93412303Y-96840684D01*
X93435507Y-96846496D01*
X93458029Y-96854554D01*
X93479653Y-96864782D01*
X93500170Y-96877079D01*
X93519383Y-96891329D01*
X93537107Y-96907393D01*
X93553171Y-96925117D01*
X93567421Y-96944330D01*
X93579718Y-96964847D01*
X93589946Y-96986471D01*
X93598004Y-97008993D01*
X93603816Y-97032197D01*
X93607326Y-97055858D01*
X93608500Y-97079750D01*
X93608500Y-97992250D01*
X93607326Y-98016142D01*
X93603816Y-98039803D01*
X93598004Y-98063007D01*
X93589946Y-98085529D01*
X93579718Y-98107153D01*
X93567421Y-98127670D01*
X93553171Y-98146883D01*
X93537107Y-98164607D01*
X93519383Y-98180671D01*
X93500170Y-98194921D01*
X93479653Y-98207218D01*
X93458029Y-98217446D01*
X93435507Y-98225504D01*
X93412303Y-98231316D01*
X93388642Y-98234826D01*
X93364750Y-98236000D01*
X92877250Y-98236000D01*
X92853358Y-98234826D01*
X92829697Y-98231316D01*
X92806493Y-98225504D01*
X92783971Y-98217446D01*
X92762347Y-98207218D01*
X92741830Y-98194921D01*
X92722617Y-98180671D01*
X92704893Y-98164607D01*
X92688829Y-98146883D01*
X92674579Y-98127670D01*
X92662282Y-98107153D01*
X92652054Y-98085529D01*
X92643996Y-98063007D01*
X92638184Y-98039803D01*
X92634674Y-98016142D01*
X92633500Y-97992250D01*
X92633500Y-97079750D01*
X92634674Y-97055858D01*
X92638184Y-97032197D01*
X92643996Y-97008993D01*
X92652054Y-96986471D01*
X92662282Y-96964847D01*
X92674579Y-96944330D01*
X92688829Y-96925117D01*
X92704893Y-96907393D01*
X92722617Y-96891329D01*
X92741830Y-96877079D01*
X92762347Y-96864782D01*
X92783971Y-96854554D01*
X92806493Y-96846496D01*
X92829697Y-96840684D01*
X92853358Y-96837174D01*
X92877250Y-96836000D01*
X93364750Y-96836000D01*
X93388642Y-96837174D01*
G37*
G36*
X117461091Y-93836253D02*
G01*
X117482326Y-93839403D01*
X117503150Y-93844619D01*
X117523362Y-93851851D01*
X117542768Y-93861030D01*
X117561181Y-93872066D01*
X117578424Y-93884854D01*
X117594330Y-93899270D01*
X117608746Y-93915176D01*
X117621534Y-93932419D01*
X117632570Y-93950832D01*
X117641749Y-93970238D01*
X117648981Y-93990450D01*
X117654197Y-94011274D01*
X117657347Y-94032509D01*
X117658400Y-94053950D01*
X117658400Y-94566450D01*
X117657347Y-94587891D01*
X117654197Y-94609126D01*
X117648981Y-94629950D01*
X117641749Y-94650162D01*
X117632570Y-94669568D01*
X117621534Y-94687981D01*
X117608746Y-94705224D01*
X117594330Y-94721130D01*
X117578424Y-94735546D01*
X117561181Y-94748334D01*
X117542768Y-94759370D01*
X117523362Y-94768549D01*
X117503150Y-94775781D01*
X117482326Y-94780997D01*
X117461091Y-94784147D01*
X117439650Y-94785200D01*
X117002150Y-94785200D01*
X116980709Y-94784147D01*
X116959474Y-94780997D01*
X116938650Y-94775781D01*
X116918438Y-94768549D01*
X116899032Y-94759370D01*
X116880619Y-94748334D01*
X116863376Y-94735546D01*
X116847470Y-94721130D01*
X116833054Y-94705224D01*
X116820266Y-94687981D01*
X116809230Y-94669568D01*
X116800051Y-94650162D01*
X116792819Y-94629950D01*
X116787603Y-94609126D01*
X116784453Y-94587891D01*
X116783400Y-94566450D01*
X116783400Y-94053950D01*
X116784453Y-94032509D01*
X116787603Y-94011274D01*
X116792819Y-93990450D01*
X116800051Y-93970238D01*
X116809230Y-93950832D01*
X116820266Y-93932419D01*
X116833054Y-93915176D01*
X116847470Y-93899270D01*
X116863376Y-93884854D01*
X116880619Y-93872066D01*
X116899032Y-93861030D01*
X116918438Y-93851851D01*
X116938650Y-93844619D01*
X116959474Y-93839403D01*
X116980709Y-93836253D01*
X117002150Y-93835200D01*
X117439650Y-93835200D01*
X117461091Y-93836253D01*
G37*
G36*
X119036091Y-93836253D02*
G01*
X119057326Y-93839403D01*
X119078150Y-93844619D01*
X119098362Y-93851851D01*
X119117768Y-93861030D01*
X119136181Y-93872066D01*
X119153424Y-93884854D01*
X119169330Y-93899270D01*
X119183746Y-93915176D01*
X119196534Y-93932419D01*
X119207570Y-93950832D01*
X119216749Y-93970238D01*
X119223981Y-93990450D01*
X119229197Y-94011274D01*
X119232347Y-94032509D01*
X119233400Y-94053950D01*
X119233400Y-94566450D01*
X119232347Y-94587891D01*
X119229197Y-94609126D01*
X119223981Y-94629950D01*
X119216749Y-94650162D01*
X119207570Y-94669568D01*
X119196534Y-94687981D01*
X119183746Y-94705224D01*
X119169330Y-94721130D01*
X119153424Y-94735546D01*
X119136181Y-94748334D01*
X119117768Y-94759370D01*
X119098362Y-94768549D01*
X119078150Y-94775781D01*
X119057326Y-94780997D01*
X119036091Y-94784147D01*
X119014650Y-94785200D01*
X118577150Y-94785200D01*
X118555709Y-94784147D01*
X118534474Y-94780997D01*
X118513650Y-94775781D01*
X118493438Y-94768549D01*
X118474032Y-94759370D01*
X118455619Y-94748334D01*
X118438376Y-94735546D01*
X118422470Y-94721130D01*
X118408054Y-94705224D01*
X118395266Y-94687981D01*
X118384230Y-94669568D01*
X118375051Y-94650162D01*
X118367819Y-94629950D01*
X118362603Y-94609126D01*
X118359453Y-94587891D01*
X118358400Y-94566450D01*
X118358400Y-94053950D01*
X118359453Y-94032509D01*
X118362603Y-94011274D01*
X118367819Y-93990450D01*
X118375051Y-93970238D01*
X118384230Y-93950832D01*
X118395266Y-93932419D01*
X118408054Y-93915176D01*
X118422470Y-93899270D01*
X118438376Y-93884854D01*
X118455619Y-93872066D01*
X118474032Y-93861030D01*
X118493438Y-93851851D01*
X118513650Y-93844619D01*
X118534474Y-93839403D01*
X118555709Y-93836253D01*
X118577150Y-93835200D01*
X119014650Y-93835200D01*
X119036091Y-93836253D01*
G37*
G36*
X105904191Y-110778053D02*
G01*
X105925426Y-110781203D01*
X105946250Y-110786419D01*
X105966462Y-110793651D01*
X105985868Y-110802830D01*
X106004281Y-110813866D01*
X106021524Y-110826654D01*
X106037430Y-110841070D01*
X106051846Y-110856976D01*
X106064634Y-110874219D01*
X106075670Y-110892632D01*
X106084849Y-110912038D01*
X106092081Y-110932250D01*
X106097297Y-110953074D01*
X106100447Y-110974309D01*
X106101500Y-110995750D01*
X106101500Y-111508250D01*
X106100447Y-111529691D01*
X106097297Y-111550926D01*
X106092081Y-111571750D01*
X106084849Y-111591962D01*
X106075670Y-111611368D01*
X106064634Y-111629781D01*
X106051846Y-111647024D01*
X106037430Y-111662930D01*
X106021524Y-111677346D01*
X106004281Y-111690134D01*
X105985868Y-111701170D01*
X105966462Y-111710349D01*
X105946250Y-111717581D01*
X105925426Y-111722797D01*
X105904191Y-111725947D01*
X105882750Y-111727000D01*
X105445250Y-111727000D01*
X105423809Y-111725947D01*
X105402574Y-111722797D01*
X105381750Y-111717581D01*
X105361538Y-111710349D01*
X105342132Y-111701170D01*
X105323719Y-111690134D01*
X105306476Y-111677346D01*
X105290570Y-111662930D01*
X105276154Y-111647024D01*
X105263366Y-111629781D01*
X105252330Y-111611368D01*
X105243151Y-111591962D01*
X105235919Y-111571750D01*
X105230703Y-111550926D01*
X105227553Y-111529691D01*
X105226500Y-111508250D01*
X105226500Y-110995750D01*
X105227553Y-110974309D01*
X105230703Y-110953074D01*
X105235919Y-110932250D01*
X105243151Y-110912038D01*
X105252330Y-110892632D01*
X105263366Y-110874219D01*
X105276154Y-110856976D01*
X105290570Y-110841070D01*
X105306476Y-110826654D01*
X105323719Y-110813866D01*
X105342132Y-110802830D01*
X105361538Y-110793651D01*
X105381750Y-110786419D01*
X105402574Y-110781203D01*
X105423809Y-110778053D01*
X105445250Y-110777000D01*
X105882750Y-110777000D01*
X105904191Y-110778053D01*
G37*
G36*
X107479191Y-110778053D02*
G01*
X107500426Y-110781203D01*
X107521250Y-110786419D01*
X107541462Y-110793651D01*
X107560868Y-110802830D01*
X107579281Y-110813866D01*
X107596524Y-110826654D01*
X107612430Y-110841070D01*
X107626846Y-110856976D01*
X107639634Y-110874219D01*
X107650670Y-110892632D01*
X107659849Y-110912038D01*
X107667081Y-110932250D01*
X107672297Y-110953074D01*
X107675447Y-110974309D01*
X107676500Y-110995750D01*
X107676500Y-111508250D01*
X107675447Y-111529691D01*
X107672297Y-111550926D01*
X107667081Y-111571750D01*
X107659849Y-111591962D01*
X107650670Y-111611368D01*
X107639634Y-111629781D01*
X107626846Y-111647024D01*
X107612430Y-111662930D01*
X107596524Y-111677346D01*
X107579281Y-111690134D01*
X107560868Y-111701170D01*
X107541462Y-111710349D01*
X107521250Y-111717581D01*
X107500426Y-111722797D01*
X107479191Y-111725947D01*
X107457750Y-111727000D01*
X107020250Y-111727000D01*
X106998809Y-111725947D01*
X106977574Y-111722797D01*
X106956750Y-111717581D01*
X106936538Y-111710349D01*
X106917132Y-111701170D01*
X106898719Y-111690134D01*
X106881476Y-111677346D01*
X106865570Y-111662930D01*
X106851154Y-111647024D01*
X106838366Y-111629781D01*
X106827330Y-111611368D01*
X106818151Y-111591962D01*
X106810919Y-111571750D01*
X106805703Y-111550926D01*
X106802553Y-111529691D01*
X106801500Y-111508250D01*
X106801500Y-110995750D01*
X106802553Y-110974309D01*
X106805703Y-110953074D01*
X106810919Y-110932250D01*
X106818151Y-110912038D01*
X106827330Y-110892632D01*
X106838366Y-110874219D01*
X106851154Y-110856976D01*
X106865570Y-110841070D01*
X106881476Y-110826654D01*
X106898719Y-110813866D01*
X106917132Y-110802830D01*
X106936538Y-110793651D01*
X106956750Y-110786419D01*
X106977574Y-110781203D01*
X106998809Y-110778053D01*
X107020250Y-110777000D01*
X107457750Y-110777000D01*
X107479191Y-110778053D01*
G37*
G36*
X110005691Y-95296053D02*
G01*
X110026926Y-95299203D01*
X110047750Y-95304419D01*
X110067962Y-95311651D01*
X110087368Y-95320830D01*
X110105781Y-95331866D01*
X110123024Y-95344654D01*
X110138930Y-95359070D01*
X110153346Y-95374976D01*
X110166134Y-95392219D01*
X110177170Y-95410632D01*
X110186349Y-95430038D01*
X110193581Y-95450250D01*
X110198797Y-95471074D01*
X110201947Y-95492309D01*
X110203000Y-95513750D01*
X110203000Y-95951250D01*
X110201947Y-95972691D01*
X110198797Y-95993926D01*
X110193581Y-96014750D01*
X110186349Y-96034962D01*
X110177170Y-96054368D01*
X110166134Y-96072781D01*
X110153346Y-96090024D01*
X110138930Y-96105930D01*
X110123024Y-96120346D01*
X110105781Y-96133134D01*
X110087368Y-96144170D01*
X110067962Y-96153349D01*
X110047750Y-96160581D01*
X110026926Y-96165797D01*
X110005691Y-96168947D01*
X109984250Y-96170000D01*
X109471750Y-96170000D01*
X109450309Y-96168947D01*
X109429074Y-96165797D01*
X109408250Y-96160581D01*
X109388038Y-96153349D01*
X109368632Y-96144170D01*
X109350219Y-96133134D01*
X109332976Y-96120346D01*
X109317070Y-96105930D01*
X109302654Y-96090024D01*
X109289866Y-96072781D01*
X109278830Y-96054368D01*
X109269651Y-96034962D01*
X109262419Y-96014750D01*
X109257203Y-95993926D01*
X109254053Y-95972691D01*
X109253000Y-95951250D01*
X109253000Y-95513750D01*
X109254053Y-95492309D01*
X109257203Y-95471074D01*
X109262419Y-95450250D01*
X109269651Y-95430038D01*
X109278830Y-95410632D01*
X109289866Y-95392219D01*
X109302654Y-95374976D01*
X109317070Y-95359070D01*
X109332976Y-95344654D01*
X109350219Y-95331866D01*
X109368632Y-95320830D01*
X109388038Y-95311651D01*
X109408250Y-95304419D01*
X109429074Y-95299203D01*
X109450309Y-95296053D01*
X109471750Y-95295000D01*
X109984250Y-95295000D01*
X110005691Y-95296053D01*
G37*
G36*
X110005691Y-96871053D02*
G01*
X110026926Y-96874203D01*
X110047750Y-96879419D01*
X110067962Y-96886651D01*
X110087368Y-96895830D01*
X110105781Y-96906866D01*
X110123024Y-96919654D01*
X110138930Y-96934070D01*
X110153346Y-96949976D01*
X110166134Y-96967219D01*
X110177170Y-96985632D01*
X110186349Y-97005038D01*
X110193581Y-97025250D01*
X110198797Y-97046074D01*
X110201947Y-97067309D01*
X110203000Y-97088750D01*
X110203000Y-97526250D01*
X110201947Y-97547691D01*
X110198797Y-97568926D01*
X110193581Y-97589750D01*
X110186349Y-97609962D01*
X110177170Y-97629368D01*
X110166134Y-97647781D01*
X110153346Y-97665024D01*
X110138930Y-97680930D01*
X110123024Y-97695346D01*
X110105781Y-97708134D01*
X110087368Y-97719170D01*
X110067962Y-97728349D01*
X110047750Y-97735581D01*
X110026926Y-97740797D01*
X110005691Y-97743947D01*
X109984250Y-97745000D01*
X109471750Y-97745000D01*
X109450309Y-97743947D01*
X109429074Y-97740797D01*
X109408250Y-97735581D01*
X109388038Y-97728349D01*
X109368632Y-97719170D01*
X109350219Y-97708134D01*
X109332976Y-97695346D01*
X109317070Y-97680930D01*
X109302654Y-97665024D01*
X109289866Y-97647781D01*
X109278830Y-97629368D01*
X109269651Y-97609962D01*
X109262419Y-97589750D01*
X109257203Y-97568926D01*
X109254053Y-97547691D01*
X109253000Y-97526250D01*
X109253000Y-97088750D01*
X109254053Y-97067309D01*
X109257203Y-97046074D01*
X109262419Y-97025250D01*
X109269651Y-97005038D01*
X109278830Y-96985632D01*
X109289866Y-96967219D01*
X109302654Y-96949976D01*
X109317070Y-96934070D01*
X109332976Y-96919654D01*
X109350219Y-96906866D01*
X109368632Y-96895830D01*
X109388038Y-96886651D01*
X109408250Y-96879419D01*
X109429074Y-96874203D01*
X109450309Y-96871053D01*
X109471750Y-96870000D01*
X109984250Y-96870000D01*
X110005691Y-96871053D01*
G37*
G36*
X113200642Y-107505174D02*
G01*
X113224303Y-107508684D01*
X113247507Y-107514496D01*
X113270029Y-107522554D01*
X113291653Y-107532782D01*
X113312170Y-107545079D01*
X113331383Y-107559329D01*
X113349107Y-107575393D01*
X113365171Y-107593117D01*
X113379421Y-107612330D01*
X113391718Y-107632847D01*
X113401946Y-107654471D01*
X113410004Y-107676993D01*
X113415816Y-107700197D01*
X113419326Y-107723858D01*
X113420500Y-107747750D01*
X113420500Y-108660250D01*
X113419326Y-108684142D01*
X113415816Y-108707803D01*
X113410004Y-108731007D01*
X113401946Y-108753529D01*
X113391718Y-108775153D01*
X113379421Y-108795670D01*
X113365171Y-108814883D01*
X113349107Y-108832607D01*
X113331383Y-108848671D01*
X113312170Y-108862921D01*
X113291653Y-108875218D01*
X113270029Y-108885446D01*
X113247507Y-108893504D01*
X113224303Y-108899316D01*
X113200642Y-108902826D01*
X113176750Y-108904000D01*
X112689250Y-108904000D01*
X112665358Y-108902826D01*
X112641697Y-108899316D01*
X112618493Y-108893504D01*
X112595971Y-108885446D01*
X112574347Y-108875218D01*
X112553830Y-108862921D01*
X112534617Y-108848671D01*
X112516893Y-108832607D01*
X112500829Y-108814883D01*
X112486579Y-108795670D01*
X112474282Y-108775153D01*
X112464054Y-108753529D01*
X112455996Y-108731007D01*
X112450184Y-108707803D01*
X112446674Y-108684142D01*
X112445500Y-108660250D01*
X112445500Y-107747750D01*
X112446674Y-107723858D01*
X112450184Y-107700197D01*
X112455996Y-107676993D01*
X112464054Y-107654471D01*
X112474282Y-107632847D01*
X112486579Y-107612330D01*
X112500829Y-107593117D01*
X112516893Y-107575393D01*
X112534617Y-107559329D01*
X112553830Y-107545079D01*
X112574347Y-107532782D01*
X112595971Y-107522554D01*
X112618493Y-107514496D01*
X112641697Y-107508684D01*
X112665358Y-107505174D01*
X112689250Y-107504000D01*
X113176750Y-107504000D01*
X113200642Y-107505174D01*
G37*
G36*
X115075642Y-107505174D02*
G01*
X115099303Y-107508684D01*
X115122507Y-107514496D01*
X115145029Y-107522554D01*
X115166653Y-107532782D01*
X115187170Y-107545079D01*
X115206383Y-107559329D01*
X115224107Y-107575393D01*
X115240171Y-107593117D01*
X115254421Y-107612330D01*
X115266718Y-107632847D01*
X115276946Y-107654471D01*
X115285004Y-107676993D01*
X115290816Y-107700197D01*
X115294326Y-107723858D01*
X115295500Y-107747750D01*
X115295500Y-108660250D01*
X115294326Y-108684142D01*
X115290816Y-108707803D01*
X115285004Y-108731007D01*
X115276946Y-108753529D01*
X115266718Y-108775153D01*
X115254421Y-108795670D01*
X115240171Y-108814883D01*
X115224107Y-108832607D01*
X115206383Y-108848671D01*
X115187170Y-108862921D01*
X115166653Y-108875218D01*
X115145029Y-108885446D01*
X115122507Y-108893504D01*
X115099303Y-108899316D01*
X115075642Y-108902826D01*
X115051750Y-108904000D01*
X114564250Y-108904000D01*
X114540358Y-108902826D01*
X114516697Y-108899316D01*
X114493493Y-108893504D01*
X114470971Y-108885446D01*
X114449347Y-108875218D01*
X114428830Y-108862921D01*
X114409617Y-108848671D01*
X114391893Y-108832607D01*
X114375829Y-108814883D01*
X114361579Y-108795670D01*
X114349282Y-108775153D01*
X114339054Y-108753529D01*
X114330996Y-108731007D01*
X114325184Y-108707803D01*
X114321674Y-108684142D01*
X114320500Y-108660250D01*
X114320500Y-107747750D01*
X114321674Y-107723858D01*
X114325184Y-107700197D01*
X114330996Y-107676993D01*
X114339054Y-107654471D01*
X114349282Y-107632847D01*
X114361579Y-107612330D01*
X114375829Y-107593117D01*
X114391893Y-107575393D01*
X114409617Y-107559329D01*
X114428830Y-107545079D01*
X114449347Y-107532782D01*
X114470971Y-107522554D01*
X114493493Y-107514496D01*
X114516697Y-107508684D01*
X114540358Y-107505174D01*
X114564250Y-107504000D01*
X115051750Y-107504000D01*
X115075642Y-107505174D01*
G37*
G36*
X99521703Y-107396722D02*
G01*
X99536264Y-107398882D01*
X99550543Y-107402459D01*
X99564403Y-107407418D01*
X99577710Y-107413712D01*
X99590336Y-107421280D01*
X99602159Y-107430048D01*
X99613066Y-107439934D01*
X99622952Y-107450841D01*
X99631720Y-107462664D01*
X99639288Y-107475290D01*
X99645582Y-107488597D01*
X99650541Y-107502457D01*
X99654118Y-107516736D01*
X99656278Y-107531297D01*
X99657000Y-107546000D01*
X99657000Y-107846000D01*
X99656278Y-107860703D01*
X99654118Y-107875264D01*
X99650541Y-107889543D01*
X99645582Y-107903403D01*
X99639288Y-107916710D01*
X99631720Y-107929336D01*
X99622952Y-107941159D01*
X99613066Y-107952066D01*
X99602159Y-107961952D01*
X99590336Y-107970720D01*
X99577710Y-107978288D01*
X99564403Y-107984582D01*
X99550543Y-107989541D01*
X99536264Y-107993118D01*
X99521703Y-107995278D01*
X99507000Y-107996000D01*
X97857000Y-107996000D01*
X97842297Y-107995278D01*
X97827736Y-107993118D01*
X97813457Y-107989541D01*
X97799597Y-107984582D01*
X97786290Y-107978288D01*
X97773664Y-107970720D01*
X97761841Y-107961952D01*
X97750934Y-107952066D01*
X97741048Y-107941159D01*
X97732280Y-107929336D01*
X97724712Y-107916710D01*
X97718418Y-107903403D01*
X97713459Y-107889543D01*
X97709882Y-107875264D01*
X97707722Y-107860703D01*
X97707000Y-107846000D01*
X97707000Y-107546000D01*
X97707722Y-107531297D01*
X97709882Y-107516736D01*
X97713459Y-107502457D01*
X97718418Y-107488597D01*
X97724712Y-107475290D01*
X97732280Y-107462664D01*
X97741048Y-107450841D01*
X97750934Y-107439934D01*
X97761841Y-107430048D01*
X97773664Y-107421280D01*
X97786290Y-107413712D01*
X97799597Y-107407418D01*
X97813457Y-107402459D01*
X97827736Y-107398882D01*
X97842297Y-107396722D01*
X97857000Y-107396000D01*
X99507000Y-107396000D01*
X99521703Y-107396722D01*
G37*
G36*
X99521703Y-106126722D02*
G01*
X99536264Y-106128882D01*
X99550543Y-106132459D01*
X99564403Y-106137418D01*
X99577710Y-106143712D01*
X99590336Y-106151280D01*
X99602159Y-106160048D01*
X99613066Y-106169934D01*
X99622952Y-106180841D01*
X99631720Y-106192664D01*
X99639288Y-106205290D01*
X99645582Y-106218597D01*
X99650541Y-106232457D01*
X99654118Y-106246736D01*
X99656278Y-106261297D01*
X99657000Y-106276000D01*
X99657000Y-106576000D01*
X99656278Y-106590703D01*
X99654118Y-106605264D01*
X99650541Y-106619543D01*
X99645582Y-106633403D01*
X99639288Y-106646710D01*
X99631720Y-106659336D01*
X99622952Y-106671159D01*
X99613066Y-106682066D01*
X99602159Y-106691952D01*
X99590336Y-106700720D01*
X99577710Y-106708288D01*
X99564403Y-106714582D01*
X99550543Y-106719541D01*
X99536264Y-106723118D01*
X99521703Y-106725278D01*
X99507000Y-106726000D01*
X97857000Y-106726000D01*
X97842297Y-106725278D01*
X97827736Y-106723118D01*
X97813457Y-106719541D01*
X97799597Y-106714582D01*
X97786290Y-106708288D01*
X97773664Y-106700720D01*
X97761841Y-106691952D01*
X97750934Y-106682066D01*
X97741048Y-106671159D01*
X97732280Y-106659336D01*
X97724712Y-106646710D01*
X97718418Y-106633403D01*
X97713459Y-106619543D01*
X97709882Y-106605264D01*
X97707722Y-106590703D01*
X97707000Y-106576000D01*
X97707000Y-106276000D01*
X97707722Y-106261297D01*
X97709882Y-106246736D01*
X97713459Y-106232457D01*
X97718418Y-106218597D01*
X97724712Y-106205290D01*
X97732280Y-106192664D01*
X97741048Y-106180841D01*
X97750934Y-106169934D01*
X97761841Y-106160048D01*
X97773664Y-106151280D01*
X97786290Y-106143712D01*
X97799597Y-106137418D01*
X97813457Y-106132459D01*
X97827736Y-106128882D01*
X97842297Y-106126722D01*
X97857000Y-106126000D01*
X99507000Y-106126000D01*
X99521703Y-106126722D01*
G37*
G36*
X99521703Y-104856722D02*
G01*
X99536264Y-104858882D01*
X99550543Y-104862459D01*
X99564403Y-104867418D01*
X99577710Y-104873712D01*
X99590336Y-104881280D01*
X99602159Y-104890048D01*
X99613066Y-104899934D01*
X99622952Y-104910841D01*
X99631720Y-104922664D01*
X99639288Y-104935290D01*
X99645582Y-104948597D01*
X99650541Y-104962457D01*
X99654118Y-104976736D01*
X99656278Y-104991297D01*
X99657000Y-105006000D01*
X99657000Y-105306000D01*
X99656278Y-105320703D01*
X99654118Y-105335264D01*
X99650541Y-105349543D01*
X99645582Y-105363403D01*
X99639288Y-105376710D01*
X99631720Y-105389336D01*
X99622952Y-105401159D01*
X99613066Y-105412066D01*
X99602159Y-105421952D01*
X99590336Y-105430720D01*
X99577710Y-105438288D01*
X99564403Y-105444582D01*
X99550543Y-105449541D01*
X99536264Y-105453118D01*
X99521703Y-105455278D01*
X99507000Y-105456000D01*
X97857000Y-105456000D01*
X97842297Y-105455278D01*
X97827736Y-105453118D01*
X97813457Y-105449541D01*
X97799597Y-105444582D01*
X97786290Y-105438288D01*
X97773664Y-105430720D01*
X97761841Y-105421952D01*
X97750934Y-105412066D01*
X97741048Y-105401159D01*
X97732280Y-105389336D01*
X97724712Y-105376710D01*
X97718418Y-105363403D01*
X97713459Y-105349543D01*
X97709882Y-105335264D01*
X97707722Y-105320703D01*
X97707000Y-105306000D01*
X97707000Y-105006000D01*
X97707722Y-104991297D01*
X97709882Y-104976736D01*
X97713459Y-104962457D01*
X97718418Y-104948597D01*
X97724712Y-104935290D01*
X97732280Y-104922664D01*
X97741048Y-104910841D01*
X97750934Y-104899934D01*
X97761841Y-104890048D01*
X97773664Y-104881280D01*
X97786290Y-104873712D01*
X97799597Y-104867418D01*
X97813457Y-104862459D01*
X97827736Y-104858882D01*
X97842297Y-104856722D01*
X97857000Y-104856000D01*
X99507000Y-104856000D01*
X99521703Y-104856722D01*
G37*
G36*
X99521703Y-103586722D02*
G01*
X99536264Y-103588882D01*
X99550543Y-103592459D01*
X99564403Y-103597418D01*
X99577710Y-103603712D01*
X99590336Y-103611280D01*
X99602159Y-103620048D01*
X99613066Y-103629934D01*
X99622952Y-103640841D01*
X99631720Y-103652664D01*
X99639288Y-103665290D01*
X99645582Y-103678597D01*
X99650541Y-103692457D01*
X99654118Y-103706736D01*
X99656278Y-103721297D01*
X99657000Y-103736000D01*
X99657000Y-104036000D01*
X99656278Y-104050703D01*
X99654118Y-104065264D01*
X99650541Y-104079543D01*
X99645582Y-104093403D01*
X99639288Y-104106710D01*
X99631720Y-104119336D01*
X99622952Y-104131159D01*
X99613066Y-104142066D01*
X99602159Y-104151952D01*
X99590336Y-104160720D01*
X99577710Y-104168288D01*
X99564403Y-104174582D01*
X99550543Y-104179541D01*
X99536264Y-104183118D01*
X99521703Y-104185278D01*
X99507000Y-104186000D01*
X97857000Y-104186000D01*
X97842297Y-104185278D01*
X97827736Y-104183118D01*
X97813457Y-104179541D01*
X97799597Y-104174582D01*
X97786290Y-104168288D01*
X97773664Y-104160720D01*
X97761841Y-104151952D01*
X97750934Y-104142066D01*
X97741048Y-104131159D01*
X97732280Y-104119336D01*
X97724712Y-104106710D01*
X97718418Y-104093403D01*
X97713459Y-104079543D01*
X97709882Y-104065264D01*
X97707722Y-104050703D01*
X97707000Y-104036000D01*
X97707000Y-103736000D01*
X97707722Y-103721297D01*
X97709882Y-103706736D01*
X97713459Y-103692457D01*
X97718418Y-103678597D01*
X97724712Y-103665290D01*
X97732280Y-103652664D01*
X97741048Y-103640841D01*
X97750934Y-103629934D01*
X97761841Y-103620048D01*
X97773664Y-103611280D01*
X97786290Y-103603712D01*
X97799597Y-103597418D01*
X97813457Y-103592459D01*
X97827736Y-103588882D01*
X97842297Y-103586722D01*
X97857000Y-103586000D01*
X99507000Y-103586000D01*
X99521703Y-103586722D01*
G37*
G36*
X99521703Y-102316722D02*
G01*
X99536264Y-102318882D01*
X99550543Y-102322459D01*
X99564403Y-102327418D01*
X99577710Y-102333712D01*
X99590336Y-102341280D01*
X99602159Y-102350048D01*
X99613066Y-102359934D01*
X99622952Y-102370841D01*
X99631720Y-102382664D01*
X99639288Y-102395290D01*
X99645582Y-102408597D01*
X99650541Y-102422457D01*
X99654118Y-102436736D01*
X99656278Y-102451297D01*
X99657000Y-102466000D01*
X99657000Y-102766000D01*
X99656278Y-102780703D01*
X99654118Y-102795264D01*
X99650541Y-102809543D01*
X99645582Y-102823403D01*
X99639288Y-102836710D01*
X99631720Y-102849336D01*
X99622952Y-102861159D01*
X99613066Y-102872066D01*
X99602159Y-102881952D01*
X99590336Y-102890720D01*
X99577710Y-102898288D01*
X99564403Y-102904582D01*
X99550543Y-102909541D01*
X99536264Y-102913118D01*
X99521703Y-102915278D01*
X99507000Y-102916000D01*
X97857000Y-102916000D01*
X97842297Y-102915278D01*
X97827736Y-102913118D01*
X97813457Y-102909541D01*
X97799597Y-102904582D01*
X97786290Y-102898288D01*
X97773664Y-102890720D01*
X97761841Y-102881952D01*
X97750934Y-102872066D01*
X97741048Y-102861159D01*
X97732280Y-102849336D01*
X97724712Y-102836710D01*
X97718418Y-102823403D01*
X97713459Y-102809543D01*
X97709882Y-102795264D01*
X97707722Y-102780703D01*
X97707000Y-102766000D01*
X97707000Y-102466000D01*
X97707722Y-102451297D01*
X97709882Y-102436736D01*
X97713459Y-102422457D01*
X97718418Y-102408597D01*
X97724712Y-102395290D01*
X97732280Y-102382664D01*
X97741048Y-102370841D01*
X97750934Y-102359934D01*
X97761841Y-102350048D01*
X97773664Y-102341280D01*
X97786290Y-102333712D01*
X97799597Y-102327418D01*
X97813457Y-102322459D01*
X97827736Y-102318882D01*
X97842297Y-102316722D01*
X97857000Y-102316000D01*
X99507000Y-102316000D01*
X99521703Y-102316722D01*
G37*
G36*
X99521703Y-101046722D02*
G01*
X99536264Y-101048882D01*
X99550543Y-101052459D01*
X99564403Y-101057418D01*
X99577710Y-101063712D01*
X99590336Y-101071280D01*
X99602159Y-101080048D01*
X99613066Y-101089934D01*
X99622952Y-101100841D01*
X99631720Y-101112664D01*
X99639288Y-101125290D01*
X99645582Y-101138597D01*
X99650541Y-101152457D01*
X99654118Y-101166736D01*
X99656278Y-101181297D01*
X99657000Y-101196000D01*
X99657000Y-101496000D01*
X99656278Y-101510703D01*
X99654118Y-101525264D01*
X99650541Y-101539543D01*
X99645582Y-101553403D01*
X99639288Y-101566710D01*
X99631720Y-101579336D01*
X99622952Y-101591159D01*
X99613066Y-101602066D01*
X99602159Y-101611952D01*
X99590336Y-101620720D01*
X99577710Y-101628288D01*
X99564403Y-101634582D01*
X99550543Y-101639541D01*
X99536264Y-101643118D01*
X99521703Y-101645278D01*
X99507000Y-101646000D01*
X97857000Y-101646000D01*
X97842297Y-101645278D01*
X97827736Y-101643118D01*
X97813457Y-101639541D01*
X97799597Y-101634582D01*
X97786290Y-101628288D01*
X97773664Y-101620720D01*
X97761841Y-101611952D01*
X97750934Y-101602066D01*
X97741048Y-101591159D01*
X97732280Y-101579336D01*
X97724712Y-101566710D01*
X97718418Y-101553403D01*
X97713459Y-101539543D01*
X97709882Y-101525264D01*
X97707722Y-101510703D01*
X97707000Y-101496000D01*
X97707000Y-101196000D01*
X97707722Y-101181297D01*
X97709882Y-101166736D01*
X97713459Y-101152457D01*
X97718418Y-101138597D01*
X97724712Y-101125290D01*
X97732280Y-101112664D01*
X97741048Y-101100841D01*
X97750934Y-101089934D01*
X97761841Y-101080048D01*
X97773664Y-101071280D01*
X97786290Y-101063712D01*
X97799597Y-101057418D01*
X97813457Y-101052459D01*
X97827736Y-101048882D01*
X97842297Y-101046722D01*
X97857000Y-101046000D01*
X99507000Y-101046000D01*
X99521703Y-101046722D01*
G37*
G36*
X99521703Y-99776722D02*
G01*
X99536264Y-99778882D01*
X99550543Y-99782459D01*
X99564403Y-99787418D01*
X99577710Y-99793712D01*
X99590336Y-99801280D01*
X99602159Y-99810048D01*
X99613066Y-99819934D01*
X99622952Y-99830841D01*
X99631720Y-99842664D01*
X99639288Y-99855290D01*
X99645582Y-99868597D01*
X99650541Y-99882457D01*
X99654118Y-99896736D01*
X99656278Y-99911297D01*
X99657000Y-99926000D01*
X99657000Y-100226000D01*
X99656278Y-100240703D01*
X99654118Y-100255264D01*
X99650541Y-100269543D01*
X99645582Y-100283403D01*
X99639288Y-100296710D01*
X99631720Y-100309336D01*
X99622952Y-100321159D01*
X99613066Y-100332066D01*
X99602159Y-100341952D01*
X99590336Y-100350720D01*
X99577710Y-100358288D01*
X99564403Y-100364582D01*
X99550543Y-100369541D01*
X99536264Y-100373118D01*
X99521703Y-100375278D01*
X99507000Y-100376000D01*
X97857000Y-100376000D01*
X97842297Y-100375278D01*
X97827736Y-100373118D01*
X97813457Y-100369541D01*
X97799597Y-100364582D01*
X97786290Y-100358288D01*
X97773664Y-100350720D01*
X97761841Y-100341952D01*
X97750934Y-100332066D01*
X97741048Y-100321159D01*
X97732280Y-100309336D01*
X97724712Y-100296710D01*
X97718418Y-100283403D01*
X97713459Y-100269543D01*
X97709882Y-100255264D01*
X97707722Y-100240703D01*
X97707000Y-100226000D01*
X97707000Y-99926000D01*
X97707722Y-99911297D01*
X97709882Y-99896736D01*
X97713459Y-99882457D01*
X97718418Y-99868597D01*
X97724712Y-99855290D01*
X97732280Y-99842664D01*
X97741048Y-99830841D01*
X97750934Y-99819934D01*
X97761841Y-99810048D01*
X97773664Y-99801280D01*
X97786290Y-99793712D01*
X97799597Y-99787418D01*
X97813457Y-99782459D01*
X97827736Y-99778882D01*
X97842297Y-99776722D01*
X97857000Y-99776000D01*
X99507000Y-99776000D01*
X99521703Y-99776722D01*
G37*
G36*
X104471703Y-99776722D02*
G01*
X104486264Y-99778882D01*
X104500543Y-99782459D01*
X104514403Y-99787418D01*
X104527710Y-99793712D01*
X104540336Y-99801280D01*
X104552159Y-99810048D01*
X104563066Y-99819934D01*
X104572952Y-99830841D01*
X104581720Y-99842664D01*
X104589288Y-99855290D01*
X104595582Y-99868597D01*
X104600541Y-99882457D01*
X104604118Y-99896736D01*
X104606278Y-99911297D01*
X104607000Y-99926000D01*
X104607000Y-100226000D01*
X104606278Y-100240703D01*
X104604118Y-100255264D01*
X104600541Y-100269543D01*
X104595582Y-100283403D01*
X104589288Y-100296710D01*
X104581720Y-100309336D01*
X104572952Y-100321159D01*
X104563066Y-100332066D01*
X104552159Y-100341952D01*
X104540336Y-100350720D01*
X104527710Y-100358288D01*
X104514403Y-100364582D01*
X104500543Y-100369541D01*
X104486264Y-100373118D01*
X104471703Y-100375278D01*
X104457000Y-100376000D01*
X102807000Y-100376000D01*
X102792297Y-100375278D01*
X102777736Y-100373118D01*
X102763457Y-100369541D01*
X102749597Y-100364582D01*
X102736290Y-100358288D01*
X102723664Y-100350720D01*
X102711841Y-100341952D01*
X102700934Y-100332066D01*
X102691048Y-100321159D01*
X102682280Y-100309336D01*
X102674712Y-100296710D01*
X102668418Y-100283403D01*
X102663459Y-100269543D01*
X102659882Y-100255264D01*
X102657722Y-100240703D01*
X102657000Y-100226000D01*
X102657000Y-99926000D01*
X102657722Y-99911297D01*
X102659882Y-99896736D01*
X102663459Y-99882457D01*
X102668418Y-99868597D01*
X102674712Y-99855290D01*
X102682280Y-99842664D01*
X102691048Y-99830841D01*
X102700934Y-99819934D01*
X102711841Y-99810048D01*
X102723664Y-99801280D01*
X102736290Y-99793712D01*
X102749597Y-99787418D01*
X102763457Y-99782459D01*
X102777736Y-99778882D01*
X102792297Y-99776722D01*
X102807000Y-99776000D01*
X104457000Y-99776000D01*
X104471703Y-99776722D01*
G37*
G36*
X104471703Y-101046722D02*
G01*
X104486264Y-101048882D01*
X104500543Y-101052459D01*
X104514403Y-101057418D01*
X104527710Y-101063712D01*
X104540336Y-101071280D01*
X104552159Y-101080048D01*
X104563066Y-101089934D01*
X104572952Y-101100841D01*
X104581720Y-101112664D01*
X104589288Y-101125290D01*
X104595582Y-101138597D01*
X104600541Y-101152457D01*
X104604118Y-101166736D01*
X104606278Y-101181297D01*
X104607000Y-101196000D01*
X104607000Y-101496000D01*
X104606278Y-101510703D01*
X104604118Y-101525264D01*
X104600541Y-101539543D01*
X104595582Y-101553403D01*
X104589288Y-101566710D01*
X104581720Y-101579336D01*
X104572952Y-101591159D01*
X104563066Y-101602066D01*
X104552159Y-101611952D01*
X104540336Y-101620720D01*
X104527710Y-101628288D01*
X104514403Y-101634582D01*
X104500543Y-101639541D01*
X104486264Y-101643118D01*
X104471703Y-101645278D01*
X104457000Y-101646000D01*
X102807000Y-101646000D01*
X102792297Y-101645278D01*
X102777736Y-101643118D01*
X102763457Y-101639541D01*
X102749597Y-101634582D01*
X102736290Y-101628288D01*
X102723664Y-101620720D01*
X102711841Y-101611952D01*
X102700934Y-101602066D01*
X102691048Y-101591159D01*
X102682280Y-101579336D01*
X102674712Y-101566710D01*
X102668418Y-101553403D01*
X102663459Y-101539543D01*
X102659882Y-101525264D01*
X102657722Y-101510703D01*
X102657000Y-101496000D01*
X102657000Y-101196000D01*
X102657722Y-101181297D01*
X102659882Y-101166736D01*
X102663459Y-101152457D01*
X102668418Y-101138597D01*
X102674712Y-101125290D01*
X102682280Y-101112664D01*
X102691048Y-101100841D01*
X102700934Y-101089934D01*
X102711841Y-101080048D01*
X102723664Y-101071280D01*
X102736290Y-101063712D01*
X102749597Y-101057418D01*
X102763457Y-101052459D01*
X102777736Y-101048882D01*
X102792297Y-101046722D01*
X102807000Y-101046000D01*
X104457000Y-101046000D01*
X104471703Y-101046722D01*
G37*
G36*
X104471703Y-102316722D02*
G01*
X104486264Y-102318882D01*
X104500543Y-102322459D01*
X104514403Y-102327418D01*
X104527710Y-102333712D01*
X104540336Y-102341280D01*
X104552159Y-102350048D01*
X104563066Y-102359934D01*
X104572952Y-102370841D01*
X104581720Y-102382664D01*
X104589288Y-102395290D01*
X104595582Y-102408597D01*
X104600541Y-102422457D01*
X104604118Y-102436736D01*
X104606278Y-102451297D01*
X104607000Y-102466000D01*
X104607000Y-102766000D01*
X104606278Y-102780703D01*
X104604118Y-102795264D01*
X104600541Y-102809543D01*
X104595582Y-102823403D01*
X104589288Y-102836710D01*
X104581720Y-102849336D01*
X104572952Y-102861159D01*
X104563066Y-102872066D01*
X104552159Y-102881952D01*
X104540336Y-102890720D01*
X104527710Y-102898288D01*
X104514403Y-102904582D01*
X104500543Y-102909541D01*
X104486264Y-102913118D01*
X104471703Y-102915278D01*
X104457000Y-102916000D01*
X102807000Y-102916000D01*
X102792297Y-102915278D01*
X102777736Y-102913118D01*
X102763457Y-102909541D01*
X102749597Y-102904582D01*
X102736290Y-102898288D01*
X102723664Y-102890720D01*
X102711841Y-102881952D01*
X102700934Y-102872066D01*
X102691048Y-102861159D01*
X102682280Y-102849336D01*
X102674712Y-102836710D01*
X102668418Y-102823403D01*
X102663459Y-102809543D01*
X102659882Y-102795264D01*
X102657722Y-102780703D01*
X102657000Y-102766000D01*
X102657000Y-102466000D01*
X102657722Y-102451297D01*
X102659882Y-102436736D01*
X102663459Y-102422457D01*
X102668418Y-102408597D01*
X102674712Y-102395290D01*
X102682280Y-102382664D01*
X102691048Y-102370841D01*
X102700934Y-102359934D01*
X102711841Y-102350048D01*
X102723664Y-102341280D01*
X102736290Y-102333712D01*
X102749597Y-102327418D01*
X102763457Y-102322459D01*
X102777736Y-102318882D01*
X102792297Y-102316722D01*
X102807000Y-102316000D01*
X104457000Y-102316000D01*
X104471703Y-102316722D01*
G37*
G36*
X104471703Y-103586722D02*
G01*
X104486264Y-103588882D01*
X104500543Y-103592459D01*
X104514403Y-103597418D01*
X104527710Y-103603712D01*
X104540336Y-103611280D01*
X104552159Y-103620048D01*
X104563066Y-103629934D01*
X104572952Y-103640841D01*
X104581720Y-103652664D01*
X104589288Y-103665290D01*
X104595582Y-103678597D01*
X104600541Y-103692457D01*
X104604118Y-103706736D01*
X104606278Y-103721297D01*
X104607000Y-103736000D01*
X104607000Y-104036000D01*
X104606278Y-104050703D01*
X104604118Y-104065264D01*
X104600541Y-104079543D01*
X104595582Y-104093403D01*
X104589288Y-104106710D01*
X104581720Y-104119336D01*
X104572952Y-104131159D01*
X104563066Y-104142066D01*
X104552159Y-104151952D01*
X104540336Y-104160720D01*
X104527710Y-104168288D01*
X104514403Y-104174582D01*
X104500543Y-104179541D01*
X104486264Y-104183118D01*
X104471703Y-104185278D01*
X104457000Y-104186000D01*
X102807000Y-104186000D01*
X102792297Y-104185278D01*
X102777736Y-104183118D01*
X102763457Y-104179541D01*
X102749597Y-104174582D01*
X102736290Y-104168288D01*
X102723664Y-104160720D01*
X102711841Y-104151952D01*
X102700934Y-104142066D01*
X102691048Y-104131159D01*
X102682280Y-104119336D01*
X102674712Y-104106710D01*
X102668418Y-104093403D01*
X102663459Y-104079543D01*
X102659882Y-104065264D01*
X102657722Y-104050703D01*
X102657000Y-104036000D01*
X102657000Y-103736000D01*
X102657722Y-103721297D01*
X102659882Y-103706736D01*
X102663459Y-103692457D01*
X102668418Y-103678597D01*
X102674712Y-103665290D01*
X102682280Y-103652664D01*
X102691048Y-103640841D01*
X102700934Y-103629934D01*
X102711841Y-103620048D01*
X102723664Y-103611280D01*
X102736290Y-103603712D01*
X102749597Y-103597418D01*
X102763457Y-103592459D01*
X102777736Y-103588882D01*
X102792297Y-103586722D01*
X102807000Y-103586000D01*
X104457000Y-103586000D01*
X104471703Y-103586722D01*
G37*
G36*
X104471703Y-104856722D02*
G01*
X104486264Y-104858882D01*
X104500543Y-104862459D01*
X104514403Y-104867418D01*
X104527710Y-104873712D01*
X104540336Y-104881280D01*
X104552159Y-104890048D01*
X104563066Y-104899934D01*
X104572952Y-104910841D01*
X104581720Y-104922664D01*
X104589288Y-104935290D01*
X104595582Y-104948597D01*
X104600541Y-104962457D01*
X104604118Y-104976736D01*
X104606278Y-104991297D01*
X104607000Y-105006000D01*
X104607000Y-105306000D01*
X104606278Y-105320703D01*
X104604118Y-105335264D01*
X104600541Y-105349543D01*
X104595582Y-105363403D01*
X104589288Y-105376710D01*
X104581720Y-105389336D01*
X104572952Y-105401159D01*
X104563066Y-105412066D01*
X104552159Y-105421952D01*
X104540336Y-105430720D01*
X104527710Y-105438288D01*
X104514403Y-105444582D01*
X104500543Y-105449541D01*
X104486264Y-105453118D01*
X104471703Y-105455278D01*
X104457000Y-105456000D01*
X102807000Y-105456000D01*
X102792297Y-105455278D01*
X102777736Y-105453118D01*
X102763457Y-105449541D01*
X102749597Y-105444582D01*
X102736290Y-105438288D01*
X102723664Y-105430720D01*
X102711841Y-105421952D01*
X102700934Y-105412066D01*
X102691048Y-105401159D01*
X102682280Y-105389336D01*
X102674712Y-105376710D01*
X102668418Y-105363403D01*
X102663459Y-105349543D01*
X102659882Y-105335264D01*
X102657722Y-105320703D01*
X102657000Y-105306000D01*
X102657000Y-105006000D01*
X102657722Y-104991297D01*
X102659882Y-104976736D01*
X102663459Y-104962457D01*
X102668418Y-104948597D01*
X102674712Y-104935290D01*
X102682280Y-104922664D01*
X102691048Y-104910841D01*
X102700934Y-104899934D01*
X102711841Y-104890048D01*
X102723664Y-104881280D01*
X102736290Y-104873712D01*
X102749597Y-104867418D01*
X102763457Y-104862459D01*
X102777736Y-104858882D01*
X102792297Y-104856722D01*
X102807000Y-104856000D01*
X104457000Y-104856000D01*
X104471703Y-104856722D01*
G37*
G36*
X104471703Y-106126722D02*
G01*
X104486264Y-106128882D01*
X104500543Y-106132459D01*
X104514403Y-106137418D01*
X104527710Y-106143712D01*
X104540336Y-106151280D01*
X104552159Y-106160048D01*
X104563066Y-106169934D01*
X104572952Y-106180841D01*
X104581720Y-106192664D01*
X104589288Y-106205290D01*
X104595582Y-106218597D01*
X104600541Y-106232457D01*
X104604118Y-106246736D01*
X104606278Y-106261297D01*
X104607000Y-106276000D01*
X104607000Y-106576000D01*
X104606278Y-106590703D01*
X104604118Y-106605264D01*
X104600541Y-106619543D01*
X104595582Y-106633403D01*
X104589288Y-106646710D01*
X104581720Y-106659336D01*
X104572952Y-106671159D01*
X104563066Y-106682066D01*
X104552159Y-106691952D01*
X104540336Y-106700720D01*
X104527710Y-106708288D01*
X104514403Y-106714582D01*
X104500543Y-106719541D01*
X104486264Y-106723118D01*
X104471703Y-106725278D01*
X104457000Y-106726000D01*
X102807000Y-106726000D01*
X102792297Y-106725278D01*
X102777736Y-106723118D01*
X102763457Y-106719541D01*
X102749597Y-106714582D01*
X102736290Y-106708288D01*
X102723664Y-106700720D01*
X102711841Y-106691952D01*
X102700934Y-106682066D01*
X102691048Y-106671159D01*
X102682280Y-106659336D01*
X102674712Y-106646710D01*
X102668418Y-106633403D01*
X102663459Y-106619543D01*
X102659882Y-106605264D01*
X102657722Y-106590703D01*
X102657000Y-106576000D01*
X102657000Y-106276000D01*
X102657722Y-106261297D01*
X102659882Y-106246736D01*
X102663459Y-106232457D01*
X102668418Y-106218597D01*
X102674712Y-106205290D01*
X102682280Y-106192664D01*
X102691048Y-106180841D01*
X102700934Y-106169934D01*
X102711841Y-106160048D01*
X102723664Y-106151280D01*
X102736290Y-106143712D01*
X102749597Y-106137418D01*
X102763457Y-106132459D01*
X102777736Y-106128882D01*
X102792297Y-106126722D01*
X102807000Y-106126000D01*
X104457000Y-106126000D01*
X104471703Y-106126722D01*
G37*
G36*
X104471703Y-107396722D02*
G01*
X104486264Y-107398882D01*
X104500543Y-107402459D01*
X104514403Y-107407418D01*
X104527710Y-107413712D01*
X104540336Y-107421280D01*
X104552159Y-107430048D01*
X104563066Y-107439934D01*
X104572952Y-107450841D01*
X104581720Y-107462664D01*
X104589288Y-107475290D01*
X104595582Y-107488597D01*
X104600541Y-107502457D01*
X104604118Y-107516736D01*
X104606278Y-107531297D01*
X104607000Y-107546000D01*
X104607000Y-107846000D01*
X104606278Y-107860703D01*
X104604118Y-107875264D01*
X104600541Y-107889543D01*
X104595582Y-107903403D01*
X104589288Y-107916710D01*
X104581720Y-107929336D01*
X104572952Y-107941159D01*
X104563066Y-107952066D01*
X104552159Y-107961952D01*
X104540336Y-107970720D01*
X104527710Y-107978288D01*
X104514403Y-107984582D01*
X104500543Y-107989541D01*
X104486264Y-107993118D01*
X104471703Y-107995278D01*
X104457000Y-107996000D01*
X102807000Y-107996000D01*
X102792297Y-107995278D01*
X102777736Y-107993118D01*
X102763457Y-107989541D01*
X102749597Y-107984582D01*
X102736290Y-107978288D01*
X102723664Y-107970720D01*
X102711841Y-107961952D01*
X102700934Y-107952066D01*
X102691048Y-107941159D01*
X102682280Y-107929336D01*
X102674712Y-107916710D01*
X102668418Y-107903403D01*
X102663459Y-107889543D01*
X102659882Y-107875264D01*
X102657722Y-107860703D01*
X102657000Y-107846000D01*
X102657000Y-107546000D01*
X102657722Y-107531297D01*
X102659882Y-107516736D01*
X102663459Y-107502457D01*
X102668418Y-107488597D01*
X102674712Y-107475290D01*
X102682280Y-107462664D01*
X102691048Y-107450841D01*
X102700934Y-107439934D01*
X102711841Y-107430048D01*
X102723664Y-107421280D01*
X102736290Y-107413712D01*
X102749597Y-107407418D01*
X102763457Y-107402459D01*
X102777736Y-107398882D01*
X102792297Y-107396722D01*
X102807000Y-107396000D01*
X104457000Y-107396000D01*
X104471703Y-107396722D01*
G37*
G36*
X113758505Y-96436204D02*
G01*
X113782773Y-96439804D01*
X113806572Y-96445765D01*
X113829671Y-96454030D01*
X113851850Y-96464520D01*
X113872893Y-96477132D01*
X113892599Y-96491747D01*
X113910777Y-96508223D01*
X113927253Y-96526401D01*
X113941868Y-96546107D01*
X113954480Y-96567150D01*
X113964970Y-96589329D01*
X113973235Y-96612428D01*
X113979196Y-96636227D01*
X113982796Y-96660495D01*
X113984000Y-96684999D01*
X113984000Y-97335001D01*
X113982796Y-97359505D01*
X113979196Y-97383773D01*
X113973235Y-97407572D01*
X113964970Y-97430671D01*
X113954480Y-97452850D01*
X113941868Y-97473893D01*
X113927253Y-97493599D01*
X113910777Y-97511777D01*
X113892599Y-97528253D01*
X113872893Y-97542868D01*
X113851850Y-97555480D01*
X113829671Y-97565970D01*
X113806572Y-97574235D01*
X113782773Y-97580196D01*
X113758505Y-97583796D01*
X113734001Y-97585000D01*
X112833999Y-97585000D01*
X112809495Y-97583796D01*
X112785227Y-97580196D01*
X112761428Y-97574235D01*
X112738329Y-97565970D01*
X112716150Y-97555480D01*
X112695107Y-97542868D01*
X112675401Y-97528253D01*
X112657223Y-97511777D01*
X112640747Y-97493599D01*
X112626132Y-97473893D01*
X112613520Y-97452850D01*
X112603030Y-97430671D01*
X112594765Y-97407572D01*
X112588804Y-97383773D01*
X112585204Y-97359505D01*
X112584000Y-97335001D01*
X112584000Y-96684999D01*
X112585204Y-96660495D01*
X112588804Y-96636227D01*
X112594765Y-96612428D01*
X112603030Y-96589329D01*
X112613520Y-96567150D01*
X112626132Y-96546107D01*
X112640747Y-96526401D01*
X112657223Y-96508223D01*
X112675401Y-96491747D01*
X112695107Y-96477132D01*
X112716150Y-96464520D01*
X112738329Y-96454030D01*
X112761428Y-96445765D01*
X112785227Y-96439804D01*
X112809495Y-96436204D01*
X112833999Y-96435000D01*
X113734001Y-96435000D01*
X113758505Y-96436204D01*
G37*
G36*
X113758505Y-98486204D02*
G01*
X113782773Y-98489804D01*
X113806572Y-98495765D01*
X113829671Y-98504030D01*
X113851850Y-98514520D01*
X113872893Y-98527132D01*
X113892599Y-98541747D01*
X113910777Y-98558223D01*
X113927253Y-98576401D01*
X113941868Y-98596107D01*
X113954480Y-98617150D01*
X113964970Y-98639329D01*
X113973235Y-98662428D01*
X113979196Y-98686227D01*
X113982796Y-98710495D01*
X113984000Y-98734999D01*
X113984000Y-99385001D01*
X113982796Y-99409505D01*
X113979196Y-99433773D01*
X113973235Y-99457572D01*
X113964970Y-99480671D01*
X113954480Y-99502850D01*
X113941868Y-99523893D01*
X113927253Y-99543599D01*
X113910777Y-99561777D01*
X113892599Y-99578253D01*
X113872893Y-99592868D01*
X113851850Y-99605480D01*
X113829671Y-99615970D01*
X113806572Y-99624235D01*
X113782773Y-99630196D01*
X113758505Y-99633796D01*
X113734001Y-99635000D01*
X112833999Y-99635000D01*
X112809495Y-99633796D01*
X112785227Y-99630196D01*
X112761428Y-99624235D01*
X112738329Y-99615970D01*
X112716150Y-99605480D01*
X112695107Y-99592868D01*
X112675401Y-99578253D01*
X112657223Y-99561777D01*
X112640747Y-99543599D01*
X112626132Y-99523893D01*
X112613520Y-99502850D01*
X112603030Y-99480671D01*
X112594765Y-99457572D01*
X112588804Y-99433773D01*
X112585204Y-99409505D01*
X112584000Y-99385001D01*
X112584000Y-98734999D01*
X112585204Y-98710495D01*
X112588804Y-98686227D01*
X112594765Y-98662428D01*
X112603030Y-98639329D01*
X112613520Y-98617150D01*
X112626132Y-98596107D01*
X112640747Y-98576401D01*
X112657223Y-98558223D01*
X112675401Y-98541747D01*
X112695107Y-98527132D01*
X112716150Y-98514520D01*
X112738329Y-98504030D01*
X112761428Y-98495765D01*
X112785227Y-98489804D01*
X112809495Y-98486204D01*
X112833999Y-98485000D01*
X113734001Y-98485000D01*
X113758505Y-98486204D01*
G37*
G36*
X112205442Y-93027174D02*
G01*
X112229103Y-93030684D01*
X112252307Y-93036496D01*
X112274829Y-93044554D01*
X112296453Y-93054782D01*
X112316970Y-93067079D01*
X112336183Y-93081329D01*
X112353907Y-93097393D01*
X112369971Y-93115117D01*
X112384221Y-93134330D01*
X112396518Y-93154847D01*
X112406746Y-93176471D01*
X112414804Y-93198993D01*
X112420616Y-93222197D01*
X112424126Y-93245858D01*
X112425300Y-93269750D01*
X112425300Y-94182250D01*
X112424126Y-94206142D01*
X112420616Y-94229803D01*
X112414804Y-94253007D01*
X112406746Y-94275529D01*
X112396518Y-94297153D01*
X112384221Y-94317670D01*
X112369971Y-94336883D01*
X112353907Y-94354607D01*
X112336183Y-94370671D01*
X112316970Y-94384921D01*
X112296453Y-94397218D01*
X112274829Y-94407446D01*
X112252307Y-94415504D01*
X112229103Y-94421316D01*
X112205442Y-94424826D01*
X112181550Y-94426000D01*
X111694050Y-94426000D01*
X111670158Y-94424826D01*
X111646497Y-94421316D01*
X111623293Y-94415504D01*
X111600771Y-94407446D01*
X111579147Y-94397218D01*
X111558630Y-94384921D01*
X111539417Y-94370671D01*
X111521693Y-94354607D01*
X111505629Y-94336883D01*
X111491379Y-94317670D01*
X111479082Y-94297153D01*
X111468854Y-94275529D01*
X111460796Y-94253007D01*
X111454984Y-94229803D01*
X111451474Y-94206142D01*
X111450300Y-94182250D01*
X111450300Y-93269750D01*
X111451474Y-93245858D01*
X111454984Y-93222197D01*
X111460796Y-93198993D01*
X111468854Y-93176471D01*
X111479082Y-93154847D01*
X111491379Y-93134330D01*
X111505629Y-93115117D01*
X111521693Y-93097393D01*
X111539417Y-93081329D01*
X111558630Y-93067079D01*
X111579147Y-93054782D01*
X111600771Y-93044554D01*
X111623293Y-93036496D01*
X111646497Y-93030684D01*
X111670158Y-93027174D01*
X111694050Y-93026000D01*
X112181550Y-93026000D01*
X112205442Y-93027174D01*
G37*
G36*
X114080442Y-93027174D02*
G01*
X114104103Y-93030684D01*
X114127307Y-93036496D01*
X114149829Y-93044554D01*
X114171453Y-93054782D01*
X114191970Y-93067079D01*
X114211183Y-93081329D01*
X114228907Y-93097393D01*
X114244971Y-93115117D01*
X114259221Y-93134330D01*
X114271518Y-93154847D01*
X114281746Y-93176471D01*
X114289804Y-93198993D01*
X114295616Y-93222197D01*
X114299126Y-93245858D01*
X114300300Y-93269750D01*
X114300300Y-94182250D01*
X114299126Y-94206142D01*
X114295616Y-94229803D01*
X114289804Y-94253007D01*
X114281746Y-94275529D01*
X114271518Y-94297153D01*
X114259221Y-94317670D01*
X114244971Y-94336883D01*
X114228907Y-94354607D01*
X114211183Y-94370671D01*
X114191970Y-94384921D01*
X114171453Y-94397218D01*
X114149829Y-94407446D01*
X114127307Y-94415504D01*
X114104103Y-94421316D01*
X114080442Y-94424826D01*
X114056550Y-94426000D01*
X113569050Y-94426000D01*
X113545158Y-94424826D01*
X113521497Y-94421316D01*
X113498293Y-94415504D01*
X113475771Y-94407446D01*
X113454147Y-94397218D01*
X113433630Y-94384921D01*
X113414417Y-94370671D01*
X113396693Y-94354607D01*
X113380629Y-94336883D01*
X113366379Y-94317670D01*
X113354082Y-94297153D01*
X113343854Y-94275529D01*
X113335796Y-94253007D01*
X113329984Y-94229803D01*
X113326474Y-94206142D01*
X113325300Y-94182250D01*
X113325300Y-93269750D01*
X113326474Y-93245858D01*
X113329984Y-93222197D01*
X113335796Y-93198993D01*
X113343854Y-93176471D01*
X113354082Y-93154847D01*
X113366379Y-93134330D01*
X113380629Y-93115117D01*
X113396693Y-93097393D01*
X113414417Y-93081329D01*
X113433630Y-93067079D01*
X113454147Y-93054782D01*
X113475771Y-93044554D01*
X113498293Y-93036496D01*
X113521497Y-93030684D01*
X113545158Y-93027174D01*
X113569050Y-93026000D01*
X114056550Y-93026000D01*
X114080442Y-93027174D01*
G37*
M02*
