G04 #@! TF.GenerationSoftware,KiCad,Pcbnew,(5.1.5)-3*
G04 #@! TF.CreationDate,2026-05-20T17:09:14+02:00*
G04 #@! TF.ProjectId,26 MAR,3236204d-4152-42e6-9b69-6361645f7063,rev?*
G04 #@! TF.SameCoordinates,Original*
G04 #@! TF.FileFunction,Legend,Top*
G04 #@! TF.FilePolarity,Positive*
%FSLAX46Y46*%
G04 Gerber Fmt 4.6, Leading zero omitted, Abs format (unit mm)*
G04 Created by KiCad (PCBNEW (5.1.5)-3) date 2026-05-20 17:09:14*
%MOMM*%
%LPD*%
G04 APERTURE LIST*
%ADD10C,0.120000*%
%ADD11C,0.150000*%
G04 APERTURE END LIST*
D10*
X117729000Y-101504333D02*
X118999000Y-101504333D01*
X118929000Y-102711000D02*
X118929000Y-101504333D01*
X118809000Y-102711000D02*
X118809000Y-101504333D01*
X118689000Y-102711000D02*
X118689000Y-101504333D01*
X118569000Y-102711000D02*
X118569000Y-101504333D01*
X118449000Y-102711000D02*
X118449000Y-101504333D01*
X118329000Y-102711000D02*
X118329000Y-101504333D01*
X118209000Y-102711000D02*
X118209000Y-101504333D01*
X118089000Y-102711000D02*
X118089000Y-101504333D01*
X117969000Y-102711000D02*
X117969000Y-101504333D01*
X117849000Y-102711000D02*
X117849000Y-101504333D01*
X117729000Y-99091000D02*
X117729000Y-102711000D01*
X118999000Y-99091000D02*
X117729000Y-99091000D01*
X118999000Y-102711000D02*
X118999000Y-99091000D01*
X117729000Y-102711000D02*
X118999000Y-102711000D01*
X116014000Y-104551000D02*
X117397000Y-104551000D01*
X116014000Y-104551000D02*
X116014000Y-103168000D01*
X119164000Y-97491000D02*
X120474000Y-97491000D01*
X116254000Y-97491000D02*
X117564000Y-97491000D01*
X119164000Y-104311000D02*
X120474000Y-104311000D01*
X116254000Y-104311000D02*
X117564000Y-104311000D01*
X120474000Y-104311000D02*
X120474000Y-97491000D01*
X116254000Y-104311000D02*
X116254000Y-97491000D01*
X101544000Y-119462500D02*
X101544000Y-116777500D01*
X99624000Y-119462500D02*
X101544000Y-119462500D01*
X99624000Y-116777500D02*
X99624000Y-119462500D01*
X105238500Y-113340000D02*
X102553500Y-113340000D01*
X105238500Y-115260000D02*
X105238500Y-113340000D01*
X102553500Y-115260000D02*
X105238500Y-115260000D01*
X92373500Y-98496000D02*
X95058500Y-98496000D01*
X92373500Y-96576000D02*
X92373500Y-98496000D01*
X95058500Y-96576000D02*
X92373500Y-96576000D01*
X119493400Y-93575200D02*
X117208400Y-93575200D01*
X119493400Y-95045200D02*
X119493400Y-93575200D01*
X117208400Y-95045200D02*
X119493400Y-95045200D01*
X107936500Y-110517000D02*
X105651500Y-110517000D01*
X107936500Y-111987000D02*
X107936500Y-110517000D01*
X105651500Y-111987000D02*
X107936500Y-111987000D01*
X110463000Y-98005000D02*
X110463000Y-95720000D01*
X108993000Y-98005000D02*
X110463000Y-98005000D01*
X108993000Y-95720000D02*
X108993000Y-98005000D01*
X115555500Y-107244000D02*
X112870500Y-107244000D01*
X115555500Y-109164000D02*
X115555500Y-107244000D01*
X112870500Y-109164000D02*
X115555500Y-109164000D01*
X101157000Y-108321000D02*
X104607000Y-108321000D01*
X101157000Y-108321000D02*
X99207000Y-108321000D01*
X101157000Y-99451000D02*
X103107000Y-99451000D01*
X101157000Y-99451000D02*
X99207000Y-99451000D01*
X113994000Y-98296252D02*
X113994000Y-97773748D01*
X112574000Y-98296252D02*
X112574000Y-97773748D01*
X114560300Y-92766000D02*
X111875300Y-92766000D01*
X114560300Y-94686000D02*
X114560300Y-92766000D01*
X111875300Y-94686000D02*
X114560300Y-94686000D01*
D11*
X116414800Y-106135514D02*
X116414800Y-107135514D01*
X116414800Y-106183133D02*
X116510038Y-106135514D01*
X116700514Y-106135514D01*
X116795752Y-106183133D01*
X116843371Y-106230752D01*
X116890990Y-106325990D01*
X116890990Y-106611704D01*
X116843371Y-106706942D01*
X116795752Y-106754561D01*
X116700514Y-106802180D01*
X116510038Y-106802180D01*
X116414800Y-106754561D01*
X117748133Y-106135514D02*
X117748133Y-106802180D01*
X117319561Y-106135514D02*
X117319561Y-106659323D01*
X117367180Y-106754561D01*
X117462419Y-106802180D01*
X117605276Y-106802180D01*
X117700514Y-106754561D01*
X117748133Y-106706942D01*
X118176704Y-106754561D02*
X118271942Y-106802180D01*
X118462419Y-106802180D01*
X118557657Y-106754561D01*
X118605276Y-106659323D01*
X118605276Y-106611704D01*
X118557657Y-106516466D01*
X118462419Y-106468847D01*
X118319561Y-106468847D01*
X118224323Y-106421228D01*
X118176704Y-106325990D01*
X118176704Y-106278371D01*
X118224323Y-106183133D01*
X118319561Y-106135514D01*
X118462419Y-106135514D01*
X118557657Y-106183133D01*
X119033847Y-106802180D02*
X119033847Y-105802180D01*
X119462419Y-106802180D02*
X119462419Y-106278371D01*
X119414800Y-106183133D01*
X119319561Y-106135514D01*
X119176704Y-106135514D01*
X119081466Y-106183133D01*
X119033847Y-106230752D01*
X120462419Y-106802180D02*
X119890990Y-106802180D01*
X120176704Y-106802180D02*
X120176704Y-105802180D01*
X120081466Y-105945038D01*
X119986228Y-106040276D01*
X119890990Y-106087895D01*
X96670952Y-119197380D02*
X96194761Y-119197380D01*
X96194761Y-118197380D01*
X97004285Y-118673571D02*
X97337619Y-118673571D01*
X97480476Y-119197380D02*
X97004285Y-119197380D01*
X97004285Y-118197380D01*
X97480476Y-118197380D01*
X97909047Y-119197380D02*
X97909047Y-118197380D01*
X98147142Y-118197380D01*
X98290000Y-118245000D01*
X98385238Y-118340238D01*
X98432857Y-118435476D01*
X98480476Y-118625952D01*
X98480476Y-118768809D01*
X98432857Y-118959285D01*
X98385238Y-119054523D01*
X98290000Y-119149761D01*
X98147142Y-119197380D01*
X97909047Y-119197380D01*
X99337619Y-118530714D02*
X99337619Y-119197380D01*
X99099523Y-118149761D02*
X98861428Y-118864047D01*
X99480476Y-118864047D01*
X102434452Y-116402380D02*
X101958261Y-116402380D01*
X101958261Y-115402380D01*
X102767785Y-115878571D02*
X103101119Y-115878571D01*
X103243976Y-116402380D02*
X102767785Y-116402380D01*
X102767785Y-115402380D01*
X103243976Y-115402380D01*
X103672547Y-116402380D02*
X103672547Y-115402380D01*
X103910642Y-115402380D01*
X104053500Y-115450000D01*
X104148738Y-115545238D01*
X104196357Y-115640476D01*
X104243976Y-115830952D01*
X104243976Y-115973809D01*
X104196357Y-116164285D01*
X104148738Y-116259523D01*
X104053500Y-116354761D01*
X103910642Y-116402380D01*
X103672547Y-116402380D01*
X104577309Y-115402380D02*
X105196357Y-115402380D01*
X104863023Y-115783333D01*
X105005880Y-115783333D01*
X105101119Y-115830952D01*
X105148738Y-115878571D01*
X105196357Y-115973809D01*
X105196357Y-116211904D01*
X105148738Y-116307142D01*
X105101119Y-116354761D01*
X105005880Y-116402380D01*
X104720166Y-116402380D01*
X104624928Y-116354761D01*
X104577309Y-116307142D01*
X92939452Y-96338380D02*
X92463261Y-96338380D01*
X92463261Y-95338380D01*
X93272785Y-95814571D02*
X93606119Y-95814571D01*
X93748976Y-96338380D02*
X93272785Y-96338380D01*
X93272785Y-95338380D01*
X93748976Y-95338380D01*
X94177547Y-96338380D02*
X94177547Y-95338380D01*
X94415642Y-95338380D01*
X94558500Y-95386000D01*
X94653738Y-95481238D01*
X94701357Y-95576476D01*
X94748976Y-95766952D01*
X94748976Y-95909809D01*
X94701357Y-96100285D01*
X94653738Y-96195523D01*
X94558500Y-96290761D01*
X94415642Y-96338380D01*
X94177547Y-96338380D01*
X95129928Y-95433619D02*
X95177547Y-95386000D01*
X95272785Y-95338380D01*
X95510880Y-95338380D01*
X95606119Y-95386000D01*
X95653738Y-95433619D01*
X95701357Y-95528857D01*
X95701357Y-95624095D01*
X95653738Y-95766952D01*
X95082309Y-96338380D01*
X95701357Y-96338380D01*
X119683304Y-94914980D02*
X119683304Y-93914980D01*
X119921400Y-93914980D01*
X120064257Y-93962600D01*
X120159495Y-94057838D01*
X120207114Y-94153076D01*
X120254733Y-94343552D01*
X120254733Y-94486409D01*
X120207114Y-94676885D01*
X120159495Y-94772123D01*
X120064257Y-94867361D01*
X119921400Y-94914980D01*
X119683304Y-94914980D01*
X121111876Y-93914980D02*
X120921400Y-93914980D01*
X120826161Y-93962600D01*
X120778542Y-94010219D01*
X120683304Y-94153076D01*
X120635685Y-94343552D01*
X120635685Y-94724504D01*
X120683304Y-94819742D01*
X120730923Y-94867361D01*
X120826161Y-94914980D01*
X121016638Y-94914980D01*
X121111876Y-94867361D01*
X121159495Y-94819742D01*
X121207114Y-94724504D01*
X121207114Y-94486409D01*
X121159495Y-94391171D01*
X121111876Y-94343552D01*
X121016638Y-94295933D01*
X120826161Y-94295933D01*
X120730923Y-94343552D01*
X120683304Y-94391171D01*
X120635685Y-94486409D01*
X105713404Y-113134380D02*
X105713404Y-112134380D01*
X105951500Y-112134380D01*
X106094357Y-112182000D01*
X106189595Y-112277238D01*
X106237214Y-112372476D01*
X106284833Y-112562952D01*
X106284833Y-112705809D01*
X106237214Y-112896285D01*
X106189595Y-112991523D01*
X106094357Y-113086761D01*
X105951500Y-113134380D01*
X105713404Y-113134380D01*
X107189595Y-112134380D02*
X106713404Y-112134380D01*
X106665785Y-112610571D01*
X106713404Y-112562952D01*
X106808642Y-112515333D01*
X107046738Y-112515333D01*
X107141976Y-112562952D01*
X107189595Y-112610571D01*
X107237214Y-112705809D01*
X107237214Y-112943904D01*
X107189595Y-113039142D01*
X107141976Y-113086761D01*
X107046738Y-113134380D01*
X106808642Y-113134380D01*
X106713404Y-113086761D01*
X106665785Y-113039142D01*
X107288104Y-97124780D02*
X107288104Y-96124780D01*
X107526200Y-96124780D01*
X107669057Y-96172400D01*
X107764295Y-96267638D01*
X107811914Y-96362876D01*
X107859533Y-96553352D01*
X107859533Y-96696209D01*
X107811914Y-96886685D01*
X107764295Y-96981923D01*
X107669057Y-97077161D01*
X107526200Y-97124780D01*
X107288104Y-97124780D01*
X108192866Y-96124780D02*
X108811914Y-96124780D01*
X108478580Y-96505733D01*
X108621438Y-96505733D01*
X108716676Y-96553352D01*
X108764295Y-96600971D01*
X108811914Y-96696209D01*
X108811914Y-96934304D01*
X108764295Y-97029542D01*
X108716676Y-97077161D01*
X108621438Y-97124780D01*
X108335723Y-97124780D01*
X108240485Y-97077161D01*
X108192866Y-97029542D01*
X112751452Y-110306380D02*
X112275261Y-110306380D01*
X112275261Y-109306380D01*
X113084785Y-109782571D02*
X113418119Y-109782571D01*
X113560976Y-110306380D02*
X113084785Y-110306380D01*
X113084785Y-109306380D01*
X113560976Y-109306380D01*
X113989547Y-110306380D02*
X113989547Y-109306380D01*
X114227642Y-109306380D01*
X114370500Y-109354000D01*
X114465738Y-109449238D01*
X114513357Y-109544476D01*
X114560976Y-109734952D01*
X114560976Y-109877809D01*
X114513357Y-110068285D01*
X114465738Y-110163523D01*
X114370500Y-110258761D01*
X114227642Y-110306380D01*
X113989547Y-110306380D01*
X115513357Y-110306380D02*
X114941928Y-110306380D01*
X115227642Y-110306380D02*
X115227642Y-109306380D01*
X115132404Y-109449238D01*
X115037166Y-109544476D01*
X114941928Y-109592095D01*
X100180809Y-109618380D02*
X100180809Y-108618380D01*
X101228428Y-109523142D02*
X101180809Y-109570761D01*
X101037952Y-109618380D01*
X100942714Y-109618380D01*
X100799857Y-109570761D01*
X100704619Y-109475523D01*
X100657000Y-109380285D01*
X100609380Y-109189809D01*
X100609380Y-109046952D01*
X100657000Y-108856476D01*
X100704619Y-108761238D01*
X100799857Y-108666000D01*
X100942714Y-108618380D01*
X101037952Y-108618380D01*
X101180809Y-108666000D01*
X101228428Y-108713619D01*
X102180809Y-109618380D02*
X101609380Y-109618380D01*
X101895095Y-109618380D02*
X101895095Y-108618380D01*
X101799857Y-108761238D01*
X101704619Y-108856476D01*
X101609380Y-108904095D01*
X113091933Y-100915742D02*
X113044314Y-100963361D01*
X112901457Y-101010980D01*
X112806219Y-101010980D01*
X112663361Y-100963361D01*
X112568123Y-100868123D01*
X112520504Y-100772885D01*
X112472885Y-100582409D01*
X112472885Y-100439552D01*
X112520504Y-100249076D01*
X112568123Y-100153838D01*
X112663361Y-100058600D01*
X112806219Y-100010980D01*
X112901457Y-100010980D01*
X113044314Y-100058600D01*
X113091933Y-100106219D01*
X114044314Y-101010980D02*
X113472885Y-101010980D01*
X113758600Y-101010980D02*
X113758600Y-100010980D01*
X113663361Y-100153838D01*
X113568123Y-100249076D01*
X113472885Y-100296695D01*
X109120085Y-93603771D02*
X109262942Y-93651390D01*
X109310561Y-93699009D01*
X109358180Y-93794247D01*
X109358180Y-93937104D01*
X109310561Y-94032342D01*
X109262942Y-94079961D01*
X109167704Y-94127580D01*
X108786752Y-94127580D01*
X108786752Y-93127580D01*
X109120085Y-93127580D01*
X109215323Y-93175200D01*
X109262942Y-93222819D01*
X109310561Y-93318057D01*
X109310561Y-93413295D01*
X109262942Y-93508533D01*
X109215323Y-93556152D01*
X109120085Y-93603771D01*
X108786752Y-93603771D01*
X109643895Y-93127580D02*
X110215323Y-93127580D01*
X109929609Y-94127580D02*
X109929609Y-93127580D01*
X111072466Y-94127580D02*
X110501038Y-94127580D01*
X110786752Y-94127580D02*
X110786752Y-93127580D01*
X110691514Y-93270438D01*
X110596276Y-93365676D01*
X110501038Y-93413295D01*
M02*
