M48
; DRILL file {KiCad (5.1.5)-3} date 20-May-26 7:04:36 PM
; FORMAT={-:-/ absolute / inch / decimal}
; #@! TF.CreationDate,2026-05-20T19:04:36+02:00
; #@! TF.GenerationSoftware,Kicad,Pcbnew,(5.1.5)-3
; #@! TF.FileFunction,Plated,1,2,PTH
FMAT,2
INCH
T1C0.0157
%
G90
G05
T1
X3.6115Y-4.15
X3.669Y-4.118
X3.808Y-3.843
X3.808Y-3.985
X3.809Y-4.213
X3.856Y-4.285
X3.895Y-4.567
X3.968Y-3.976
X3.9737Y-4.095
X4.007Y-4.37
X4.016Y-3.94
X4.08Y-4.673
X4.121Y-3.874
X4.124Y-4.582
X4.1512Y-4.428
X4.182Y-4.251
X4.194Y-4.12
X4.242Y-4.431
X4.28Y-4.112
X4.389Y-4.273
X4.416Y-4.024
X4.481Y-3.991
X4.691Y-4.634
T0
M30
